<?xml version="1.0" encoding="utf-8" standalone="no"?>
<!DOCTYPE svg PUBLIC "-//W3C//DTD SVG 1.1//EN"
  "http://www.w3.org/Graphics/SVG/1.1/DTD/svg11.dtd">
<svg xmlns:xlink="http://www.w3.org/1999/xlink" width="404.916178pt" height="289.81225pt" viewBox="0 0 404.916178 289.81225" xmlns="http://www.w3.org/2000/svg" version="1.1">
 <metadata>
  <rdf:RDF xmlns:dc="http://purl.org/dc/elements/1.1/" xmlns:cc="http://creativecommons.org/ns#" xmlns:rdf="http://www.w3.org/1999/02/22-rdf-syntax-ns#">
   <cc:Work>
    <dc:type rdf:resource="http://purl.org/dc/dcmitype/StillImage"/>
    <dc:date>2024-04-07T21:27:50.346012</dc:date>
    <dc:format>image/svg+xml</dc:format>
    <dc:creator>
     <cc:Agent>
      <dc:title>Matplotlib v3.7.2, https://matplotlib.org/</dc:title>
     </cc:Agent>
    </dc:creator>
   </cc:Work>
  </rdf:RDF>
 </metadata>
 <defs>
  <style type="text/css">*{stroke-linejoin: round; stroke-linecap: butt}</style>
 </defs>
 <g id="figure_1">
  <g id="patch_1">
   <path d="M 0 289.81225 
L 404.916178 289.81225 
L 404.916178 0 
L 0 0 
z
" style="fill: #ffffff"/>
  </g>
  <g id="axes_1">
   <g id="patch_2">
    <path d="M 56.50625 252.256 
L 391.30625 252.256 
L 391.30625 34.816 
L 56.50625 34.816 
z
" style="fill: #ffffff"/>
   </g>
   <g id="matplotlib.axis_1">
    <g id="xtick_1">
     <g id="line2d_1">
      <defs>
       <path id="me4aa39d835" d="M 0 0 
L 0 3.5 
" style="stroke: #000000; stroke-width: 0.8"/>
      </defs>
      <g>
       <use xlink:href="#me4aa39d835" x="71.724432" y="252.256" style="stroke: #000000; stroke-width: 0.8"/>
      </g>
     </g>
     <g id="text_1">
      <!-- 0.00 -->
      <g transform="translate(60.591619 266.854437) scale(0.1 -0.1)">
       <defs>
        <path id="DejaVuSans-30" d="M 2034 4250 
Q 1547 4250 1301 3770 
Q 1056 3291 1056 2328 
Q 1056 1369 1301 889 
Q 1547 409 2034 409 
Q 2525 409 2770 889 
Q 3016 1369 3016 2328 
Q 3016 3291 2770 3770 
Q 2525 4250 2034 4250 
z
M 2034 4750 
Q 2819 4750 3233 4129 
Q 3647 3509 3647 2328 
Q 3647 1150 3233 529 
Q 2819 -91 2034 -91 
Q 1250 -91 836 529 
Q 422 1150 422 2328 
Q 422 3509 836 4129 
Q 1250 4750 2034 4750 
z
" transform="scale(0.015625)"/>
        <path id="DejaVuSans-2e" d="M 684 794 
L 1344 794 
L 1344 0 
L 684 0 
L 684 794 
z
" transform="scale(0.015625)"/>
       </defs>
       <use xlink:href="#DejaVuSans-30"/>
       <use xlink:href="#DejaVuSans-2e" x="63.623047"/>
       <use xlink:href="#DejaVuSans-30" x="95.410156"/>
       <use xlink:href="#DejaVuSans-30" x="159.033203"/>
      </g>
     </g>
    </g>
    <g id="xtick_2">
     <g id="line2d_2">
      <g>
       <use xlink:href="#me4aa39d835" x="124.200921" y="252.256" style="stroke: #000000; stroke-width: 0.8"/>
      </g>
     </g>
     <g id="text_2">
      <!-- 0.05 -->
      <g transform="translate(113.068108 266.854437) scale(0.1 -0.1)">
       <defs>
        <path id="DejaVuSans-35" d="M 691 4666 
L 3169 4666 
L 3169 4134 
L 1269 4134 
L 1269 2991 
Q 1406 3038 1543 3061 
Q 1681 3084 1819 3084 
Q 2600 3084 3056 2656 
Q 3513 2228 3513 1497 
Q 3513 744 3044 326 
Q 2575 -91 1722 -91 
Q 1428 -91 1123 -41 
Q 819 9 494 109 
L 494 744 
Q 775 591 1075 516 
Q 1375 441 1709 441 
Q 2250 441 2565 725 
Q 2881 1009 2881 1497 
Q 2881 1984 2565 2268 
Q 2250 2553 1709 2553 
Q 1456 2553 1204 2497 
Q 953 2441 691 2322 
L 691 4666 
z
" transform="scale(0.015625)"/>
       </defs>
       <use xlink:href="#DejaVuSans-30"/>
       <use xlink:href="#DejaVuSans-2e" x="63.623047"/>
       <use xlink:href="#DejaVuSans-30" x="95.410156"/>
       <use xlink:href="#DejaVuSans-35" x="159.033203"/>
      </g>
     </g>
    </g>
    <g id="xtick_3">
     <g id="line2d_3">
      <g>
       <use xlink:href="#me4aa39d835" x="176.67741" y="252.256" style="stroke: #000000; stroke-width: 0.8"/>
      </g>
     </g>
     <g id="text_3">
      <!-- 0.10 -->
      <g transform="translate(165.544597 266.854437) scale(0.1 -0.1)">
       <defs>
        <path id="DejaVuSans-31" d="M 794 531 
L 1825 531 
L 1825 4091 
L 703 3866 
L 703 4441 
L 1819 4666 
L 2450 4666 
L 2450 531 
L 3481 531 
L 3481 0 
L 794 0 
L 794 531 
z
" transform="scale(0.015625)"/>
       </defs>
       <use xlink:href="#DejaVuSans-30"/>
       <use xlink:href="#DejaVuSans-2e" x="63.623047"/>
       <use xlink:href="#DejaVuSans-31" x="95.410156"/>
       <use xlink:href="#DejaVuSans-30" x="159.033203"/>
      </g>
     </g>
    </g>
    <g id="xtick_4">
     <g id="line2d_4">
      <g>
       <use xlink:href="#me4aa39d835" x="229.153899" y="252.256" style="stroke: #000000; stroke-width: 0.8"/>
      </g>
     </g>
     <g id="text_4">
      <!-- 0.15 -->
      <g transform="translate(218.021086 266.854437) scale(0.1 -0.1)">
       <use xlink:href="#DejaVuSans-30"/>
       <use xlink:href="#DejaVuSans-2e" x="63.623047"/>
       <use xlink:href="#DejaVuSans-31" x="95.410156"/>
       <use xlink:href="#DejaVuSans-35" x="159.033203"/>
      </g>
     </g>
    </g>
    <g id="xtick_5">
     <g id="line2d_5">
      <g>
       <use xlink:href="#me4aa39d835" x="281.630388" y="252.256" style="stroke: #000000; stroke-width: 0.8"/>
      </g>
     </g>
     <g id="text_5">
      <!-- 0.20 -->
      <g transform="translate(270.497575 266.854437) scale(0.1 -0.1)">
       <defs>
        <path id="DejaVuSans-32" d="M 1228 531 
L 3431 531 
L 3431 0 
L 469 0 
L 469 531 
Q 828 903 1448 1529 
Q 2069 2156 2228 2338 
Q 2531 2678 2651 2914 
Q 2772 3150 2772 3378 
Q 2772 3750 2511 3984 
Q 2250 4219 1831 4219 
Q 1534 4219 1204 4116 
Q 875 4013 500 3803 
L 500 4441 
Q 881 4594 1212 4672 
Q 1544 4750 1819 4750 
Q 2544 4750 2975 4387 
Q 3406 4025 3406 3419 
Q 3406 3131 3298 2873 
Q 3191 2616 2906 2266 
Q 2828 2175 2409 1742 
Q 1991 1309 1228 531 
z
" transform="scale(0.015625)"/>
       </defs>
       <use xlink:href="#DejaVuSans-30"/>
       <use xlink:href="#DejaVuSans-2e" x="63.623047"/>
       <use xlink:href="#DejaVuSans-32" x="95.410156"/>
       <use xlink:href="#DejaVuSans-30" x="159.033203"/>
      </g>
     </g>
    </g>
    <g id="xtick_6">
     <g id="line2d_6">
      <g>
       <use xlink:href="#me4aa39d835" x="334.106877" y="252.256" style="stroke: #000000; stroke-width: 0.8"/>
      </g>
     </g>
     <g id="text_6">
      <!-- 0.25 -->
      <g transform="translate(322.974064 266.854437) scale(0.1 -0.1)">
       <use xlink:href="#DejaVuSans-30"/>
       <use xlink:href="#DejaVuSans-2e" x="63.623047"/>
       <use xlink:href="#DejaVuSans-32" x="95.410156"/>
       <use xlink:href="#DejaVuSans-35" x="159.033203"/>
      </g>
     </g>
    </g>
    <g id="xtick_7">
     <g id="line2d_7">
      <g>
       <use xlink:href="#me4aa39d835" x="386.583366" y="252.256" style="stroke: #000000; stroke-width: 0.8"/>
      </g>
     </g>
     <g id="text_7">
      <!-- 0.30 -->
      <g transform="translate(375.450553 266.854437) scale(0.1 -0.1)">
       <defs>
        <path id="DejaVuSans-33" d="M 2597 2516 
Q 3050 2419 3304 2112 
Q 3559 1806 3559 1356 
Q 3559 666 3084 287 
Q 2609 -91 1734 -91 
Q 1441 -91 1130 -33 
Q 819 25 488 141 
L 488 750 
Q 750 597 1062 519 
Q 1375 441 1716 441 
Q 2309 441 2620 675 
Q 2931 909 2931 1356 
Q 2931 1769 2642 2001 
Q 2353 2234 1838 2234 
L 1294 2234 
L 1294 2753 
L 1863 2753 
Q 2328 2753 2575 2939 
Q 2822 3125 2822 3475 
Q 2822 3834 2567 4026 
Q 2313 4219 1838 4219 
Q 1578 4219 1281 4162 
Q 984 4106 628 3988 
L 628 4550 
Q 988 4650 1302 4700 
Q 1616 4750 1894 4750 
Q 2613 4750 3031 4423 
Q 3450 4097 3450 3541 
Q 3450 3153 3228 2886 
Q 3006 2619 2597 2516 
z
" transform="scale(0.015625)"/>
       </defs>
       <use xlink:href="#DejaVuSans-30"/>
       <use xlink:href="#DejaVuSans-2e" x="63.623047"/>
       <use xlink:href="#DejaVuSans-33" x="95.410156"/>
       <use xlink:href="#DejaVuSans-30" x="159.033203"/>
      </g>
     </g>
    </g>
    <g id="text_8">
     <!-- z (m) -->
     <g transform="translate(210.921094 280.532562) scale(0.1 -0.1)">
      <defs>
       <path id="DejaVuSans-7a" d="M 353 3500 
L 3084 3500 
L 3084 2975 
L 922 459 
L 3084 459 
L 3084 0 
L 275 0 
L 275 525 
L 2438 3041 
L 353 3041 
L 353 3500 
z
" transform="scale(0.015625)"/>
       <path id="DejaVuSans-20" transform="scale(0.015625)"/>
       <path id="DejaVuSans-28" d="M 1984 4856 
Q 1566 4138 1362 3434 
Q 1159 2731 1159 2009 
Q 1159 1288 1364 580 
Q 1569 -128 1984 -844 
L 1484 -844 
Q 1016 -109 783 600 
Q 550 1309 550 2009 
Q 550 2706 781 3412 
Q 1013 4119 1484 4856 
L 1984 4856 
z
" transform="scale(0.015625)"/>
       <path id="DejaVuSans-6d" d="M 3328 2828 
Q 3544 3216 3844 3400 
Q 4144 3584 4550 3584 
Q 5097 3584 5394 3201 
Q 5691 2819 5691 2113 
L 5691 0 
L 5113 0 
L 5113 2094 
Q 5113 2597 4934 2840 
Q 4756 3084 4391 3084 
Q 3944 3084 3684 2787 
Q 3425 2491 3425 1978 
L 3425 0 
L 2847 0 
L 2847 2094 
Q 2847 2600 2669 2842 
Q 2491 3084 2119 3084 
Q 1678 3084 1418 2786 
Q 1159 2488 1159 1978 
L 1159 0 
L 581 0 
L 581 3500 
L 1159 3500 
L 1159 2956 
Q 1356 3278 1631 3431 
Q 1906 3584 2284 3584 
Q 2666 3584 2933 3390 
Q 3200 3197 3328 2828 
z
" transform="scale(0.015625)"/>
       <path id="DejaVuSans-29" d="M 513 4856 
L 1013 4856 
Q 1481 4119 1714 3412 
Q 1947 2706 1947 2009 
Q 1947 1309 1714 600 
Q 1481 -109 1013 -844 
L 513 -844 
Q 928 -128 1133 580 
Q 1338 1288 1338 2009 
Q 1338 2731 1133 3434 
Q 928 4138 513 4856 
z
" transform="scale(0.015625)"/>
      </defs>
      <use xlink:href="#DejaVuSans-7a"/>
      <use xlink:href="#DejaVuSans-20" x="52.490234"/>
      <use xlink:href="#DejaVuSans-28" x="84.277344"/>
      <use xlink:href="#DejaVuSans-6d" x="123.291016"/>
      <use xlink:href="#DejaVuSans-29" x="220.703125"/>
     </g>
    </g>
   </g>
   <g id="matplotlib.axis_2">
    <g id="ytick_1">
     <g id="line2d_8">
      <defs>
       <path id="m78218ffbef" d="M 0 0 
L -3.5 0 
" style="stroke: #000000; stroke-width: 0.8"/>
      </defs>
      <g>
       <use xlink:href="#m78218ffbef" x="56.50625" y="236.783324" style="stroke: #000000; stroke-width: 0.8"/>
      </g>
     </g>
     <g id="text_9">
      <!-- 0.005 -->
      <g transform="translate(20.878125 240.582543) scale(0.1 -0.1)">
       <use xlink:href="#DejaVuSans-30"/>
       <use xlink:href="#DejaVuSans-2e" x="63.623047"/>
       <use xlink:href="#DejaVuSans-30" x="95.410156"/>
       <use xlink:href="#DejaVuSans-30" x="159.033203"/>
       <use xlink:href="#DejaVuSans-35" x="222.65625"/>
      </g>
     </g>
    </g>
    <g id="ytick_2">
     <g id="line2d_9">
      <g>
       <use xlink:href="#m78218ffbef" x="56.50625" y="203.063304" style="stroke: #000000; stroke-width: 0.8"/>
      </g>
     </g>
     <g id="text_10">
      <!-- 0.010 -->
      <g transform="translate(20.878125 206.862522) scale(0.1 -0.1)">
       <use xlink:href="#DejaVuSans-30"/>
       <use xlink:href="#DejaVuSans-2e" x="63.623047"/>
       <use xlink:href="#DejaVuSans-30" x="95.410156"/>
       <use xlink:href="#DejaVuSans-31" x="159.033203"/>
       <use xlink:href="#DejaVuSans-30" x="222.65625"/>
      </g>
     </g>
    </g>
    <g id="ytick_3">
     <g id="line2d_10">
      <g>
       <use xlink:href="#m78218ffbef" x="56.50625" y="169.343283" style="stroke: #000000; stroke-width: 0.8"/>
      </g>
     </g>
     <g id="text_11">
      <!-- 0.015 -->
      <g transform="translate(20.878125 173.142502) scale(0.1 -0.1)">
       <use xlink:href="#DejaVuSans-30"/>
       <use xlink:href="#DejaVuSans-2e" x="63.623047"/>
       <use xlink:href="#DejaVuSans-30" x="95.410156"/>
       <use xlink:href="#DejaVuSans-31" x="159.033203"/>
       <use xlink:href="#DejaVuSans-35" x="222.65625"/>
      </g>
     </g>
    </g>
    <g id="ytick_4">
     <g id="line2d_11">
      <g>
       <use xlink:href="#m78218ffbef" x="56.50625" y="135.623263" style="stroke: #000000; stroke-width: 0.8"/>
      </g>
     </g>
     <g id="text_12">
      <!-- 0.020 -->
      <g transform="translate(20.878125 139.422482) scale(0.1 -0.1)">
       <use xlink:href="#DejaVuSans-30"/>
       <use xlink:href="#DejaVuSans-2e" x="63.623047"/>
       <use xlink:href="#DejaVuSans-30" x="95.410156"/>
       <use xlink:href="#DejaVuSans-32" x="159.033203"/>
       <use xlink:href="#DejaVuSans-30" x="222.65625"/>
      </g>
     </g>
    </g>
    <g id="ytick_5">
     <g id="line2d_12">
      <g>
       <use xlink:href="#m78218ffbef" x="56.50625" y="101.903242" style="stroke: #000000; stroke-width: 0.8"/>
      </g>
     </g>
     <g id="text_13">
      <!-- 0.025 -->
      <g transform="translate(20.878125 105.702461) scale(0.1 -0.1)">
       <use xlink:href="#DejaVuSans-30"/>
       <use xlink:href="#DejaVuSans-2e" x="63.623047"/>
       <use xlink:href="#DejaVuSans-30" x="95.410156"/>
       <use xlink:href="#DejaVuSans-32" x="159.033203"/>
       <use xlink:href="#DejaVuSans-35" x="222.65625"/>
      </g>
     </g>
    </g>
    <g id="ytick_6">
     <g id="line2d_13">
      <g>
       <use xlink:href="#m78218ffbef" x="56.50625" y="68.183222" style="stroke: #000000; stroke-width: 0.8"/>
      </g>
     </g>
     <g id="text_14">
      <!-- 0.030 -->
      <g transform="translate(20.878125 71.982441) scale(0.1 -0.1)">
       <use xlink:href="#DejaVuSans-30"/>
       <use xlink:href="#DejaVuSans-2e" x="63.623047"/>
       <use xlink:href="#DejaVuSans-30" x="95.410156"/>
       <use xlink:href="#DejaVuSans-33" x="159.033203"/>
       <use xlink:href="#DejaVuSans-30" x="222.65625"/>
      </g>
     </g>
    </g>
    <g id="text_15">
     <!-- Concentrations: CH4 (mol/L) -->
     <g transform="translate(14.798438 214.497719) rotate(-90) scale(0.1 -0.1)">
      <defs>
       <path id="DejaVuSans-43" d="M 4122 4306 
L 4122 3641 
Q 3803 3938 3442 4084 
Q 3081 4231 2675 4231 
Q 1875 4231 1450 3742 
Q 1025 3253 1025 2328 
Q 1025 1406 1450 917 
Q 1875 428 2675 428 
Q 3081 428 3442 575 
Q 3803 722 4122 1019 
L 4122 359 
Q 3791 134 3420 21 
Q 3050 -91 2638 -91 
Q 1578 -91 968 557 
Q 359 1206 359 2328 
Q 359 3453 968 4101 
Q 1578 4750 2638 4750 
Q 3056 4750 3426 4639 
Q 3797 4528 4122 4306 
z
" transform="scale(0.015625)"/>
       <path id="DejaVuSans-6f" d="M 1959 3097 
Q 1497 3097 1228 2736 
Q 959 2375 959 1747 
Q 959 1119 1226 758 
Q 1494 397 1959 397 
Q 2419 397 2687 759 
Q 2956 1122 2956 1747 
Q 2956 2369 2687 2733 
Q 2419 3097 1959 3097 
z
M 1959 3584 
Q 2709 3584 3137 3096 
Q 3566 2609 3566 1747 
Q 3566 888 3137 398 
Q 2709 -91 1959 -91 
Q 1206 -91 779 398 
Q 353 888 353 1747 
Q 353 2609 779 3096 
Q 1206 3584 1959 3584 
z
" transform="scale(0.015625)"/>
       <path id="DejaVuSans-6e" d="M 3513 2113 
L 3513 0 
L 2938 0 
L 2938 2094 
Q 2938 2591 2744 2837 
Q 2550 3084 2163 3084 
Q 1697 3084 1428 2787 
Q 1159 2491 1159 1978 
L 1159 0 
L 581 0 
L 581 3500 
L 1159 3500 
L 1159 2956 
Q 1366 3272 1645 3428 
Q 1925 3584 2291 3584 
Q 2894 3584 3203 3211 
Q 3513 2838 3513 2113 
z
" transform="scale(0.015625)"/>
       <path id="DejaVuSans-63" d="M 3122 3366 
L 3122 2828 
Q 2878 2963 2633 3030 
Q 2388 3097 2138 3097 
Q 1578 3097 1268 2742 
Q 959 2388 959 1747 
Q 959 1106 1268 751 
Q 1578 397 2138 397 
Q 2388 397 2633 464 
Q 2878 531 3122 666 
L 3122 134 
Q 2881 22 2623 -34 
Q 2366 -91 2075 -91 
Q 1284 -91 818 406 
Q 353 903 353 1747 
Q 353 2603 823 3093 
Q 1294 3584 2113 3584 
Q 2378 3584 2631 3529 
Q 2884 3475 3122 3366 
z
" transform="scale(0.015625)"/>
       <path id="DejaVuSans-65" d="M 3597 1894 
L 3597 1613 
L 953 1613 
Q 991 1019 1311 708 
Q 1631 397 2203 397 
Q 2534 397 2845 478 
Q 3156 559 3463 722 
L 3463 178 
Q 3153 47 2828 -22 
Q 2503 -91 2169 -91 
Q 1331 -91 842 396 
Q 353 884 353 1716 
Q 353 2575 817 3079 
Q 1281 3584 2069 3584 
Q 2775 3584 3186 3129 
Q 3597 2675 3597 1894 
z
M 3022 2063 
Q 3016 2534 2758 2815 
Q 2500 3097 2075 3097 
Q 1594 3097 1305 2825 
Q 1016 2553 972 2059 
L 3022 2063 
z
" transform="scale(0.015625)"/>
       <path id="DejaVuSans-74" d="M 1172 4494 
L 1172 3500 
L 2356 3500 
L 2356 3053 
L 1172 3053 
L 1172 1153 
Q 1172 725 1289 603 
Q 1406 481 1766 481 
L 2356 481 
L 2356 0 
L 1766 0 
Q 1100 0 847 248 
Q 594 497 594 1153 
L 594 3053 
L 172 3053 
L 172 3500 
L 594 3500 
L 594 4494 
L 1172 4494 
z
" transform="scale(0.015625)"/>
       <path id="DejaVuSans-72" d="M 2631 2963 
Q 2534 3019 2420 3045 
Q 2306 3072 2169 3072 
Q 1681 3072 1420 2755 
Q 1159 2438 1159 1844 
L 1159 0 
L 581 0 
L 581 3500 
L 1159 3500 
L 1159 2956 
Q 1341 3275 1631 3429 
Q 1922 3584 2338 3584 
Q 2397 3584 2469 3576 
Q 2541 3569 2628 3553 
L 2631 2963 
z
" transform="scale(0.015625)"/>
       <path id="DejaVuSans-61" d="M 2194 1759 
Q 1497 1759 1228 1600 
Q 959 1441 959 1056 
Q 959 750 1161 570 
Q 1363 391 1709 391 
Q 2188 391 2477 730 
Q 2766 1069 2766 1631 
L 2766 1759 
L 2194 1759 
z
M 3341 1997 
L 3341 0 
L 2766 0 
L 2766 531 
Q 2569 213 2275 61 
Q 1981 -91 1556 -91 
Q 1019 -91 701 211 
Q 384 513 384 1019 
Q 384 1609 779 1909 
Q 1175 2209 1959 2209 
L 2766 2209 
L 2766 2266 
Q 2766 2663 2505 2880 
Q 2244 3097 1772 3097 
Q 1472 3097 1187 3025 
Q 903 2953 641 2809 
L 641 3341 
Q 956 3463 1253 3523 
Q 1550 3584 1831 3584 
Q 2591 3584 2966 3190 
Q 3341 2797 3341 1997 
z
" transform="scale(0.015625)"/>
       <path id="DejaVuSans-69" d="M 603 3500 
L 1178 3500 
L 1178 0 
L 603 0 
L 603 3500 
z
M 603 4863 
L 1178 4863 
L 1178 4134 
L 603 4134 
L 603 4863 
z
" transform="scale(0.015625)"/>
       <path id="DejaVuSans-73" d="M 2834 3397 
L 2834 2853 
Q 2591 2978 2328 3040 
Q 2066 3103 1784 3103 
Q 1356 3103 1142 2972 
Q 928 2841 928 2578 
Q 928 2378 1081 2264 
Q 1234 2150 1697 2047 
L 1894 2003 
Q 2506 1872 2764 1633 
Q 3022 1394 3022 966 
Q 3022 478 2636 193 
Q 2250 -91 1575 -91 
Q 1294 -91 989 -36 
Q 684 19 347 128 
L 347 722 
Q 666 556 975 473 
Q 1284 391 1588 391 
Q 1994 391 2212 530 
Q 2431 669 2431 922 
Q 2431 1156 2273 1281 
Q 2116 1406 1581 1522 
L 1381 1569 
Q 847 1681 609 1914 
Q 372 2147 372 2553 
Q 372 3047 722 3315 
Q 1072 3584 1716 3584 
Q 2034 3584 2315 3537 
Q 2597 3491 2834 3397 
z
" transform="scale(0.015625)"/>
       <path id="DejaVuSans-3a" d="M 750 794 
L 1409 794 
L 1409 0 
L 750 0 
L 750 794 
z
M 750 3309 
L 1409 3309 
L 1409 2516 
L 750 2516 
L 750 3309 
z
" transform="scale(0.015625)"/>
       <path id="DejaVuSans-48" d="M 628 4666 
L 1259 4666 
L 1259 2753 
L 3553 2753 
L 3553 4666 
L 4184 4666 
L 4184 0 
L 3553 0 
L 3553 2222 
L 1259 2222 
L 1259 0 
L 628 0 
L 628 4666 
z
" transform="scale(0.015625)"/>
       <path id="DejaVuSans-34" d="M 2419 4116 
L 825 1625 
L 2419 1625 
L 2419 4116 
z
M 2253 4666 
L 3047 4666 
L 3047 1625 
L 3713 1625 
L 3713 1100 
L 3047 1100 
L 3047 0 
L 2419 0 
L 2419 1100 
L 313 1100 
L 313 1709 
L 2253 4666 
z
" transform="scale(0.015625)"/>
       <path id="DejaVuSans-6c" d="M 603 4863 
L 1178 4863 
L 1178 0 
L 603 0 
L 603 4863 
z
" transform="scale(0.015625)"/>
       <path id="DejaVuSans-2f" d="M 1625 4666 
L 2156 4666 
L 531 -594 
L 0 -594 
L 1625 4666 
z
" transform="scale(0.015625)"/>
       <path id="DejaVuSans-4c" d="M 628 4666 
L 1259 4666 
L 1259 531 
L 3531 531 
L 3531 0 
L 628 0 
L 628 4666 
z
" transform="scale(0.015625)"/>
      </defs>
      <use xlink:href="#DejaVuSans-43"/>
      <use xlink:href="#DejaVuSans-6f" x="69.824219"/>
      <use xlink:href="#DejaVuSans-6e" x="131.005859"/>
      <use xlink:href="#DejaVuSans-63" x="194.384766"/>
      <use xlink:href="#DejaVuSans-65" x="249.365234"/>
      <use xlink:href="#DejaVuSans-6e" x="310.888672"/>
      <use xlink:href="#DejaVuSans-74" x="374.267578"/>
      <use xlink:href="#DejaVuSans-72" x="413.476562"/>
      <use xlink:href="#DejaVuSans-61" x="454.589844"/>
      <use xlink:href="#DejaVuSans-74" x="515.869141"/>
      <use xlink:href="#DejaVuSans-69" x="555.078125"/>
      <use xlink:href="#DejaVuSans-6f" x="582.861328"/>
      <use xlink:href="#DejaVuSans-6e" x="644.042969"/>
      <use xlink:href="#DejaVuSans-73" x="707.421875"/>
      <use xlink:href="#DejaVuSans-3a" x="759.521484"/>
      <use xlink:href="#DejaVuSans-20" x="793.212891"/>
      <use xlink:href="#DejaVuSans-43" x="825"/>
      <use xlink:href="#DejaVuSans-48" x="894.824219"/>
      <use xlink:href="#DejaVuSans-34" x="970.019531"/>
      <use xlink:href="#DejaVuSans-20" x="1033.642578"/>
      <use xlink:href="#DejaVuSans-28" x="1065.429688"/>
      <use xlink:href="#DejaVuSans-6d" x="1104.443359"/>
      <use xlink:href="#DejaVuSans-6f" x="1201.855469"/>
      <use xlink:href="#DejaVuSans-6c" x="1263.037109"/>
      <use xlink:href="#DejaVuSans-2f" x="1290.820312"/>
      <use xlink:href="#DejaVuSans-4c" x="1324.511719"/>
      <use xlink:href="#DejaVuSans-29" x="1380.224609"/>
     </g>
    </g>
   </g>
   <g id="line2d_14">
    <path d="M 71.724432 195.235442 
L 71.724443 195.377803 
L 71.724454 195.413446 
L 71.724507 195.517797 
L 71.724599 195.626317 
L 71.724915 195.838887 
L 71.725425 196.04825 
L 71.726875 196.415123 
L 71.729972 196.892863 
L 71.741871 197.905101 
L 71.753569 198.548976 
L 71.786419 199.788067 
L 71.899527 202.257581 
L 72.002225 203.728746 
L 72.279951 206.43769 
L 72.630874 208.722732 
L 73.178376 211.183059 
L 73.926321 213.487503 
L 74.925352 215.606239 
L 76.204175 217.477183 
L 77.788631 219.087544 
L 79.70348 220.456651 
L 81.987895 221.625843 
L 84.715797 222.64367 
L 88.036512 223.558654 
L 92.312161 224.428082 
L 98.068741 225.281756 
L 103.825321 225.929783 
L 110.983833 226.58394 
L 120.110842 227.300101 
L 131.247471 228.09933 
L 142.384099 228.86514 
L 152.431721 229.541109 
L 162.296777 230.194823 
L 172.430303 230.85717 
L 182.671273 231.517471 
L 192.943858 232.170807 
L 203.275983 232.818926 
L 213.690924 233.463165 
L 224.190191 234.103458 
L 234.773018 234.739595 
L 245.443441 235.371653 
L 256.207175 235.999793 
L 267.069177 236.624113 
L 278.033952 237.244668 
L 289.106412 237.861521 
L 300.292057 238.474752 
L 311.596766 239.08444 
L 323.026664 239.69066 
L 334.5882 240.293481 
L 346.288282 240.892973 
L 358.134353 241.48921 
L 370.134393 242.082266 
L 376.088068 242.372364 
" clip-path="url(#p84ebfee3d7)" style="fill: none; stroke: #1f77b4; stroke-linecap: square"/>
   </g>
   <g id="line2d_15">
    <path d="M 71.724432 170.146141 
L 71.72444 170.288389 
L 71.724448 170.324095 
L 71.724488 170.428383 
L 71.724557 170.537333 
L 71.724792 170.749778 
L 71.725175 170.961483 
L 71.726253 171.329756 
L 71.728631 171.824082 
L 71.737819 172.873765 
L 71.746689 173.532071 
L 71.771525 174.8044 
L 71.844334 177.06501 
L 71.926026 178.739412 
L 72.116245 181.383537 
L 72.366421 183.717164 
L 72.746677 186.15902 
L 73.268242 188.450435 
L 73.967729 190.554282 
L 74.873988 192.419337 
L 76.016547 194.033077 
L 77.424023 195.407864 
L 79.128531 196.574633 
L 81.173038 197.573393 
L 83.625567 198.445793 
L 86.609842 199.231852 
L 90.39348 199.97508 
L 95.932485 200.774645 
L 102.070677 201.445578 
L 108.902047 202.061374 
L 118.245213 202.806093 
L 127.320237 203.486032 
L 136.395262 204.148079 
L 145.448603 204.79844 
L 154.270881 205.42479 
L 163.046181 206.041283 
L 171.845747 206.65318 
L 180.65107 207.25925 
L 189.45088 207.858764 
L 198.248398 208.45199 
L 207.046698 209.039169 
L 215.845669 209.620324 
L 224.644587 210.19544 
L 233.443225 210.764533 
L 242.24147 211.327627 
L 251.038973 211.884734 
L 259.835185 212.435852 
L 268.62947 212.980975 
L 277.421133 213.520096 
L 286.209392 214.053204 
L 294.993374 214.580284 
L 303.772131 215.101321 
L 312.544654 215.616296 
L 321.309888 216.125191 
L 330.066735 216.627988 
L 338.814064 217.124669 
L 347.550727 217.615219 
L 356.275565 218.099625 
L 364.987423 218.577876 
L 373.685158 219.049965 
L 376.088068 219.179373 
" clip-path="url(#p84ebfee3d7)" style="fill: none; stroke: #ff7f0e; stroke-linecap: square"/>
   </g>
   <g id="line2d_16">
    <path d="M 71.724432 119.967539 
L 71.724437 120.109704 
L 71.724443 120.145585 
L 71.724469 120.249932 
L 71.724515 120.360108 
L 71.724669 120.572893 
L 71.724926 120.7908 
L 71.725634 121.164161 
L 71.72733 121.705195 
L 71.731372 122.493281 
L 71.740518 123.600785 
L 71.762171 125.231007 
L 71.797155 126.955789 
L 71.87093 129.354263 
L 71.972098 131.558038 
L 72.129338 133.906335 
L 72.349951 136.149316 
L 72.654943 138.256752 
L 73.065539 140.176456 
L 73.607879 141.887385 
L 74.311001 143.38237 
L 75.20585 144.666434 
L 76.323954 145.754776 
L 77.697248 146.671387 
L 79.360378 147.446636 
L 81.357431 148.113742 
L 83.7558 148.705249 
L 86.673564 149.251637 
L 90.346012 149.785257 
L 95.393907 150.362856 
L 102.575267 151.029483 
L 109.756626 151.616218 
L 118.929602 152.322289 
L 126.23915 152.870337 
L 133.548697 153.411842 
L 141.162534 153.970758 
L 148.668987 154.517227 
L 156.045162 155.050017 
L 163.372758 155.575264 
L 170.670614 156.094411 
L 177.923471 156.606445 
L 185.124696 157.110987 
L 192.277483 157.608353 
L 199.384593 158.098821 
L 206.445787 158.582454 
L 213.460207 159.059276 
L 220.427789 159.529364 
L 227.348883 159.992824 
L 234.223649 160.449746 
L 241.052023 160.900203 
L 247.833951 161.344272 
L 254.569497 161.782033 
L 261.25878 162.213571 
L 267.90191 162.638969 
L 274.498992 163.058308 
L 281.050167 163.471671 
L 287.55563 163.879144 
L 294.015612 164.280812 
L 300.430368 164.676762 
L 306.800181 165.067082 
L 313.125363 165.451859 
L 319.406263 165.831182 
L 325.643263 166.20514 
L 331.836767 166.573822 
L 337.9872 166.937318 
L 344.095011 167.295716 
L 350.16067 167.649106 
L 356.184669 167.997576 
L 362.167512 168.341215 
L 368.109717 168.680109 
L 374.011813 169.014346 
L 376.088068 169.131277 
" clip-path="url(#p84ebfee3d7)" style="fill: none; stroke: #2ca02c; stroke-linecap: square"/>
   </g>
   <g id="line2d_17">
    <path d="M 71.724432 69.788937 
L 71.724436 69.93148 
L 71.72444 69.967717 
L 71.724459 70.072722 
L 71.724494 70.185569 
L 71.724607 70.400384 
L 71.724804 70.631063 
L 71.72533 71.017368 
L 71.726902 71.695659 
L 71.729211 72.340984 
L 71.734493 73.345354 
L 71.746347 74.826999 
L 71.770511 76.783351 
L 71.806783 78.743606 
L 71.864462 80.864839 
L 71.947694 82.939627 
L 72.066105 84.935575 
L 72.230843 86.802367 
L 72.457288 88.519215 
L 72.765096 90.074042 
L 73.17833 91.459529 
L 73.72467 92.671097 
L 74.433921 93.708308 
L 75.336045 94.57724 
L 76.459458 95.292328 
L 77.830852 95.876391 
L 79.478052 96.358243 
L 81.437036 96.768623 
L 83.763833 97.136357 
L 86.553421 97.486813 
L 89.972821 97.84379 
L 94.336381 98.236322 
L 100.320764 98.716182 
L 108.477369 99.322904 
L 115.273237 99.811514 
L 122.069105 100.293163 
L 128.8763 100.771164 
L 135.462724 101.230196 
L 141.900877 101.675872 
L 148.296301 102.115723 
L 154.654746 102.550214 
L 160.940907 102.977 
L 167.143639 103.395426 
L 173.275219 103.806418 
L 179.345854 104.210745 
L 185.354485 104.60841 
L 191.296677 104.999196 
L 197.172228 105.383173 
L 202.984522 105.760638 
L 208.736243 106.131841 
L 214.427716 106.496875 
L 220.058539 106.855785 
L 225.629424 107.208688 
L 231.142144 107.555763 
L 236.598323 107.897181 
L 241.998778 108.233057 
L 247.343981 108.563483 
L 252.634783 108.888574 
L 257.872527 109.208473 
L 263.058567 109.523321 
L 268.193879 109.833233 
L 273.279181 110.138308 
L 278.315314 110.43865 
L 283.303411 110.73438 
L 288.244679 111.025619 
L 293.140119 111.312477 
L 297.990503 111.595045 
L 302.796608 111.873416 
L 307.559396 112.14769 
L 312.279941 112.417974 
L 316.959209 112.684365 
L 321.597965 112.946948 
L 326.196899 113.205803 
L 330.756811 113.461014 
L 335.278637 113.712671 
L 339.763285 113.960861 
L 344.211494 114.205662 
L 348.62387 114.447141 
L 353.001064 114.685368 
L 357.343866 114.920419 
L 361.653111 115.152372 
L 365.929512 115.381295 
L 370.173616 115.607248 
L 374.385942 115.830289 
L 376.088068 115.919971 
" clip-path="url(#p84ebfee3d7)" style="fill: none; stroke: #d62728; stroke-linecap: square"/>
   </g>
   <g id="line2d_18">
    <path d="M 71.724432 44.699636 
L 71.724435 44.842826 
L 71.724439 44.879427 
L 71.724456 44.985368 
L 71.724487 45.101074 
L 71.724587 45.318691 
L 71.724767 45.563027 
L 71.725235 45.964583 
L 71.726894 46.778854 
L 71.728817 47.400616 
L 71.733701 48.499709 
L 71.746171 50.294235 
L 71.763287 51.927997 
L 71.793847 53.914297 
L 71.837564 55.827762 
L 71.90141 57.714029 
L 71.991674 59.500965 
L 72.118268 61.172124 
L 72.294381 62.715165 
L 72.53741 64.122353 
L 72.86903 65.385491 
L 73.31473 66.496379 
L 73.902522 67.449086 
L 74.660923 68.243175 
L 75.616741 68.886559 
L 76.793724 69.396764 
L 78.21356 69.799574 
L 79.900357 70.125182 
L 81.888835 70.403456 
L 84.236139 70.660597 
L 87.037588 70.918506 
L 90.452947 71.197174 
L 94.753435 71.51963 
L 100.405884 71.919561 
L 108.380094 72.463336 
L 114.672888 72.88466 
L 120.965682 73.302019 
L 127.38173 73.724359 
L 133.502271 74.124436 
L 139.35239 74.504361 
L 145.155058 74.878872 
L 150.999099 75.253705 
L 156.798413 75.623311 
L 162.463489 75.982068 
L 168.004131 76.330748 
L 173.484537 76.673503 
L 178.935092 77.01228 
L 184.329443 77.345478 
L 189.631879 77.670961 
L 194.842275 77.988823 
L 199.989753 78.300925 
L 205.09499 78.608579 
L 210.149559 78.911319 
L 215.132129 79.207928 
L 220.036906 79.498136 
L 224.880043 79.782973 
L 229.680001 80.06358 
L 234.437361 80.340033 
L 239.137117 80.611505 
L 243.769008 80.877465 
L 248.34093 81.138429 
L 252.87034 81.395447 
L 257.364827 81.648988 
L 261.814702 81.89854 
L 266.206077 82.143371 
L 270.538833 82.383529 
L 274.828182 82.619908 
L 279.088103 82.853315 
L 283.315897 83.083629 
L 287.496041 83.310037 
L 291.61957 83.532099 
L 295.696283 83.750393 
L 299.74501 83.965962 
L 303.772682 84.179198 
L 307.766261 84.389434 
L 311.708132 84.595775 
L 315.598125 84.798256 
L 319.455867 84.997941 
L 323.299654 85.1958 
L 327.125247 85.391626 
L 330.909777 85.58427 
L 334.638766 85.773031 
L 338.32523 85.958612 
L 341.997144 86.14245 
L 345.666083 86.325135 
L 349.312187 86.505684 
L 352.905673 86.682646 
L 356.442989 86.855889 
L 359.954192 87.026924 
L 363.470844 87.197303 
L 366.9889 87.366829 
L 370.469731 87.533644 
L 373.884224 87.696386 
L 376.088068 87.800846 
" clip-path="url(#p84ebfee3d7)" style="fill: none; stroke: #9467bd; stroke-linecap: square"/>
   </g>
   <g id="patch_3">
    <path d="M 56.50625 252.256 
L 56.50625 34.816 
" style="fill: none; stroke: #000000; stroke-width: 0.8; stroke-linejoin: miter; stroke-linecap: square"/>
   </g>
   <g id="patch_4">
    <path d="M 56.50625 252.256 
L 391.30625 252.256 
" style="fill: none; stroke: #000000; stroke-width: 0.8; stroke-linejoin: miter; stroke-linecap: square"/>
   </g>
   <g id="legend_1">
    <g id="line2d_19">
     <path d="M 287.376563 15.298437 
L 297.376563 15.298437 
L 307.376563 15.298437 
" style="fill: none; stroke: #1f77b4; stroke-linecap: square"/>
    </g>
    <g id="text_16">
     <!-- H20/CH4: 3.0 -->
     <g transform="translate(315.376563 18.798437) scale(0.1 -0.1)">
      <use xlink:href="#DejaVuSans-48"/>
      <use xlink:href="#DejaVuSans-32" x="75.195312"/>
      <use xlink:href="#DejaVuSans-30" x="138.818359"/>
      <use xlink:href="#DejaVuSans-2f" x="202.441406"/>
      <use xlink:href="#DejaVuSans-43" x="236.132812"/>
      <use xlink:href="#DejaVuSans-48" x="305.957031"/>
      <use xlink:href="#DejaVuSans-34" x="381.152344"/>
      <use xlink:href="#DejaVuSans-3a" x="444.775391"/>
      <use xlink:href="#DejaVuSans-20" x="478.466797"/>
      <use xlink:href="#DejaVuSans-33" x="510.253906"/>
      <use xlink:href="#DejaVuSans-2e" x="573.876953"/>
      <use xlink:href="#DejaVuSans-30" x="605.664062"/>
     </g>
    </g>
    <g id="line2d_20">
     <path d="M 287.376563 29.976562 
L 297.376563 29.976562 
L 307.376563 29.976562 
" style="fill: none; stroke: #ff7f0e; stroke-linecap: square"/>
    </g>
    <g id="text_17">
     <!-- H20/CH4: 2.0 -->
     <g transform="translate(315.376563 33.476562) scale(0.1 -0.1)">
      <use xlink:href="#DejaVuSans-48"/>
      <use xlink:href="#DejaVuSans-32" x="75.195312"/>
      <use xlink:href="#DejaVuSans-30" x="138.818359"/>
      <use xlink:href="#DejaVuSans-2f" x="202.441406"/>
      <use xlink:href="#DejaVuSans-43" x="236.132812"/>
      <use xlink:href="#DejaVuSans-48" x="305.957031"/>
      <use xlink:href="#DejaVuSans-34" x="381.152344"/>
      <use xlink:href="#DejaVuSans-3a" x="444.775391"/>
      <use xlink:href="#DejaVuSans-20" x="478.466797"/>
      <use xlink:href="#DejaVuSans-32" x="510.253906"/>
      <use xlink:href="#DejaVuSans-2e" x="573.876953"/>
      <use xlink:href="#DejaVuSans-30" x="605.664062"/>
     </g>
    </g>
    <g id="line2d_21">
     <path d="M 287.376563 44.654687 
L 297.376563 44.654687 
L 307.376563 44.654687 
" style="fill: none; stroke: #2ca02c; stroke-linecap: square"/>
    </g>
    <g id="text_18">
     <!-- H20/CH4: 1.0 -->
     <g transform="translate(315.376563 48.154687) scale(0.1 -0.1)">
      <use xlink:href="#DejaVuSans-48"/>
      <use xlink:href="#DejaVuSans-32" x="75.195312"/>
      <use xlink:href="#DejaVuSans-30" x="138.818359"/>
      <use xlink:href="#DejaVuSans-2f" x="202.441406"/>
      <use xlink:href="#DejaVuSans-43" x="236.132812"/>
      <use xlink:href="#DejaVuSans-48" x="305.957031"/>
      <use xlink:href="#DejaVuSans-34" x="381.152344"/>
      <use xlink:href="#DejaVuSans-3a" x="444.775391"/>
      <use xlink:href="#DejaVuSans-20" x="478.466797"/>
      <use xlink:href="#DejaVuSans-31" x="510.253906"/>
      <use xlink:href="#DejaVuSans-2e" x="573.876953"/>
      <use xlink:href="#DejaVuSans-30" x="605.664062"/>
     </g>
    </g>
    <g id="line2d_22">
     <path d="M 287.376563 59.332812 
L 297.376563 59.332812 
L 307.376563 59.332812 
" style="fill: none; stroke: #d62728; stroke-linecap: square"/>
    </g>
    <g id="text_19">
     <!-- H20/CH4: 0.5 -->
     <g transform="translate(315.376563 62.832812) scale(0.1 -0.1)">
      <use xlink:href="#DejaVuSans-48"/>
      <use xlink:href="#DejaVuSans-32" x="75.195312"/>
      <use xlink:href="#DejaVuSans-30" x="138.818359"/>
      <use xlink:href="#DejaVuSans-2f" x="202.441406"/>
      <use xlink:href="#DejaVuSans-43" x="236.132812"/>
      <use xlink:href="#DejaVuSans-48" x="305.957031"/>
      <use xlink:href="#DejaVuSans-34" x="381.152344"/>
      <use xlink:href="#DejaVuSans-3a" x="444.775391"/>
      <use xlink:href="#DejaVuSans-20" x="478.466797"/>
      <use xlink:href="#DejaVuSans-30" x="510.253906"/>
      <use xlink:href="#DejaVuSans-2e" x="573.876953"/>
      <use xlink:href="#DejaVuSans-35" x="605.664062"/>
     </g>
    </g>
    <g id="line2d_23">
     <path d="M 287.376563 74.010937 
L 297.376563 74.010937 
L 307.376563 74.010937 
" style="fill: none; stroke: #9467bd; stroke-linecap: square"/>
    </g>
    <g id="text_20">
     <!-- H20/CH4: 0.3 -->
     <g transform="translate(315.376563 77.510937) scale(0.1 -0.1)">
      <use xlink:href="#DejaVuSans-48"/>
      <use xlink:href="#DejaVuSans-32" x="75.195312"/>
      <use xlink:href="#DejaVuSans-30" x="138.818359"/>
      <use xlink:href="#DejaVuSans-2f" x="202.441406"/>
      <use xlink:href="#DejaVuSans-43" x="236.132812"/>
      <use xlink:href="#DejaVuSans-48" x="305.957031"/>
      <use xlink:href="#DejaVuSans-34" x="381.152344"/>
      <use xlink:href="#DejaVuSans-3a" x="444.775391"/>
      <use xlink:href="#DejaVuSans-20" x="478.466797"/>
      <use xlink:href="#DejaVuSans-30" x="510.253906"/>
      <use xlink:href="#DejaVuSans-2e" x="573.876953"/>
      <use xlink:href="#DejaVuSans-33" x="605.664062"/>
     </g>
    </g>
   </g>
  </g>
 </g>
 <defs>
  <clipPath id="p84ebfee3d7">
   <rect x="56.50625" y="34.816" width="334.8" height="217.44"/>
  </clipPath>
 </defs>
</svg>
