<?xml version="1.0" encoding="utf-8" standalone="no"?>
<!DOCTYPE svg PUBLIC "-//W3C//DTD SVG 1.1//EN"
  "http://www.w3.org/Graphics/SVG/1.1/DTD/svg11.dtd">
<svg xmlns:xlink="http://www.w3.org/1999/xlink" width="411.278678pt" height="262.19625pt" viewBox="0 0 411.278678 262.19625" xmlns="http://www.w3.org/2000/svg" version="1.1">
 <metadata>
  <rdf:RDF xmlns:dc="http://purl.org/dc/elements/1.1/" xmlns:cc="http://creativecommons.org/ns#" xmlns:rdf="http://www.w3.org/1999/02/22-rdf-syntax-ns#">
   <cc:Work>
    <dc:type rdf:resource="http://purl.org/dc/dcmitype/StillImage"/>
    <dc:date>2024-04-07T21:27:50.520573</dc:date>
    <dc:format>image/svg+xml</dc:format>
    <dc:creator>
     <cc:Agent>
      <dc:title>Matplotlib v3.7.2, https://matplotlib.org/</dc:title>
     </cc:Agent>
    </dc:creator>
   </cc:Work>
  </rdf:RDF>
 </metadata>
 <defs>
  <style type="text/css">*{stroke-linejoin: round; stroke-linecap: butt}</style>
 </defs>
 <g id="figure_1">
  <g id="patch_1">
   <path d="M 0 262.19625 
L 411.278678 262.19625 
L 411.278678 0 
L 0 0 
z
" style="fill: #ffffff"/>
  </g>
  <g id="axes_1">
   <g id="patch_2">
    <path d="M 62.86875 224.64 
L 397.66875 224.64 
L 397.66875 7.2 
L 62.86875 7.2 
z
" style="fill: #ffffff"/>
   </g>
   <g id="matplotlib.axis_1">
    <g id="xtick_1">
     <g id="line2d_1">
      <defs>
       <path id="ma8a4ee3893" d="M 0 0 
L 0 3.5 
" style="stroke: #000000; stroke-width: 0.8"/>
      </defs>
      <g>
       <use xlink:href="#ma8a4ee3893" x="78.086932" y="224.64" style="stroke: #000000; stroke-width: 0.8"/>
      </g>
     </g>
     <g id="text_1">
      <!-- 0.00 -->
      <g transform="translate(66.954119 239.238437) scale(0.1 -0.1)">
       <defs>
        <path id="DejaVuSans-30" d="M 2034 4250 
Q 1547 4250 1301 3770 
Q 1056 3291 1056 2328 
Q 1056 1369 1301 889 
Q 1547 409 2034 409 
Q 2525 409 2770 889 
Q 3016 1369 3016 2328 
Q 3016 3291 2770 3770 
Q 2525 4250 2034 4250 
z
M 2034 4750 
Q 2819 4750 3233 4129 
Q 3647 3509 3647 2328 
Q 3647 1150 3233 529 
Q 2819 -91 2034 -91 
Q 1250 -91 836 529 
Q 422 1150 422 2328 
Q 422 3509 836 4129 
Q 1250 4750 2034 4750 
z
" transform="scale(0.015625)"/>
        <path id="DejaVuSans-2e" d="M 684 794 
L 1344 794 
L 1344 0 
L 684 0 
L 684 794 
z
" transform="scale(0.015625)"/>
       </defs>
       <use xlink:href="#DejaVuSans-30"/>
       <use xlink:href="#DejaVuSans-2e" x="63.623047"/>
       <use xlink:href="#DejaVuSans-30" x="95.410156"/>
       <use xlink:href="#DejaVuSans-30" x="159.033203"/>
      </g>
     </g>
    </g>
    <g id="xtick_2">
     <g id="line2d_2">
      <g>
       <use xlink:href="#ma8a4ee3893" x="130.563421" y="224.64" style="stroke: #000000; stroke-width: 0.8"/>
      </g>
     </g>
     <g id="text_2">
      <!-- 0.05 -->
      <g transform="translate(119.430608 239.238437) scale(0.1 -0.1)">
       <defs>
        <path id="DejaVuSans-35" d="M 691 4666 
L 3169 4666 
L 3169 4134 
L 1269 4134 
L 1269 2991 
Q 1406 3038 1543 3061 
Q 1681 3084 1819 3084 
Q 2600 3084 3056 2656 
Q 3513 2228 3513 1497 
Q 3513 744 3044 326 
Q 2575 -91 1722 -91 
Q 1428 -91 1123 -41 
Q 819 9 494 109 
L 494 744 
Q 775 591 1075 516 
Q 1375 441 1709 441 
Q 2250 441 2565 725 
Q 2881 1009 2881 1497 
Q 2881 1984 2565 2268 
Q 2250 2553 1709 2553 
Q 1456 2553 1204 2497 
Q 953 2441 691 2322 
L 691 4666 
z
" transform="scale(0.015625)"/>
       </defs>
       <use xlink:href="#DejaVuSans-30"/>
       <use xlink:href="#DejaVuSans-2e" x="63.623047"/>
       <use xlink:href="#DejaVuSans-30" x="95.410156"/>
       <use xlink:href="#DejaVuSans-35" x="159.033203"/>
      </g>
     </g>
    </g>
    <g id="xtick_3">
     <g id="line2d_3">
      <g>
       <use xlink:href="#ma8a4ee3893" x="183.03991" y="224.64" style="stroke: #000000; stroke-width: 0.8"/>
      </g>
     </g>
     <g id="text_3">
      <!-- 0.10 -->
      <g transform="translate(171.907097 239.238437) scale(0.1 -0.1)">
       <defs>
        <path id="DejaVuSans-31" d="M 794 531 
L 1825 531 
L 1825 4091 
L 703 3866 
L 703 4441 
L 1819 4666 
L 2450 4666 
L 2450 531 
L 3481 531 
L 3481 0 
L 794 0 
L 794 531 
z
" transform="scale(0.015625)"/>
       </defs>
       <use xlink:href="#DejaVuSans-30"/>
       <use xlink:href="#DejaVuSans-2e" x="63.623047"/>
       <use xlink:href="#DejaVuSans-31" x="95.410156"/>
       <use xlink:href="#DejaVuSans-30" x="159.033203"/>
      </g>
     </g>
    </g>
    <g id="xtick_4">
     <g id="line2d_4">
      <g>
       <use xlink:href="#ma8a4ee3893" x="235.516399" y="224.64" style="stroke: #000000; stroke-width: 0.8"/>
      </g>
     </g>
     <g id="text_4">
      <!-- 0.15 -->
      <g transform="translate(224.383586 239.238437) scale(0.1 -0.1)">
       <use xlink:href="#DejaVuSans-30"/>
       <use xlink:href="#DejaVuSans-2e" x="63.623047"/>
       <use xlink:href="#DejaVuSans-31" x="95.410156"/>
       <use xlink:href="#DejaVuSans-35" x="159.033203"/>
      </g>
     </g>
    </g>
    <g id="xtick_5">
     <g id="line2d_5">
      <g>
       <use xlink:href="#ma8a4ee3893" x="287.992888" y="224.64" style="stroke: #000000; stroke-width: 0.8"/>
      </g>
     </g>
     <g id="text_5">
      <!-- 0.20 -->
      <g transform="translate(276.860075 239.238437) scale(0.1 -0.1)">
       <defs>
        <path id="DejaVuSans-32" d="M 1228 531 
L 3431 531 
L 3431 0 
L 469 0 
L 469 531 
Q 828 903 1448 1529 
Q 2069 2156 2228 2338 
Q 2531 2678 2651 2914 
Q 2772 3150 2772 3378 
Q 2772 3750 2511 3984 
Q 2250 4219 1831 4219 
Q 1534 4219 1204 4116 
Q 875 4013 500 3803 
L 500 4441 
Q 881 4594 1212 4672 
Q 1544 4750 1819 4750 
Q 2544 4750 2975 4387 
Q 3406 4025 3406 3419 
Q 3406 3131 3298 2873 
Q 3191 2616 2906 2266 
Q 2828 2175 2409 1742 
Q 1991 1309 1228 531 
z
" transform="scale(0.015625)"/>
       </defs>
       <use xlink:href="#DejaVuSans-30"/>
       <use xlink:href="#DejaVuSans-2e" x="63.623047"/>
       <use xlink:href="#DejaVuSans-32" x="95.410156"/>
       <use xlink:href="#DejaVuSans-30" x="159.033203"/>
      </g>
     </g>
    </g>
    <g id="xtick_6">
     <g id="line2d_6">
      <g>
       <use xlink:href="#ma8a4ee3893" x="340.469377" y="224.64" style="stroke: #000000; stroke-width: 0.8"/>
      </g>
     </g>
     <g id="text_6">
      <!-- 0.25 -->
      <g transform="translate(329.336564 239.238437) scale(0.1 -0.1)">
       <use xlink:href="#DejaVuSans-30"/>
       <use xlink:href="#DejaVuSans-2e" x="63.623047"/>
       <use xlink:href="#DejaVuSans-32" x="95.410156"/>
       <use xlink:href="#DejaVuSans-35" x="159.033203"/>
      </g>
     </g>
    </g>
    <g id="xtick_7">
     <g id="line2d_7">
      <g>
       <use xlink:href="#ma8a4ee3893" x="392.945866" y="224.64" style="stroke: #000000; stroke-width: 0.8"/>
      </g>
     </g>
     <g id="text_7">
      <!-- 0.30 -->
      <g transform="translate(381.813053 239.238437) scale(0.1 -0.1)">
       <defs>
        <path id="DejaVuSans-33" d="M 2597 2516 
Q 3050 2419 3304 2112 
Q 3559 1806 3559 1356 
Q 3559 666 3084 287 
Q 2609 -91 1734 -91 
Q 1441 -91 1130 -33 
Q 819 25 488 141 
L 488 750 
Q 750 597 1062 519 
Q 1375 441 1716 441 
Q 2309 441 2620 675 
Q 2931 909 2931 1356 
Q 2931 1769 2642 2001 
Q 2353 2234 1838 2234 
L 1294 2234 
L 1294 2753 
L 1863 2753 
Q 2328 2753 2575 2939 
Q 2822 3125 2822 3475 
Q 2822 3834 2567 4026 
Q 2313 4219 1838 4219 
Q 1578 4219 1281 4162 
Q 984 4106 628 3988 
L 628 4550 
Q 988 4650 1302 4700 
Q 1616 4750 1894 4750 
Q 2613 4750 3031 4423 
Q 3450 4097 3450 3541 
Q 3450 3153 3228 2886 
Q 3006 2619 2597 2516 
z
" transform="scale(0.015625)"/>
       </defs>
       <use xlink:href="#DejaVuSans-30"/>
       <use xlink:href="#DejaVuSans-2e" x="63.623047"/>
       <use xlink:href="#DejaVuSans-33" x="95.410156"/>
       <use xlink:href="#DejaVuSans-30" x="159.033203"/>
      </g>
     </g>
    </g>
    <g id="text_8">
     <!-- z (m) -->
     <g transform="translate(217.283594 252.916562) scale(0.1 -0.1)">
      <defs>
       <path id="DejaVuSans-7a" d="M 353 3500 
L 3084 3500 
L 3084 2975 
L 922 459 
L 3084 459 
L 3084 0 
L 275 0 
L 275 525 
L 2438 3041 
L 353 3041 
L 353 3500 
z
" transform="scale(0.015625)"/>
       <path id="DejaVuSans-20" transform="scale(0.015625)"/>
       <path id="DejaVuSans-28" d="M 1984 4856 
Q 1566 4138 1362 3434 
Q 1159 2731 1159 2009 
Q 1159 1288 1364 580 
Q 1569 -128 1984 -844 
L 1484 -844 
Q 1016 -109 783 600 
Q 550 1309 550 2009 
Q 550 2706 781 3412 
Q 1013 4119 1484 4856 
L 1984 4856 
z
" transform="scale(0.015625)"/>
       <path id="DejaVuSans-6d" d="M 3328 2828 
Q 3544 3216 3844 3400 
Q 4144 3584 4550 3584 
Q 5097 3584 5394 3201 
Q 5691 2819 5691 2113 
L 5691 0 
L 5113 0 
L 5113 2094 
Q 5113 2597 4934 2840 
Q 4756 3084 4391 3084 
Q 3944 3084 3684 2787 
Q 3425 2491 3425 1978 
L 3425 0 
L 2847 0 
L 2847 2094 
Q 2847 2600 2669 2842 
Q 2491 3084 2119 3084 
Q 1678 3084 1418 2786 
Q 1159 2488 1159 1978 
L 1159 0 
L 581 0 
L 581 3500 
L 1159 3500 
L 1159 2956 
Q 1356 3278 1631 3431 
Q 1906 3584 2284 3584 
Q 2666 3584 2933 3390 
Q 3200 3197 3328 2828 
z
" transform="scale(0.015625)"/>
       <path id="DejaVuSans-29" d="M 513 4856 
L 1013 4856 
Q 1481 4119 1714 3412 
Q 1947 2706 1947 2009 
Q 1947 1309 1714 600 
Q 1481 -109 1013 -844 
L 513 -844 
Q 928 -128 1133 580 
Q 1338 1288 1338 2009 
Q 1338 2731 1133 3434 
Q 928 4138 513 4856 
z
" transform="scale(0.015625)"/>
      </defs>
      <use xlink:href="#DejaVuSans-7a"/>
      <use xlink:href="#DejaVuSans-20" x="52.490234"/>
      <use xlink:href="#DejaVuSans-28" x="84.277344"/>
      <use xlink:href="#DejaVuSans-6d" x="123.291016"/>
      <use xlink:href="#DejaVuSans-29" x="220.703125"/>
     </g>
    </g>
   </g>
   <g id="matplotlib.axis_2">
    <g id="ytick_1">
     <g id="line2d_8">
      <defs>
       <path id="mc2568dab78" d="M 0 0 
L -3.5 0 
" style="stroke: #000000; stroke-width: 0.8"/>
      </defs>
      <g>
       <use xlink:href="#mc2568dab78" x="62.86875" y="214.756364" style="stroke: #000000; stroke-width: 0.8"/>
      </g>
     </g>
     <g id="text_9">
      <!-- 0.0000 -->
      <g transform="translate(20.878125 218.555582) scale(0.1 -0.1)">
       <use xlink:href="#DejaVuSans-30"/>
       <use xlink:href="#DejaVuSans-2e" x="63.623047"/>
       <use xlink:href="#DejaVuSans-30" x="95.410156"/>
       <use xlink:href="#DejaVuSans-30" x="159.033203"/>
       <use xlink:href="#DejaVuSans-30" x="222.65625"/>
       <use xlink:href="#DejaVuSans-30" x="286.279297"/>
      </g>
     </g>
    </g>
    <g id="ytick_2">
     <g id="line2d_9">
      <g>
       <use xlink:href="#mc2568dab78" x="62.86875" y="186.836487" style="stroke: #000000; stroke-width: 0.8"/>
      </g>
     </g>
     <g id="text_10">
      <!-- 0.0005 -->
      <g transform="translate(20.878125 190.635706) scale(0.1 -0.1)">
       <use xlink:href="#DejaVuSans-30"/>
       <use xlink:href="#DejaVuSans-2e" x="63.623047"/>
       <use xlink:href="#DejaVuSans-30" x="95.410156"/>
       <use xlink:href="#DejaVuSans-30" x="159.033203"/>
       <use xlink:href="#DejaVuSans-30" x="222.65625"/>
       <use xlink:href="#DejaVuSans-35" x="286.279297"/>
      </g>
     </g>
    </g>
    <g id="ytick_3">
     <g id="line2d_10">
      <g>
       <use xlink:href="#mc2568dab78" x="62.86875" y="158.916611" style="stroke: #000000; stroke-width: 0.8"/>
      </g>
     </g>
     <g id="text_11">
      <!-- 0.0010 -->
      <g transform="translate(20.878125 162.715829) scale(0.1 -0.1)">
       <use xlink:href="#DejaVuSans-30"/>
       <use xlink:href="#DejaVuSans-2e" x="63.623047"/>
       <use xlink:href="#DejaVuSans-30" x="95.410156"/>
       <use xlink:href="#DejaVuSans-30" x="159.033203"/>
       <use xlink:href="#DejaVuSans-31" x="222.65625"/>
       <use xlink:href="#DejaVuSans-30" x="286.279297"/>
      </g>
     </g>
    </g>
    <g id="ytick_4">
     <g id="line2d_11">
      <g>
       <use xlink:href="#mc2568dab78" x="62.86875" y="130.996734" style="stroke: #000000; stroke-width: 0.8"/>
      </g>
     </g>
     <g id="text_12">
      <!-- 0.0015 -->
      <g transform="translate(20.878125 134.795953) scale(0.1 -0.1)">
       <use xlink:href="#DejaVuSans-30"/>
       <use xlink:href="#DejaVuSans-2e" x="63.623047"/>
       <use xlink:href="#DejaVuSans-30" x="95.410156"/>
       <use xlink:href="#DejaVuSans-30" x="159.033203"/>
       <use xlink:href="#DejaVuSans-31" x="222.65625"/>
       <use xlink:href="#DejaVuSans-35" x="286.279297"/>
      </g>
     </g>
    </g>
    <g id="ytick_5">
     <g id="line2d_12">
      <g>
       <use xlink:href="#mc2568dab78" x="62.86875" y="103.076858" style="stroke: #000000; stroke-width: 0.8"/>
      </g>
     </g>
     <g id="text_13">
      <!-- 0.0020 -->
      <g transform="translate(20.878125 106.876076) scale(0.1 -0.1)">
       <use xlink:href="#DejaVuSans-30"/>
       <use xlink:href="#DejaVuSans-2e" x="63.623047"/>
       <use xlink:href="#DejaVuSans-30" x="95.410156"/>
       <use xlink:href="#DejaVuSans-30" x="159.033203"/>
       <use xlink:href="#DejaVuSans-32" x="222.65625"/>
       <use xlink:href="#DejaVuSans-30" x="286.279297"/>
      </g>
     </g>
    </g>
    <g id="ytick_6">
     <g id="line2d_13">
      <g>
       <use xlink:href="#mc2568dab78" x="62.86875" y="75.156981" style="stroke: #000000; stroke-width: 0.8"/>
      </g>
     </g>
     <g id="text_14">
      <!-- 0.0025 -->
      <g transform="translate(20.878125 78.9562) scale(0.1 -0.1)">
       <use xlink:href="#DejaVuSans-30"/>
       <use xlink:href="#DejaVuSans-2e" x="63.623047"/>
       <use xlink:href="#DejaVuSans-30" x="95.410156"/>
       <use xlink:href="#DejaVuSans-30" x="159.033203"/>
       <use xlink:href="#DejaVuSans-32" x="222.65625"/>
       <use xlink:href="#DejaVuSans-35" x="286.279297"/>
      </g>
     </g>
    </g>
    <g id="ytick_7">
     <g id="line2d_14">
      <g>
       <use xlink:href="#mc2568dab78" x="62.86875" y="47.237105" style="stroke: #000000; stroke-width: 0.8"/>
      </g>
     </g>
     <g id="text_15">
      <!-- 0.0030 -->
      <g transform="translate(20.878125 51.036323) scale(0.1 -0.1)">
       <use xlink:href="#DejaVuSans-30"/>
       <use xlink:href="#DejaVuSans-2e" x="63.623047"/>
       <use xlink:href="#DejaVuSans-30" x="95.410156"/>
       <use xlink:href="#DejaVuSans-30" x="159.033203"/>
       <use xlink:href="#DejaVuSans-33" x="222.65625"/>
       <use xlink:href="#DejaVuSans-30" x="286.279297"/>
      </g>
     </g>
    </g>
    <g id="ytick_8">
     <g id="line2d_15">
      <g>
       <use xlink:href="#mc2568dab78" x="62.86875" y="19.317228" style="stroke: #000000; stroke-width: 0.8"/>
      </g>
     </g>
     <g id="text_16">
      <!-- 0.0035 -->
      <g transform="translate(20.878125 23.116447) scale(0.1 -0.1)">
       <use xlink:href="#DejaVuSans-30"/>
       <use xlink:href="#DejaVuSans-2e" x="63.623047"/>
       <use xlink:href="#DejaVuSans-30" x="95.410156"/>
       <use xlink:href="#DejaVuSans-30" x="159.033203"/>
       <use xlink:href="#DejaVuSans-33" x="222.65625"/>
       <use xlink:href="#DejaVuSans-35" x="286.279297"/>
      </g>
     </g>
    </g>
    <g id="text_17">
     <!-- Concentrations: CO2 (mol/L) -->
     <g transform="translate(14.798438 187.0575) rotate(-90) scale(0.1 -0.1)">
      <defs>
       <path id="DejaVuSans-43" d="M 4122 4306 
L 4122 3641 
Q 3803 3938 3442 4084 
Q 3081 4231 2675 4231 
Q 1875 4231 1450 3742 
Q 1025 3253 1025 2328 
Q 1025 1406 1450 917 
Q 1875 428 2675 428 
Q 3081 428 3442 575 
Q 3803 722 4122 1019 
L 4122 359 
Q 3791 134 3420 21 
Q 3050 -91 2638 -91 
Q 1578 -91 968 557 
Q 359 1206 359 2328 
Q 359 3453 968 4101 
Q 1578 4750 2638 4750 
Q 3056 4750 3426 4639 
Q 3797 4528 4122 4306 
z
" transform="scale(0.015625)"/>
       <path id="DejaVuSans-6f" d="M 1959 3097 
Q 1497 3097 1228 2736 
Q 959 2375 959 1747 
Q 959 1119 1226 758 
Q 1494 397 1959 397 
Q 2419 397 2687 759 
Q 2956 1122 2956 1747 
Q 2956 2369 2687 2733 
Q 2419 3097 1959 3097 
z
M 1959 3584 
Q 2709 3584 3137 3096 
Q 3566 2609 3566 1747 
Q 3566 888 3137 398 
Q 2709 -91 1959 -91 
Q 1206 -91 779 398 
Q 353 888 353 1747 
Q 353 2609 779 3096 
Q 1206 3584 1959 3584 
z
" transform="scale(0.015625)"/>
       <path id="DejaVuSans-6e" d="M 3513 2113 
L 3513 0 
L 2938 0 
L 2938 2094 
Q 2938 2591 2744 2837 
Q 2550 3084 2163 3084 
Q 1697 3084 1428 2787 
Q 1159 2491 1159 1978 
L 1159 0 
L 581 0 
L 581 3500 
L 1159 3500 
L 1159 2956 
Q 1366 3272 1645 3428 
Q 1925 3584 2291 3584 
Q 2894 3584 3203 3211 
Q 3513 2838 3513 2113 
z
" transform="scale(0.015625)"/>
       <path id="DejaVuSans-63" d="M 3122 3366 
L 3122 2828 
Q 2878 2963 2633 3030 
Q 2388 3097 2138 3097 
Q 1578 3097 1268 2742 
Q 959 2388 959 1747 
Q 959 1106 1268 751 
Q 1578 397 2138 397 
Q 2388 397 2633 464 
Q 2878 531 3122 666 
L 3122 134 
Q 2881 22 2623 -34 
Q 2366 -91 2075 -91 
Q 1284 -91 818 406 
Q 353 903 353 1747 
Q 353 2603 823 3093 
Q 1294 3584 2113 3584 
Q 2378 3584 2631 3529 
Q 2884 3475 3122 3366 
z
" transform="scale(0.015625)"/>
       <path id="DejaVuSans-65" d="M 3597 1894 
L 3597 1613 
L 953 1613 
Q 991 1019 1311 708 
Q 1631 397 2203 397 
Q 2534 397 2845 478 
Q 3156 559 3463 722 
L 3463 178 
Q 3153 47 2828 -22 
Q 2503 -91 2169 -91 
Q 1331 -91 842 396 
Q 353 884 353 1716 
Q 353 2575 817 3079 
Q 1281 3584 2069 3584 
Q 2775 3584 3186 3129 
Q 3597 2675 3597 1894 
z
M 3022 2063 
Q 3016 2534 2758 2815 
Q 2500 3097 2075 3097 
Q 1594 3097 1305 2825 
Q 1016 2553 972 2059 
L 3022 2063 
z
" transform="scale(0.015625)"/>
       <path id="DejaVuSans-74" d="M 1172 4494 
L 1172 3500 
L 2356 3500 
L 2356 3053 
L 1172 3053 
L 1172 1153 
Q 1172 725 1289 603 
Q 1406 481 1766 481 
L 2356 481 
L 2356 0 
L 1766 0 
Q 1100 0 847 248 
Q 594 497 594 1153 
L 594 3053 
L 172 3053 
L 172 3500 
L 594 3500 
L 594 4494 
L 1172 4494 
z
" transform="scale(0.015625)"/>
       <path id="DejaVuSans-72" d="M 2631 2963 
Q 2534 3019 2420 3045 
Q 2306 3072 2169 3072 
Q 1681 3072 1420 2755 
Q 1159 2438 1159 1844 
L 1159 0 
L 581 0 
L 581 3500 
L 1159 3500 
L 1159 2956 
Q 1341 3275 1631 3429 
Q 1922 3584 2338 3584 
Q 2397 3584 2469 3576 
Q 2541 3569 2628 3553 
L 2631 2963 
z
" transform="scale(0.015625)"/>
       <path id="DejaVuSans-61" d="M 2194 1759 
Q 1497 1759 1228 1600 
Q 959 1441 959 1056 
Q 959 750 1161 570 
Q 1363 391 1709 391 
Q 2188 391 2477 730 
Q 2766 1069 2766 1631 
L 2766 1759 
L 2194 1759 
z
M 3341 1997 
L 3341 0 
L 2766 0 
L 2766 531 
Q 2569 213 2275 61 
Q 1981 -91 1556 -91 
Q 1019 -91 701 211 
Q 384 513 384 1019 
Q 384 1609 779 1909 
Q 1175 2209 1959 2209 
L 2766 2209 
L 2766 2266 
Q 2766 2663 2505 2880 
Q 2244 3097 1772 3097 
Q 1472 3097 1187 3025 
Q 903 2953 641 2809 
L 641 3341 
Q 956 3463 1253 3523 
Q 1550 3584 1831 3584 
Q 2591 3584 2966 3190 
Q 3341 2797 3341 1997 
z
" transform="scale(0.015625)"/>
       <path id="DejaVuSans-69" d="M 603 3500 
L 1178 3500 
L 1178 0 
L 603 0 
L 603 3500 
z
M 603 4863 
L 1178 4863 
L 1178 4134 
L 603 4134 
L 603 4863 
z
" transform="scale(0.015625)"/>
       <path id="DejaVuSans-73" d="M 2834 3397 
L 2834 2853 
Q 2591 2978 2328 3040 
Q 2066 3103 1784 3103 
Q 1356 3103 1142 2972 
Q 928 2841 928 2578 
Q 928 2378 1081 2264 
Q 1234 2150 1697 2047 
L 1894 2003 
Q 2506 1872 2764 1633 
Q 3022 1394 3022 966 
Q 3022 478 2636 193 
Q 2250 -91 1575 -91 
Q 1294 -91 989 -36 
Q 684 19 347 128 
L 347 722 
Q 666 556 975 473 
Q 1284 391 1588 391 
Q 1994 391 2212 530 
Q 2431 669 2431 922 
Q 2431 1156 2273 1281 
Q 2116 1406 1581 1522 
L 1381 1569 
Q 847 1681 609 1914 
Q 372 2147 372 2553 
Q 372 3047 722 3315 
Q 1072 3584 1716 3584 
Q 2034 3584 2315 3537 
Q 2597 3491 2834 3397 
z
" transform="scale(0.015625)"/>
       <path id="DejaVuSans-3a" d="M 750 794 
L 1409 794 
L 1409 0 
L 750 0 
L 750 794 
z
M 750 3309 
L 1409 3309 
L 1409 2516 
L 750 2516 
L 750 3309 
z
" transform="scale(0.015625)"/>
       <path id="DejaVuSans-4f" d="M 2522 4238 
Q 1834 4238 1429 3725 
Q 1025 3213 1025 2328 
Q 1025 1447 1429 934 
Q 1834 422 2522 422 
Q 3209 422 3611 934 
Q 4013 1447 4013 2328 
Q 4013 3213 3611 3725 
Q 3209 4238 2522 4238 
z
M 2522 4750 
Q 3503 4750 4090 4092 
Q 4678 3434 4678 2328 
Q 4678 1225 4090 567 
Q 3503 -91 2522 -91 
Q 1538 -91 948 565 
Q 359 1222 359 2328 
Q 359 3434 948 4092 
Q 1538 4750 2522 4750 
z
" transform="scale(0.015625)"/>
       <path id="DejaVuSans-6c" d="M 603 4863 
L 1178 4863 
L 1178 0 
L 603 0 
L 603 4863 
z
" transform="scale(0.015625)"/>
       <path id="DejaVuSans-2f" d="M 1625 4666 
L 2156 4666 
L 531 -594 
L 0 -594 
L 1625 4666 
z
" transform="scale(0.015625)"/>
       <path id="DejaVuSans-4c" d="M 628 4666 
L 1259 4666 
L 1259 531 
L 3531 531 
L 3531 0 
L 628 0 
L 628 4666 
z
" transform="scale(0.015625)"/>
      </defs>
      <use xlink:href="#DejaVuSans-43"/>
      <use xlink:href="#DejaVuSans-6f" x="69.824219"/>
      <use xlink:href="#DejaVuSans-6e" x="131.005859"/>
      <use xlink:href="#DejaVuSans-63" x="194.384766"/>
      <use xlink:href="#DejaVuSans-65" x="249.365234"/>
      <use xlink:href="#DejaVuSans-6e" x="310.888672"/>
      <use xlink:href="#DejaVuSans-74" x="374.267578"/>
      <use xlink:href="#DejaVuSans-72" x="413.476562"/>
      <use xlink:href="#DejaVuSans-61" x="454.589844"/>
      <use xlink:href="#DejaVuSans-74" x="515.869141"/>
      <use xlink:href="#DejaVuSans-69" x="555.078125"/>
      <use xlink:href="#DejaVuSans-6f" x="582.861328"/>
      <use xlink:href="#DejaVuSans-6e" x="644.042969"/>
      <use xlink:href="#DejaVuSans-73" x="707.421875"/>
      <use xlink:href="#DejaVuSans-3a" x="759.521484"/>
      <use xlink:href="#DejaVuSans-20" x="793.212891"/>
      <use xlink:href="#DejaVuSans-43" x="825"/>
      <use xlink:href="#DejaVuSans-4f" x="894.824219"/>
      <use xlink:href="#DejaVuSans-32" x="973.535156"/>
      <use xlink:href="#DejaVuSans-20" x="1037.158203"/>
      <use xlink:href="#DejaVuSans-28" x="1068.945312"/>
      <use xlink:href="#DejaVuSans-6d" x="1107.958984"/>
      <use xlink:href="#DejaVuSans-6f" x="1205.371094"/>
      <use xlink:href="#DejaVuSans-6c" x="1266.552734"/>
      <use xlink:href="#DejaVuSans-2f" x="1294.335938"/>
      <use xlink:href="#DejaVuSans-4c" x="1328.027344"/>
      <use xlink:href="#DejaVuSans-29" x="1383.740234"/>
     </g>
    </g>
   </g>
   <g id="line2d_16">
    <path d="M 78.086932 214.756364 
L 78.086943 213.583985 
L 78.086954 213.29489 
L 78.087007 212.455351 
L 78.087099 211.592684 
L 78.087415 209.93314 
L 78.087925 208.335714 
L 78.089375 205.621148 
L 78.092472 202.235815 
L 78.104371 195.566167 
L 78.116069 191.625801 
L 78.148919 184.613764 
L 78.262027 172.45007 
L 78.364725 166.074726 
L 78.642451 155.557367 
L 78.993374 147.446178 
L 79.540876 138.817184 
L 80.288821 129.953767 
L 81.287852 120.041458 
L 82.566675 108.768778 
L 84.151131 96.303917 
L 86.06598 83.290161 
L 88.350395 70.544286 
L 91.078297 58.782339 
L 94.399012 48.461315 
L 98.674661 39.689201 
L 104.431241 32.737362 
L 110.187821 28.802215 
L 117.346333 25.97352 
L 126.473342 23.879723 
L 137.609971 22.262098 
L 148.746599 21.070698 
L 158.794221 20.190164 
L 168.659277 19.457605 
L 178.792803 18.822177 
L 189.033773 18.290274 
L 199.306358 17.861249 
L 209.638483 17.529644 
L 220.053424 17.291433 
L 230.552691 17.143707 
L 241.135518 17.083636 
L 251.805941 17.108407 
L 262.569675 17.215359 
L 273.431677 17.401981 
L 284.396452 17.665884 
L 295.468912 18.004803 
L 306.654557 18.416604 
L 317.959266 18.89929 
L 329.389164 19.450982 
L 340.9507 20.069928 
L 352.650782 20.7545 
L 364.496853 21.503198 
L 376.496893 22.314653 
L 382.450568 22.735109 
" clip-path="url(#p971c5831fb)" style="fill: none; stroke: #1f77b4; stroke-linecap: square"/>
   </g>
   <g id="line2d_17">
    <path d="M 78.086932 214.756364 
L 78.08694 213.585708 
L 78.086948 213.296829 
L 78.086988 212.460734 
L 78.087057 211.598929 
L 78.087292 209.952051 
L 78.087675 208.352542 
L 78.088753 205.663866 
L 78.091131 202.226628 
L 78.100319 195.505963 
L 78.109189 191.625727 
L 78.134025 184.746671 
L 78.206834 174.136158 
L 78.288526 167.28652 
L 78.478745 157.723005 
L 78.728921 150.093929 
L 79.109177 142.336772 
L 79.630742 134.532708 
L 80.330229 126.00683 
L 81.236488 116.367805 
L 82.379047 105.535868 
L 83.786523 93.816859 
L 85.491031 81.780628 
L 87.535538 70.085833 
L 89.988067 59.318005 
L 92.972342 49.87881 
L 96.75598 41.92295 
L 102.294985 35.144913 
L 108.433177 31.168632 
L 115.264547 28.762172 
L 124.607713 26.905975 
L 133.682737 25.729055 
L 142.757762 24.815187 
L 151.811103 24.052118 
L 160.633381 23.414278 
L 169.408681 22.869666 
L 178.208247 22.406512 
L 187.01357 22.021388 
L 195.81338 21.710776 
L 204.610898 21.470798 
L 213.409198 21.297877 
L 222.208169 21.188706 
L 231.007087 21.14011 
L 239.805725 21.149026 
L 248.60397 21.212513 
L 257.401473 21.327747 
L 266.197685 21.492007 
L 274.99197 21.702677 
L 283.783633 21.957235 
L 292.571892 22.253255 
L 301.355874 22.588396 
L 310.134631 22.960407 
L 318.907154 23.367113 
L 327.672388 23.806424 
L 336.429235 24.276326 
L 345.176564 24.774878 
L 353.913227 25.300214 
L 362.638065 25.850542 
L 371.349923 26.424137 
L 380.047658 27.019348 
L 382.450568 27.187276 
" clip-path="url(#p971c5831fb)" style="fill: none; stroke: #ff7f0e; stroke-linecap: square"/>
   </g>
   <g id="line2d_18">
    <path d="M 78.086932 214.756364 
L 78.086937 213.588754 
L 78.086943 213.30065 
L 78.086969 212.472825 
L 78.087015 211.614151 
L 78.087169 209.999105 
L 78.087426 208.400214 
L 78.088134 205.780711 
L 78.08983 202.225064 
L 78.093872 197.481641 
L 78.103018 191.53087 
L 78.124671 183.951736 
L 78.159655 177.0828 
L 78.23343 168.951774 
L 78.334598 162.499296 
L 78.491838 156.271513 
L 78.712451 150.511696 
L 79.017443 144.757285 
L 79.428039 138.628457 
L 79.970379 131.783563 
L 80.673501 124.036179 
L 81.56835 115.394061 
L 82.686454 106.059984 
L 84.059748 96.393436 
L 85.722878 86.843093 
L 87.719931 77.861789 
L 90.1183 69.826026 
L 93.036064 62.984016 
L 96.708512 57.438004 
L 101.756407 53.122608 
L 108.937767 50.242616 
L 116.119126 48.969419 
L 125.292102 48.192709 
L 132.60165 47.83891 
L 139.911197 47.600354 
L 147.525034 47.4332 
L 155.031487 47.333615 
L 162.407662 47.292044 
L 169.735258 47.302181 
L 177.033114 47.360373 
L 184.285971 47.463305 
L 191.487196 47.607757 
L 198.639983 47.790849 
L 205.747093 48.009934 
L 212.808287 48.262463 
L 219.822707 48.546007 
L 226.790289 48.858298 
L 233.711383 49.197221 
L 240.586149 49.560781 
L 247.414523 49.947092 
L 254.196451 50.354375 
L 260.931997 50.780964 
L 267.62128 51.225295 
L 274.26441 51.685899 
L 280.861492 52.161393 
L 287.412667 52.650482 
L 293.91813 53.151949 
L 300.378112 53.66466 
L 306.792868 54.187549 
L 313.162681 54.71962 
L 319.487863 55.259941 
L 325.768763 55.807643 
L 332.005763 56.361914 
L 338.199267 56.921996 
L 344.3497 57.487184 
L 350.457511 58.056819 
L 356.52317 58.63029 
L 362.547169 59.207026 
L 368.530012 59.786498 
L 374.472217 60.368213 
L 380.374313 60.951714 
L 382.450568 61.158133 
" clip-path="url(#p971c5831fb)" style="fill: none; stroke: #2ca02c; stroke-linecap: square"/>
   </g>
   <g id="line2d_19">
    <path d="M 78.086932 214.756364 
L 78.086936 213.590345 
L 78.08694 213.303763 
L 78.086959 212.487942 
L 78.086994 211.633994 
L 78.087107 210.07008 
L 78.087304 208.472262 
L 78.08783 205.965228 
L 78.089402 201.994827 
L 78.091711 198.628812 
L 78.096993 194.017281 
L 78.108847 188.264866 
L 78.133011 182.029283 
L 78.169283 176.85673 
L 78.226962 172.082107 
L 78.310194 167.932062 
L 78.428605 164.145069 
L 78.593343 160.497957 
L 78.819788 156.735303 
L 79.127596 152.629997 
L 79.54083 148.008668 
L 80.08717 142.776064 
L 80.796421 136.931497 
L 81.698545 130.57585 
L 82.821958 123.905393 
L 84.193352 117.188597 
L 85.840552 110.725566 
L 87.799536 104.79904 
L 90.126333 99.633827 
L 92.915921 95.377413 
L 96.335321 92.103153 
L 100.698881 89.825125 
L 106.683264 88.523676 
L 114.839869 88.19294 
L 121.635737 88.389349 
L 128.431605 88.750476 
L 135.2388 89.192771 
L 141.825224 89.66847 
L 148.263377 90.16839 
L 154.658801 90.694635 
L 161.017246 91.244544 
L 167.303407 91.812539 
L 173.506139 92.395214 
L 179.637719 92.991578 
L 185.708354 93.600767 
L 191.716985 94.220998 
L 197.659177 94.850239 
L 203.534728 95.486994 
L 209.347022 96.130275 
L 215.098743 96.779142 
L 220.790216 97.432494 
L 226.421039 98.08923 
L 231.991924 98.748455 
L 237.504644 99.409477 
L 242.960823 100.071661 
L 248.361278 100.734343 
L 253.706481 101.396873 
L 258.997283 102.058702 
L 264.235027 102.719395 
L 269.421067 103.378565 
L 274.556379 104.035824 
L 279.641681 104.690786 
L 284.677814 105.343122 
L 289.665911 105.992571 
L 294.607179 106.638917 
L 299.502619 107.281943 
L 304.353003 107.921431 
L 309.159108 108.557187 
L 313.921896 109.189064 
L 318.642441 109.816952 
L 323.321709 110.440745 
L 327.960465 111.060329 
L 332.559399 111.675595 
L 337.119311 112.286467 
L 341.641137 112.892898 
L 346.125785 113.494853 
L 350.573994 114.092284 
L 354.98637 114.685138 
L 359.363564 115.273379 
L 363.706366 115.856997 
L 368.015611 116.435998 
L 372.292012 117.010381 
L 376.536116 117.580128 
L 380.748442 118.145226 
L 382.450568 118.373421 
" clip-path="url(#p971c5831fb)" style="fill: none; stroke: #d62728; stroke-linecap: square"/>
   </g>
   <g id="line2d_20">
    <path d="M 78.086932 214.756364 
L 78.086935 213.589728 
L 78.086939 213.304609 
L 78.086956 212.498416 
L 78.086987 211.648029 
L 78.087087 210.127273 
L 78.087267 208.527921 
L 78.087735 206.113041 
L 78.089394 201.867009 
L 78.091317 199.067863 
L 78.096201 194.818354 
L 78.108671 189.236303 
L 78.125787 185.147236 
L 78.156347 181.03226 
L 78.200064 177.668086 
L 78.26391 174.701305 
L 78.354174 172.016572 
L 78.480768 169.423466 
L 78.656881 166.75042 
L 78.89991 163.84589 
L 79.23153 160.592877 
L 79.67723 156.920553 
L 80.265022 152.815297 
L 81.023423 148.327867 
L 81.979241 143.573871 
L 83.156224 138.724144 
L 84.57606 133.982822 
L 86.262857 129.556288 
L 88.251335 125.623078 
L 90.598639 122.315493 
L 93.400088 119.717602 
L 96.815447 117.872205 
L 101.115935 116.792609 
L 106.768384 116.474192 
L 114.742594 116.919731 
L 121.035388 117.545366 
L 127.328182 118.263733 
L 133.74423 119.042733 
L 139.864771 119.812554 
L 145.71489 120.566597 
L 151.517558 121.329416 
L 157.361599 122.111029 
L 163.160913 122.898698 
L 168.825989 123.678725 
L 174.366631 124.450905 
L 179.847037 125.22297 
L 185.297592 125.998304 
L 190.691943 126.772337 
L 195.994379 127.539082 
L 201.204775 128.297682 
L 206.352253 129.051659 
L 211.45749 129.803451 
L 216.512059 130.551287 
L 221.494629 131.291495 
L 226.399406 132.022723 
L 231.242543 132.746943 
L 236.042501 133.466542 
L 240.799861 134.181272 
L 245.499617 134.88857 
L 250.131508 135.5866 
L 254.70343 136.276287 
L 259.23284 136.960034 
L 263.727327 137.638778 
L 268.177202 138.310866 
L 272.568577 138.974028 
L 276.901333 139.628092 
L 281.190682 140.275218 
L 285.450603 140.917384 
L 289.678397 141.554067 
L 293.858541 142.182824 
L 297.98207 142.802225 
L 302.058783 143.413665 
L 306.10751 144.019896 
L 310.135182 144.621881 
L 314.128761 145.217604 
L 318.070632 145.804394 
L 321.960625 146.382196 
L 325.818367 146.953894 
L 329.662154 147.522154 
L 333.487747 148.086301 
L 337.272277 148.642935 
L 341.001266 149.189926 
L 344.68773 149.729187 
L 348.359644 150.264793 
L 352.028583 150.798394 
L 355.674687 151.327072 
L 359.268173 151.846518 
L 362.805489 152.35625 
L 366.316692 152.860615 
L 369.833344 153.364123 
L 373.3514 153.866155 
L 376.832231 154.361193 
L 380.246724 154.845143 
L 382.450568 155.156648 
" clip-path="url(#p971c5831fb)" style="fill: none; stroke: #9467bd; stroke-linecap: square"/>
   </g>
   <g id="patch_3">
    <path d="M 62.86875 224.64 
L 62.86875 7.2 
" style="fill: none; stroke: #000000; stroke-width: 0.8; stroke-linejoin: miter; stroke-linecap: square"/>
   </g>
   <g id="patch_4">
    <path d="M 62.86875 224.64 
L 397.66875 224.64 
" style="fill: none; stroke: #000000; stroke-width: 0.8; stroke-linejoin: miter; stroke-linecap: square"/>
   </g>
   <g id="legend_1">
    <g id="line2d_21">
     <path d="M 293.739063 160.045412 
L 303.739063 160.045412 
L 313.739063 160.045412 
" style="fill: none; stroke: #1f77b4; stroke-linecap: square"/>
    </g>
    <g id="text_18">
     <!-- H20/CH4: 3.0 -->
     <g transform="translate(321.739063 163.545412) scale(0.1 -0.1)">
      <defs>
       <path id="DejaVuSans-48" d="M 628 4666 
L 1259 4666 
L 1259 2753 
L 3553 2753 
L 3553 4666 
L 4184 4666 
L 4184 0 
L 3553 0 
L 3553 2222 
L 1259 2222 
L 1259 0 
L 628 0 
L 628 4666 
z
" transform="scale(0.015625)"/>
       <path id="DejaVuSans-34" d="M 2419 4116 
L 825 1625 
L 2419 1625 
L 2419 4116 
z
M 2253 4666 
L 3047 4666 
L 3047 1625 
L 3713 1625 
L 3713 1100 
L 3047 1100 
L 3047 0 
L 2419 0 
L 2419 1100 
L 313 1100 
L 313 1709 
L 2253 4666 
z
" transform="scale(0.015625)"/>
      </defs>
      <use xlink:href="#DejaVuSans-48"/>
      <use xlink:href="#DejaVuSans-32" x="75.195312"/>
      <use xlink:href="#DejaVuSans-30" x="138.818359"/>
      <use xlink:href="#DejaVuSans-2f" x="202.441406"/>
      <use xlink:href="#DejaVuSans-43" x="236.132812"/>
      <use xlink:href="#DejaVuSans-48" x="305.957031"/>
      <use xlink:href="#DejaVuSans-34" x="381.152344"/>
      <use xlink:href="#DejaVuSans-3a" x="444.775391"/>
      <use xlink:href="#DejaVuSans-20" x="478.466797"/>
      <use xlink:href="#DejaVuSans-33" x="510.253906"/>
      <use xlink:href="#DejaVuSans-2e" x="573.876953"/>
      <use xlink:href="#DejaVuSans-30" x="605.664062"/>
     </g>
    </g>
    <g id="line2d_22">
     <path d="M 293.739063 174.723537 
L 303.739063 174.723537 
L 313.739063 174.723537 
" style="fill: none; stroke: #ff7f0e; stroke-linecap: square"/>
    </g>
    <g id="text_19">
     <!-- H20/CH4: 2.0 -->
     <g transform="translate(321.739063 178.223537) scale(0.1 -0.1)">
      <use xlink:href="#DejaVuSans-48"/>
      <use xlink:href="#DejaVuSans-32" x="75.195312"/>
      <use xlink:href="#DejaVuSans-30" x="138.818359"/>
      <use xlink:href="#DejaVuSans-2f" x="202.441406"/>
      <use xlink:href="#DejaVuSans-43" x="236.132812"/>
      <use xlink:href="#DejaVuSans-48" x="305.957031"/>
      <use xlink:href="#DejaVuSans-34" x="381.152344"/>
      <use xlink:href="#DejaVuSans-3a" x="444.775391"/>
      <use xlink:href="#DejaVuSans-20" x="478.466797"/>
      <use xlink:href="#DejaVuSans-32" x="510.253906"/>
      <use xlink:href="#DejaVuSans-2e" x="573.876953"/>
      <use xlink:href="#DejaVuSans-30" x="605.664062"/>
     </g>
    </g>
    <g id="line2d_23">
     <path d="M 293.739063 189.401662 
L 303.739063 189.401662 
L 313.739063 189.401662 
" style="fill: none; stroke: #2ca02c; stroke-linecap: square"/>
    </g>
    <g id="text_20">
     <!-- H20/CH4: 1.0 -->
     <g transform="translate(321.739063 192.901662) scale(0.1 -0.1)">
      <use xlink:href="#DejaVuSans-48"/>
      <use xlink:href="#DejaVuSans-32" x="75.195312"/>
      <use xlink:href="#DejaVuSans-30" x="138.818359"/>
      <use xlink:href="#DejaVuSans-2f" x="202.441406"/>
      <use xlink:href="#DejaVuSans-43" x="236.132812"/>
      <use xlink:href="#DejaVuSans-48" x="305.957031"/>
      <use xlink:href="#DejaVuSans-34" x="381.152344"/>
      <use xlink:href="#DejaVuSans-3a" x="444.775391"/>
      <use xlink:href="#DejaVuSans-20" x="478.466797"/>
      <use xlink:href="#DejaVuSans-31" x="510.253906"/>
      <use xlink:href="#DejaVuSans-2e" x="573.876953"/>
      <use xlink:href="#DejaVuSans-30" x="605.664062"/>
     </g>
    </g>
    <g id="line2d_24">
     <path d="M 293.739063 204.079787 
L 303.739063 204.079787 
L 313.739063 204.079787 
" style="fill: none; stroke: #d62728; stroke-linecap: square"/>
    </g>
    <g id="text_21">
     <!-- H20/CH4: 0.5 -->
     <g transform="translate(321.739063 207.579787) scale(0.1 -0.1)">
      <use xlink:href="#DejaVuSans-48"/>
      <use xlink:href="#DejaVuSans-32" x="75.195312"/>
      <use xlink:href="#DejaVuSans-30" x="138.818359"/>
      <use xlink:href="#DejaVuSans-2f" x="202.441406"/>
      <use xlink:href="#DejaVuSans-43" x="236.132812"/>
      <use xlink:href="#DejaVuSans-48" x="305.957031"/>
      <use xlink:href="#DejaVuSans-34" x="381.152344"/>
      <use xlink:href="#DejaVuSans-3a" x="444.775391"/>
      <use xlink:href="#DejaVuSans-20" x="478.466797"/>
      <use xlink:href="#DejaVuSans-30" x="510.253906"/>
      <use xlink:href="#DejaVuSans-2e" x="573.876953"/>
      <use xlink:href="#DejaVuSans-35" x="605.664062"/>
     </g>
    </g>
    <g id="line2d_25">
     <path d="M 293.739063 218.757912 
L 303.739063 218.757912 
L 313.739063 218.757912 
" style="fill: none; stroke: #9467bd; stroke-linecap: square"/>
    </g>
    <g id="text_22">
     <!-- H20/CH4: 0.3 -->
     <g transform="translate(321.739063 222.257912) scale(0.1 -0.1)">
      <use xlink:href="#DejaVuSans-48"/>
      <use xlink:href="#DejaVuSans-32" x="75.195312"/>
      <use xlink:href="#DejaVuSans-30" x="138.818359"/>
      <use xlink:href="#DejaVuSans-2f" x="202.441406"/>
      <use xlink:href="#DejaVuSans-43" x="236.132812"/>
      <use xlink:href="#DejaVuSans-48" x="305.957031"/>
      <use xlink:href="#DejaVuSans-34" x="381.152344"/>
      <use xlink:href="#DejaVuSans-3a" x="444.775391"/>
      <use xlink:href="#DejaVuSans-20" x="478.466797"/>
      <use xlink:href="#DejaVuSans-30" x="510.253906"/>
      <use xlink:href="#DejaVuSans-2e" x="573.876953"/>
      <use xlink:href="#DejaVuSans-33" x="605.664062"/>
     </g>
    </g>
   </g>
  </g>
 </g>
 <defs>
  <clipPath id="p971c5831fb">
   <rect x="62.86875" y="7.2" width="334.8" height="217.44"/>
  </clipPath>
 </defs>
</svg>
