<?xml version="1.0" encoding="utf-8" standalone="no"?>
<!DOCTYPE svg PUBLIC "-//W3C//DTD SVG 1.1//EN"
  "http://www.w3.org/Graphics/SVG/1.1/DTD/svg11.dtd">
<svg xmlns:xlink="http://www.w3.org/1999/xlink" width="404.916178pt" height="262.19625pt" viewBox="0 0 404.916178 262.19625" xmlns="http://www.w3.org/2000/svg" version="1.1">
 <metadata>
  <rdf:RDF xmlns:dc="http://purl.org/dc/elements/1.1/" xmlns:cc="http://creativecommons.org/ns#" xmlns:rdf="http://www.w3.org/1999/02/22-rdf-syntax-ns#">
   <cc:Work>
    <dc:type rdf:resource="http://purl.org/dc/dcmitype/StillImage"/>
    <dc:date>2024-04-07T21:27:50.472011</dc:date>
    <dc:format>image/svg+xml</dc:format>
    <dc:creator>
     <cc:Agent>
      <dc:title>Matplotlib v3.7.2, https://matplotlib.org/</dc:title>
     </cc:Agent>
    </dc:creator>
   </cc:Work>
  </rdf:RDF>
 </metadata>
 <defs>
  <style type="text/css">*{stroke-linejoin: round; stroke-linecap: butt}</style>
 </defs>
 <g id="figure_1">
  <g id="patch_1">
   <path d="M 0 262.19625 
L 404.916178 262.19625 
L 404.916178 0 
L 0 0 
z
" style="fill: #ffffff"/>
  </g>
  <g id="axes_1">
   <g id="patch_2">
    <path d="M 56.50625 224.64 
L 391.30625 224.64 
L 391.30625 7.2 
L 56.50625 7.2 
z
" style="fill: #ffffff"/>
   </g>
   <g id="matplotlib.axis_1">
    <g id="xtick_1">
     <g id="line2d_1">
      <defs>
       <path id="m42824ddbc5" d="M 0 0 
L 0 3.5 
" style="stroke: #000000; stroke-width: 0.8"/>
      </defs>
      <g>
       <use xlink:href="#m42824ddbc5" x="71.724432" y="224.64" style="stroke: #000000; stroke-width: 0.8"/>
      </g>
     </g>
     <g id="text_1">
      <!-- 0.00 -->
      <g transform="translate(60.591619 239.238437) scale(0.1 -0.1)">
       <defs>
        <path id="DejaVuSans-30" d="M 2034 4250 
Q 1547 4250 1301 3770 
Q 1056 3291 1056 2328 
Q 1056 1369 1301 889 
Q 1547 409 2034 409 
Q 2525 409 2770 889 
Q 3016 1369 3016 2328 
Q 3016 3291 2770 3770 
Q 2525 4250 2034 4250 
z
M 2034 4750 
Q 2819 4750 3233 4129 
Q 3647 3509 3647 2328 
Q 3647 1150 3233 529 
Q 2819 -91 2034 -91 
Q 1250 -91 836 529 
Q 422 1150 422 2328 
Q 422 3509 836 4129 
Q 1250 4750 2034 4750 
z
" transform="scale(0.015625)"/>
        <path id="DejaVuSans-2e" d="M 684 794 
L 1344 794 
L 1344 0 
L 684 0 
L 684 794 
z
" transform="scale(0.015625)"/>
       </defs>
       <use xlink:href="#DejaVuSans-30"/>
       <use xlink:href="#DejaVuSans-2e" x="63.623047"/>
       <use xlink:href="#DejaVuSans-30" x="95.410156"/>
       <use xlink:href="#DejaVuSans-30" x="159.033203"/>
      </g>
     </g>
    </g>
    <g id="xtick_2">
     <g id="line2d_2">
      <g>
       <use xlink:href="#m42824ddbc5" x="124.200921" y="224.64" style="stroke: #000000; stroke-width: 0.8"/>
      </g>
     </g>
     <g id="text_2">
      <!-- 0.05 -->
      <g transform="translate(113.068108 239.238437) scale(0.1 -0.1)">
       <defs>
        <path id="DejaVuSans-35" d="M 691 4666 
L 3169 4666 
L 3169 4134 
L 1269 4134 
L 1269 2991 
Q 1406 3038 1543 3061 
Q 1681 3084 1819 3084 
Q 2600 3084 3056 2656 
Q 3513 2228 3513 1497 
Q 3513 744 3044 326 
Q 2575 -91 1722 -91 
Q 1428 -91 1123 -41 
Q 819 9 494 109 
L 494 744 
Q 775 591 1075 516 
Q 1375 441 1709 441 
Q 2250 441 2565 725 
Q 2881 1009 2881 1497 
Q 2881 1984 2565 2268 
Q 2250 2553 1709 2553 
Q 1456 2553 1204 2497 
Q 953 2441 691 2322 
L 691 4666 
z
" transform="scale(0.015625)"/>
       </defs>
       <use xlink:href="#DejaVuSans-30"/>
       <use xlink:href="#DejaVuSans-2e" x="63.623047"/>
       <use xlink:href="#DejaVuSans-30" x="95.410156"/>
       <use xlink:href="#DejaVuSans-35" x="159.033203"/>
      </g>
     </g>
    </g>
    <g id="xtick_3">
     <g id="line2d_3">
      <g>
       <use xlink:href="#m42824ddbc5" x="176.67741" y="224.64" style="stroke: #000000; stroke-width: 0.8"/>
      </g>
     </g>
     <g id="text_3">
      <!-- 0.10 -->
      <g transform="translate(165.544597 239.238437) scale(0.1 -0.1)">
       <defs>
        <path id="DejaVuSans-31" d="M 794 531 
L 1825 531 
L 1825 4091 
L 703 3866 
L 703 4441 
L 1819 4666 
L 2450 4666 
L 2450 531 
L 3481 531 
L 3481 0 
L 794 0 
L 794 531 
z
" transform="scale(0.015625)"/>
       </defs>
       <use xlink:href="#DejaVuSans-30"/>
       <use xlink:href="#DejaVuSans-2e" x="63.623047"/>
       <use xlink:href="#DejaVuSans-31" x="95.410156"/>
       <use xlink:href="#DejaVuSans-30" x="159.033203"/>
      </g>
     </g>
    </g>
    <g id="xtick_4">
     <g id="line2d_4">
      <g>
       <use xlink:href="#m42824ddbc5" x="229.153899" y="224.64" style="stroke: #000000; stroke-width: 0.8"/>
      </g>
     </g>
     <g id="text_4">
      <!-- 0.15 -->
      <g transform="translate(218.021086 239.238437) scale(0.1 -0.1)">
       <use xlink:href="#DejaVuSans-30"/>
       <use xlink:href="#DejaVuSans-2e" x="63.623047"/>
       <use xlink:href="#DejaVuSans-31" x="95.410156"/>
       <use xlink:href="#DejaVuSans-35" x="159.033203"/>
      </g>
     </g>
    </g>
    <g id="xtick_5">
     <g id="line2d_5">
      <g>
       <use xlink:href="#m42824ddbc5" x="281.630388" y="224.64" style="stroke: #000000; stroke-width: 0.8"/>
      </g>
     </g>
     <g id="text_5">
      <!-- 0.20 -->
      <g transform="translate(270.497575 239.238437) scale(0.1 -0.1)">
       <defs>
        <path id="DejaVuSans-32" d="M 1228 531 
L 3431 531 
L 3431 0 
L 469 0 
L 469 531 
Q 828 903 1448 1529 
Q 2069 2156 2228 2338 
Q 2531 2678 2651 2914 
Q 2772 3150 2772 3378 
Q 2772 3750 2511 3984 
Q 2250 4219 1831 4219 
Q 1534 4219 1204 4116 
Q 875 4013 500 3803 
L 500 4441 
Q 881 4594 1212 4672 
Q 1544 4750 1819 4750 
Q 2544 4750 2975 4387 
Q 3406 4025 3406 3419 
Q 3406 3131 3298 2873 
Q 3191 2616 2906 2266 
Q 2828 2175 2409 1742 
Q 1991 1309 1228 531 
z
" transform="scale(0.015625)"/>
       </defs>
       <use xlink:href="#DejaVuSans-30"/>
       <use xlink:href="#DejaVuSans-2e" x="63.623047"/>
       <use xlink:href="#DejaVuSans-32" x="95.410156"/>
       <use xlink:href="#DejaVuSans-30" x="159.033203"/>
      </g>
     </g>
    </g>
    <g id="xtick_6">
     <g id="line2d_6">
      <g>
       <use xlink:href="#m42824ddbc5" x="334.106877" y="224.64" style="stroke: #000000; stroke-width: 0.8"/>
      </g>
     </g>
     <g id="text_6">
      <!-- 0.25 -->
      <g transform="translate(322.974064 239.238437) scale(0.1 -0.1)">
       <use xlink:href="#DejaVuSans-30"/>
       <use xlink:href="#DejaVuSans-2e" x="63.623047"/>
       <use xlink:href="#DejaVuSans-32" x="95.410156"/>
       <use xlink:href="#DejaVuSans-35" x="159.033203"/>
      </g>
     </g>
    </g>
    <g id="xtick_7">
     <g id="line2d_7">
      <g>
       <use xlink:href="#m42824ddbc5" x="386.583366" y="224.64" style="stroke: #000000; stroke-width: 0.8"/>
      </g>
     </g>
     <g id="text_7">
      <!-- 0.30 -->
      <g transform="translate(375.450553 239.238437) scale(0.1 -0.1)">
       <defs>
        <path id="DejaVuSans-33" d="M 2597 2516 
Q 3050 2419 3304 2112 
Q 3559 1806 3559 1356 
Q 3559 666 3084 287 
Q 2609 -91 1734 -91 
Q 1441 -91 1130 -33 
Q 819 25 488 141 
L 488 750 
Q 750 597 1062 519 
Q 1375 441 1716 441 
Q 2309 441 2620 675 
Q 2931 909 2931 1356 
Q 2931 1769 2642 2001 
Q 2353 2234 1838 2234 
L 1294 2234 
L 1294 2753 
L 1863 2753 
Q 2328 2753 2575 2939 
Q 2822 3125 2822 3475 
Q 2822 3834 2567 4026 
Q 2313 4219 1838 4219 
Q 1578 4219 1281 4162 
Q 984 4106 628 3988 
L 628 4550 
Q 988 4650 1302 4700 
Q 1616 4750 1894 4750 
Q 2613 4750 3031 4423 
Q 3450 4097 3450 3541 
Q 3450 3153 3228 2886 
Q 3006 2619 2597 2516 
z
" transform="scale(0.015625)"/>
       </defs>
       <use xlink:href="#DejaVuSans-30"/>
       <use xlink:href="#DejaVuSans-2e" x="63.623047"/>
       <use xlink:href="#DejaVuSans-33" x="95.410156"/>
       <use xlink:href="#DejaVuSans-30" x="159.033203"/>
      </g>
     </g>
    </g>
    <g id="text_8">
     <!-- z (m) -->
     <g transform="translate(210.921094 252.916562) scale(0.1 -0.1)">
      <defs>
       <path id="DejaVuSans-7a" d="M 353 3500 
L 3084 3500 
L 3084 2975 
L 922 459 
L 3084 459 
L 3084 0 
L 275 0 
L 275 525 
L 2438 3041 
L 353 3041 
L 353 3500 
z
" transform="scale(0.015625)"/>
       <path id="DejaVuSans-20" transform="scale(0.015625)"/>
       <path id="DejaVuSans-28" d="M 1984 4856 
Q 1566 4138 1362 3434 
Q 1159 2731 1159 2009 
Q 1159 1288 1364 580 
Q 1569 -128 1984 -844 
L 1484 -844 
Q 1016 -109 783 600 
Q 550 1309 550 2009 
Q 550 2706 781 3412 
Q 1013 4119 1484 4856 
L 1984 4856 
z
" transform="scale(0.015625)"/>
       <path id="DejaVuSans-6d" d="M 3328 2828 
Q 3544 3216 3844 3400 
Q 4144 3584 4550 3584 
Q 5097 3584 5394 3201 
Q 5691 2819 5691 2113 
L 5691 0 
L 5113 0 
L 5113 2094 
Q 5113 2597 4934 2840 
Q 4756 3084 4391 3084 
Q 3944 3084 3684 2787 
Q 3425 2491 3425 1978 
L 3425 0 
L 2847 0 
L 2847 2094 
Q 2847 2600 2669 2842 
Q 2491 3084 2119 3084 
Q 1678 3084 1418 2786 
Q 1159 2488 1159 1978 
L 1159 0 
L 581 0 
L 581 3500 
L 1159 3500 
L 1159 2956 
Q 1356 3278 1631 3431 
Q 1906 3584 2284 3584 
Q 2666 3584 2933 3390 
Q 3200 3197 3328 2828 
z
" transform="scale(0.015625)"/>
       <path id="DejaVuSans-29" d="M 513 4856 
L 1013 4856 
Q 1481 4119 1714 3412 
Q 1947 2706 1947 2009 
Q 1947 1309 1714 600 
Q 1481 -109 1013 -844 
L 513 -844 
Q 928 -128 1133 580 
Q 1338 1288 1338 2009 
Q 1338 2731 1133 3434 
Q 928 4138 513 4856 
z
" transform="scale(0.015625)"/>
      </defs>
      <use xlink:href="#DejaVuSans-7a"/>
      <use xlink:href="#DejaVuSans-20" x="52.490234"/>
      <use xlink:href="#DejaVuSans-28" x="84.277344"/>
      <use xlink:href="#DejaVuSans-6d" x="123.291016"/>
      <use xlink:href="#DejaVuSans-29" x="220.703125"/>
     </g>
    </g>
   </g>
   <g id="matplotlib.axis_2">
    <g id="ytick_1">
     <g id="line2d_8">
      <defs>
       <path id="m42e8203b8c" d="M 0 0 
L -3.5 0 
" style="stroke: #000000; stroke-width: 0.8"/>
      </defs>
      <g>
       <use xlink:href="#m42e8203b8c" x="56.50625" y="214.756364" style="stroke: #000000; stroke-width: 0.8"/>
      </g>
     </g>
     <g id="text_9">
      <!-- 0.000 -->
      <g transform="translate(20.878125 218.555582) scale(0.1 -0.1)">
       <use xlink:href="#DejaVuSans-30"/>
       <use xlink:href="#DejaVuSans-2e" x="63.623047"/>
       <use xlink:href="#DejaVuSans-30" x="95.410156"/>
       <use xlink:href="#DejaVuSans-30" x="159.033203"/>
       <use xlink:href="#DejaVuSans-30" x="222.65625"/>
      </g>
     </g>
    </g>
    <g id="ytick_2">
     <g id="line2d_9">
      <g>
       <use xlink:href="#m42e8203b8c" x="56.50625" y="166.700525" style="stroke: #000000; stroke-width: 0.8"/>
      </g>
     </g>
     <g id="text_10">
      <!-- 0.001 -->
      <g transform="translate(20.878125 170.499744) scale(0.1 -0.1)">
       <use xlink:href="#DejaVuSans-30"/>
       <use xlink:href="#DejaVuSans-2e" x="63.623047"/>
       <use xlink:href="#DejaVuSans-30" x="95.410156"/>
       <use xlink:href="#DejaVuSans-30" x="159.033203"/>
       <use xlink:href="#DejaVuSans-31" x="222.65625"/>
      </g>
     </g>
    </g>
    <g id="ytick_3">
     <g id="line2d_10">
      <g>
       <use xlink:href="#m42e8203b8c" x="56.50625" y="118.644687" style="stroke: #000000; stroke-width: 0.8"/>
      </g>
     </g>
     <g id="text_11">
      <!-- 0.002 -->
      <g transform="translate(20.878125 122.443905) scale(0.1 -0.1)">
       <use xlink:href="#DejaVuSans-30"/>
       <use xlink:href="#DejaVuSans-2e" x="63.623047"/>
       <use xlink:href="#DejaVuSans-30" x="95.410156"/>
       <use xlink:href="#DejaVuSans-30" x="159.033203"/>
       <use xlink:href="#DejaVuSans-32" x="222.65625"/>
      </g>
     </g>
    </g>
    <g id="ytick_4">
     <g id="line2d_11">
      <g>
       <use xlink:href="#m42e8203b8c" x="56.50625" y="70.588848" style="stroke: #000000; stroke-width: 0.8"/>
      </g>
     </g>
     <g id="text_12">
      <!-- 0.003 -->
      <g transform="translate(20.878125 74.388067) scale(0.1 -0.1)">
       <use xlink:href="#DejaVuSans-30"/>
       <use xlink:href="#DejaVuSans-2e" x="63.623047"/>
       <use xlink:href="#DejaVuSans-30" x="95.410156"/>
       <use xlink:href="#DejaVuSans-30" x="159.033203"/>
       <use xlink:href="#DejaVuSans-33" x="222.65625"/>
      </g>
     </g>
    </g>
    <g id="ytick_5">
     <g id="line2d_12">
      <g>
       <use xlink:href="#m42e8203b8c" x="56.50625" y="22.53301" style="stroke: #000000; stroke-width: 0.8"/>
      </g>
     </g>
     <g id="text_13">
      <!-- 0.004 -->
      <g transform="translate(20.878125 26.332228) scale(0.1 -0.1)">
       <defs>
        <path id="DejaVuSans-34" d="M 2419 4116 
L 825 1625 
L 2419 1625 
L 2419 4116 
z
M 2253 4666 
L 3047 4666 
L 3047 1625 
L 3713 1625 
L 3713 1100 
L 3047 1100 
L 3047 0 
L 2419 0 
L 2419 1100 
L 313 1100 
L 313 1709 
L 2253 4666 
z
" transform="scale(0.015625)"/>
       </defs>
       <use xlink:href="#DejaVuSans-30"/>
       <use xlink:href="#DejaVuSans-2e" x="63.623047"/>
       <use xlink:href="#DejaVuSans-30" x="95.410156"/>
       <use xlink:href="#DejaVuSans-30" x="159.033203"/>
       <use xlink:href="#DejaVuSans-34" x="222.65625"/>
      </g>
     </g>
    </g>
    <g id="text_14">
     <!-- Concentrations: CO (mol/L) -->
     <g transform="translate(14.798438 183.87625) rotate(-90) scale(0.1 -0.1)">
      <defs>
       <path id="DejaVuSans-43" d="M 4122 4306 
L 4122 3641 
Q 3803 3938 3442 4084 
Q 3081 4231 2675 4231 
Q 1875 4231 1450 3742 
Q 1025 3253 1025 2328 
Q 1025 1406 1450 917 
Q 1875 428 2675 428 
Q 3081 428 3442 575 
Q 3803 722 4122 1019 
L 4122 359 
Q 3791 134 3420 21 
Q 3050 -91 2638 -91 
Q 1578 -91 968 557 
Q 359 1206 359 2328 
Q 359 3453 968 4101 
Q 1578 4750 2638 4750 
Q 3056 4750 3426 4639 
Q 3797 4528 4122 4306 
z
" transform="scale(0.015625)"/>
       <path id="DejaVuSans-6f" d="M 1959 3097 
Q 1497 3097 1228 2736 
Q 959 2375 959 1747 
Q 959 1119 1226 758 
Q 1494 397 1959 397 
Q 2419 397 2687 759 
Q 2956 1122 2956 1747 
Q 2956 2369 2687 2733 
Q 2419 3097 1959 3097 
z
M 1959 3584 
Q 2709 3584 3137 3096 
Q 3566 2609 3566 1747 
Q 3566 888 3137 398 
Q 2709 -91 1959 -91 
Q 1206 -91 779 398 
Q 353 888 353 1747 
Q 353 2609 779 3096 
Q 1206 3584 1959 3584 
z
" transform="scale(0.015625)"/>
       <path id="DejaVuSans-6e" d="M 3513 2113 
L 3513 0 
L 2938 0 
L 2938 2094 
Q 2938 2591 2744 2837 
Q 2550 3084 2163 3084 
Q 1697 3084 1428 2787 
Q 1159 2491 1159 1978 
L 1159 0 
L 581 0 
L 581 3500 
L 1159 3500 
L 1159 2956 
Q 1366 3272 1645 3428 
Q 1925 3584 2291 3584 
Q 2894 3584 3203 3211 
Q 3513 2838 3513 2113 
z
" transform="scale(0.015625)"/>
       <path id="DejaVuSans-63" d="M 3122 3366 
L 3122 2828 
Q 2878 2963 2633 3030 
Q 2388 3097 2138 3097 
Q 1578 3097 1268 2742 
Q 959 2388 959 1747 
Q 959 1106 1268 751 
Q 1578 397 2138 397 
Q 2388 397 2633 464 
Q 2878 531 3122 666 
L 3122 134 
Q 2881 22 2623 -34 
Q 2366 -91 2075 -91 
Q 1284 -91 818 406 
Q 353 903 353 1747 
Q 353 2603 823 3093 
Q 1294 3584 2113 3584 
Q 2378 3584 2631 3529 
Q 2884 3475 3122 3366 
z
" transform="scale(0.015625)"/>
       <path id="DejaVuSans-65" d="M 3597 1894 
L 3597 1613 
L 953 1613 
Q 991 1019 1311 708 
Q 1631 397 2203 397 
Q 2534 397 2845 478 
Q 3156 559 3463 722 
L 3463 178 
Q 3153 47 2828 -22 
Q 2503 -91 2169 -91 
Q 1331 -91 842 396 
Q 353 884 353 1716 
Q 353 2575 817 3079 
Q 1281 3584 2069 3584 
Q 2775 3584 3186 3129 
Q 3597 2675 3597 1894 
z
M 3022 2063 
Q 3016 2534 2758 2815 
Q 2500 3097 2075 3097 
Q 1594 3097 1305 2825 
Q 1016 2553 972 2059 
L 3022 2063 
z
" transform="scale(0.015625)"/>
       <path id="DejaVuSans-74" d="M 1172 4494 
L 1172 3500 
L 2356 3500 
L 2356 3053 
L 1172 3053 
L 1172 1153 
Q 1172 725 1289 603 
Q 1406 481 1766 481 
L 2356 481 
L 2356 0 
L 1766 0 
Q 1100 0 847 248 
Q 594 497 594 1153 
L 594 3053 
L 172 3053 
L 172 3500 
L 594 3500 
L 594 4494 
L 1172 4494 
z
" transform="scale(0.015625)"/>
       <path id="DejaVuSans-72" d="M 2631 2963 
Q 2534 3019 2420 3045 
Q 2306 3072 2169 3072 
Q 1681 3072 1420 2755 
Q 1159 2438 1159 1844 
L 1159 0 
L 581 0 
L 581 3500 
L 1159 3500 
L 1159 2956 
Q 1341 3275 1631 3429 
Q 1922 3584 2338 3584 
Q 2397 3584 2469 3576 
Q 2541 3569 2628 3553 
L 2631 2963 
z
" transform="scale(0.015625)"/>
       <path id="DejaVuSans-61" d="M 2194 1759 
Q 1497 1759 1228 1600 
Q 959 1441 959 1056 
Q 959 750 1161 570 
Q 1363 391 1709 391 
Q 2188 391 2477 730 
Q 2766 1069 2766 1631 
L 2766 1759 
L 2194 1759 
z
M 3341 1997 
L 3341 0 
L 2766 0 
L 2766 531 
Q 2569 213 2275 61 
Q 1981 -91 1556 -91 
Q 1019 -91 701 211 
Q 384 513 384 1019 
Q 384 1609 779 1909 
Q 1175 2209 1959 2209 
L 2766 2209 
L 2766 2266 
Q 2766 2663 2505 2880 
Q 2244 3097 1772 3097 
Q 1472 3097 1187 3025 
Q 903 2953 641 2809 
L 641 3341 
Q 956 3463 1253 3523 
Q 1550 3584 1831 3584 
Q 2591 3584 2966 3190 
Q 3341 2797 3341 1997 
z
" transform="scale(0.015625)"/>
       <path id="DejaVuSans-69" d="M 603 3500 
L 1178 3500 
L 1178 0 
L 603 0 
L 603 3500 
z
M 603 4863 
L 1178 4863 
L 1178 4134 
L 603 4134 
L 603 4863 
z
" transform="scale(0.015625)"/>
       <path id="DejaVuSans-73" d="M 2834 3397 
L 2834 2853 
Q 2591 2978 2328 3040 
Q 2066 3103 1784 3103 
Q 1356 3103 1142 2972 
Q 928 2841 928 2578 
Q 928 2378 1081 2264 
Q 1234 2150 1697 2047 
L 1894 2003 
Q 2506 1872 2764 1633 
Q 3022 1394 3022 966 
Q 3022 478 2636 193 
Q 2250 -91 1575 -91 
Q 1294 -91 989 -36 
Q 684 19 347 128 
L 347 722 
Q 666 556 975 473 
Q 1284 391 1588 391 
Q 1994 391 2212 530 
Q 2431 669 2431 922 
Q 2431 1156 2273 1281 
Q 2116 1406 1581 1522 
L 1381 1569 
Q 847 1681 609 1914 
Q 372 2147 372 2553 
Q 372 3047 722 3315 
Q 1072 3584 1716 3584 
Q 2034 3584 2315 3537 
Q 2597 3491 2834 3397 
z
" transform="scale(0.015625)"/>
       <path id="DejaVuSans-3a" d="M 750 794 
L 1409 794 
L 1409 0 
L 750 0 
L 750 794 
z
M 750 3309 
L 1409 3309 
L 1409 2516 
L 750 2516 
L 750 3309 
z
" transform="scale(0.015625)"/>
       <path id="DejaVuSans-4f" d="M 2522 4238 
Q 1834 4238 1429 3725 
Q 1025 3213 1025 2328 
Q 1025 1447 1429 934 
Q 1834 422 2522 422 
Q 3209 422 3611 934 
Q 4013 1447 4013 2328 
Q 4013 3213 3611 3725 
Q 3209 4238 2522 4238 
z
M 2522 4750 
Q 3503 4750 4090 4092 
Q 4678 3434 4678 2328 
Q 4678 1225 4090 567 
Q 3503 -91 2522 -91 
Q 1538 -91 948 565 
Q 359 1222 359 2328 
Q 359 3434 948 4092 
Q 1538 4750 2522 4750 
z
" transform="scale(0.015625)"/>
       <path id="DejaVuSans-6c" d="M 603 4863 
L 1178 4863 
L 1178 0 
L 603 0 
L 603 4863 
z
" transform="scale(0.015625)"/>
       <path id="DejaVuSans-2f" d="M 1625 4666 
L 2156 4666 
L 531 -594 
L 0 -594 
L 1625 4666 
z
" transform="scale(0.015625)"/>
       <path id="DejaVuSans-4c" d="M 628 4666 
L 1259 4666 
L 1259 531 
L 3531 531 
L 3531 0 
L 628 0 
L 628 4666 
z
" transform="scale(0.015625)"/>
      </defs>
      <use xlink:href="#DejaVuSans-43"/>
      <use xlink:href="#DejaVuSans-6f" x="69.824219"/>
      <use xlink:href="#DejaVuSans-6e" x="131.005859"/>
      <use xlink:href="#DejaVuSans-63" x="194.384766"/>
      <use xlink:href="#DejaVuSans-65" x="249.365234"/>
      <use xlink:href="#DejaVuSans-6e" x="310.888672"/>
      <use xlink:href="#DejaVuSans-74" x="374.267578"/>
      <use xlink:href="#DejaVuSans-72" x="413.476562"/>
      <use xlink:href="#DejaVuSans-61" x="454.589844"/>
      <use xlink:href="#DejaVuSans-74" x="515.869141"/>
      <use xlink:href="#DejaVuSans-69" x="555.078125"/>
      <use xlink:href="#DejaVuSans-6f" x="582.861328"/>
      <use xlink:href="#DejaVuSans-6e" x="644.042969"/>
      <use xlink:href="#DejaVuSans-73" x="707.421875"/>
      <use xlink:href="#DejaVuSans-3a" x="759.521484"/>
      <use xlink:href="#DejaVuSans-20" x="793.212891"/>
      <use xlink:href="#DejaVuSans-43" x="825"/>
      <use xlink:href="#DejaVuSans-4f" x="894.824219"/>
      <use xlink:href="#DejaVuSans-20" x="973.535156"/>
      <use xlink:href="#DejaVuSans-28" x="1005.322266"/>
      <use xlink:href="#DejaVuSans-6d" x="1044.335938"/>
      <use xlink:href="#DejaVuSans-6f" x="1141.748047"/>
      <use xlink:href="#DejaVuSans-6c" x="1202.929688"/>
      <use xlink:href="#DejaVuSans-2f" x="1230.712891"/>
      <use xlink:href="#DejaVuSans-4c" x="1264.404297"/>
      <use xlink:href="#DejaVuSans-29" x="1320.117188"/>
     </g>
    </g>
   </g>
   <g id="line2d_13">
    <path d="M 71.724432 214.756364 
L 71.724443 214.750901 
L 71.724454 214.745726 
L 71.724507 214.724701 
L 71.724599 214.693907 
L 71.724915 214.607651 
L 71.725425 214.490938 
L 71.726875 214.213996 
L 71.729972 213.725523 
L 71.741871 212.261099 
L 71.753569 211.072178 
L 71.786419 208.298666 
L 71.899527 201.234767 
L 72.002225 196.29055 
L 72.279951 186.160929 
L 72.630874 176.989028 
L 73.178376 167.054855 
L 73.926321 158.458847 
L 74.925352 152.116143 
L 76.204175 148.735269 
L 77.788631 148.263424 
L 79.70348 150.012214 
L 81.987895 152.990495 
L 84.715797 156.247518 
L 88.036512 159.065485 
L 92.312161 160.992504 
L 98.068741 161.654449 
L 103.825321 161.186353 
L 110.983833 159.919724 
L 120.110842 157.871642 
L 131.247471 155.149835 
L 142.384099 152.360224 
L 152.431721 149.835571 
L 162.296777 147.362847 
L 172.430303 144.836905 
L 182.671273 142.304239 
L 192.943858 139.787983 
L 203.275983 137.284983 
L 213.690924 134.79335 
L 224.190191 132.316493 
L 234.773018 129.858262 
L 245.443441 127.421302 
L 256.207175 125.007852 
L 267.069177 122.62032 
L 278.033952 120.261207 
L 289.106412 117.932925 
L 300.292057 115.63777 
L 311.596766 113.377986 
L 323.026664 111.155807 
L 334.5882 108.973451 
L 346.288282 106.833111 
L 358.134353 104.736958 
L 370.134393 102.68716 
L 376.088068 101.699126 
" clip-path="url(#pdccb53017e)" style="fill: none; stroke: #1f77b4; stroke-linecap: square"/>
   </g>
   <g id="line2d_14">
    <path d="M 71.724432 214.756364 
L 71.72444 214.750223 
L 71.724448 214.744407 
L 71.724488 214.720858 
L 71.724557 214.686238 
L 71.724792 214.589909 
L 71.725175 214.458201 
L 71.726253 214.148709 
L 71.728631 213.586171 
L 71.737819 211.896858 
L 71.746689 210.551368 
L 71.771525 207.421232 
L 71.844334 200.485938 
L 71.926026 194.490711 
L 72.116245 183.96244 
L 72.366421 173.99052 
L 72.746677 163.382823 
L 73.268242 153.905003 
L 73.967729 146.403446 
L 74.873988 141.579733 
L 76.016547 139.593207 
L 77.424023 140.095227 
L 79.128531 142.379093 
L 81.173038 145.598971 
L 83.625567 148.963582 
L 86.609842 151.858311 
L 90.39348 153.873876 
L 95.932485 154.685615 
L 102.070677 154.080106 
L 108.902047 152.61493 
L 118.245213 150.101333 
L 127.320237 147.468208 
L 136.395262 144.774724 
L 145.448603 142.07031 
L 154.270881 139.433501 
L 163.046181 136.815529 
L 171.845747 134.199033 
L 180.65107 131.592596 
L 189.45088 129.002119 
L 198.248398 126.428946 
L 207.046698 123.874323 
L 215.845669 121.340294 
L 224.644587 118.82894 
L 233.443225 116.342059 
L 242.24147 113.881291 
L 251.038973 111.448217 
L 259.835185 109.044354 
L 268.62947 106.671123 
L 277.421133 104.329846 
L 286.209392 102.021756 
L 294.993374 99.748001 
L 303.772131 97.509645 
L 312.544654 95.307661 
L 321.309888 93.142936 
L 330.066735 91.016272 
L 338.814064 88.928385 
L 347.550727 86.879906 
L 356.275565 84.871383 
L 364.987423 82.903281 
L 373.685158 80.975983 
L 376.088068 80.450934 
" clip-path="url(#pdccb53017e)" style="fill: none; stroke: #ff7f0e; stroke-linecap: square"/>
   </g>
   <g id="line2d_15">
    <path d="M 71.724432 214.756364 
L 71.724437 214.748193 
L 71.724443 214.740458 
L 71.724469 214.709365 
L 71.724515 214.663291 
L 71.724669 214.537083 
L 71.724926 214.360551 
L 71.725634 213.954984 
L 71.72733 213.161009 
L 71.731372 211.630443 
L 71.740518 208.866147 
L 71.762171 203.785723 
L 71.797155 197.426295 
L 71.87093 187.368552 
L 71.972098 177.259462 
L 72.129338 165.94012 
L 72.349951 154.97818 
L 72.654943 144.988174 
L 73.065539 136.669312 
L 73.607879 130.466978 
L 74.311001 126.594662 
L 75.20585 125.012421 
L 76.323954 125.440501 
L 77.697248 127.402217 
L 79.360378 130.299508 
L 81.357431 133.511921 
L 83.7558 136.492415 
L 86.673564 138.825158 
L 90.346012 140.220763 
L 95.393907 140.40716 
L 102.575267 138.98667 
L 109.756626 136.773459 
L 118.929602 133.557667 
L 126.23915 130.898286 
L 133.548697 128.210684 
L 141.162534 125.403482 
L 148.668987 122.637714 
L 156.045162 119.925745 
L 163.372758 117.239724 
L 170.670614 114.574585 
L 177.923471 111.937467 
L 185.124696 109.332069 
L 192.277483 106.758341 
L 199.384593 104.216278 
L 206.445787 101.706844 
L 213.460207 99.2311 
L 220.427789 96.789713 
L 227.348883 94.383106 
L 234.223649 92.011679 
L 241.052023 89.675827 
L 247.833951 87.37586 
L 254.569497 85.111976 
L 261.25878 82.88429 
L 267.90191 80.692858 
L 274.498992 78.537685 
L 281.050167 76.418713 
L 287.55563 74.335821 
L 294.015612 72.288836 
L 300.430368 70.277542 
L 306.800181 68.30168 
L 313.125363 66.360956 
L 319.406263 64.455036 
L 325.643263 62.583557 
L 331.836767 60.746128 
L 337.9872 58.942336 
L 344.095011 57.171748 
L 350.16067 55.433912 
L 356.184669 53.72836 
L 362.167512 52.054614 
L 368.109717 50.412185 
L 374.011813 48.800577 
L 376.088068 48.239059 
" clip-path="url(#pdccb53017e)" style="fill: none; stroke: #2ca02c; stroke-linecap: square"/>
   </g>
   <g id="line2d_16">
    <path d="M 71.724432 214.756364 
L 71.724436 214.744126 
L 71.72444 214.732549 
L 71.724459 214.686429 
L 71.724494 214.617248 
L 71.724607 214.432537 
L 71.724804 214.164028 
L 71.72533 213.569289 
L 71.726902 212.154092 
L 71.729211 210.454143 
L 71.734493 207.269551 
L 71.746347 201.669688 
L 71.770511 193.108972 
L 71.806783 183.609671 
L 71.864462 172.627204 
L 71.947694 161.44364 
L 72.066105 150.515642 
L 72.230843 140.394409 
L 72.457288 131.449038 
L 72.765096 123.962596 
L 73.17833 118.138385 
L 73.72467 114.093292 
L 74.433921 111.833635 
L 75.336045 111.232187 
L 76.459458 112.020356 
L 77.830852 113.808066 
L 79.478052 116.135947 
L 81.437036 118.547204 
L 83.763833 120.651174 
L 86.553421 122.153321 
L 89.972821 122.84348 
L 94.336381 122.544868 
L 100.320764 120.997276 
L 108.477369 118.010078 
L 115.273237 115.259435 
L 122.069105 112.438448 
L 128.8763 109.596865 
L 135.462724 106.851571 
L 141.900877 104.178879 
L 148.296301 101.537577 
L 154.654746 98.926956 
L 160.940907 96.362527 
L 167.143639 93.849337 
L 173.275219 91.382714 
L 179.345854 88.958834 
L 185.354485 86.578356 
L 191.296677 84.243154 
L 197.172228 81.953312 
L 202.984522 79.707454 
L 208.736243 77.504448 
L 214.427716 75.344036 
L 220.058539 73.22618 
L 225.629424 71.150377 
L 231.142144 69.115695 
L 236.598323 67.121246 
L 241.998778 65.16642 
L 247.343981 63.250714 
L 252.634783 61.373465 
L 257.872527 59.533829 
L 263.058567 57.730954 
L 268.193879 55.964118 
L 273.279181 54.232683 
L 278.315314 52.535964 
L 283.303411 50.873181 
L 288.244679 49.243528 
L 293.140119 47.646278 
L 297.990503 46.08078 
L 302.796608 44.546384 
L 307.559396 43.042387 
L 312.279941 41.568059 
L 316.959209 40.12271 
L 321.597965 38.705722 
L 326.196899 37.316508 
L 330.756811 35.954451 
L 335.278637 34.618904 
L 339.763285 33.309238 
L 344.211494 32.024883 
L 348.62387 30.765316 
L 353.001064 29.530007 
L 357.343866 28.318397 
L 361.653111 27.129921 
L 365.929512 25.964061 
L 370.173616 24.820352 
L 374.385942 23.698341 
L 376.088068 23.24939 
" clip-path="url(#pdccb53017e)" style="fill: none; stroke: #d62728; stroke-linecap: square"/>
   </g>
   <g id="line2d_17">
    <path d="M 71.724432 214.756364 
L 71.724435 214.740045 
L 71.724439 214.724617 
L 71.724456 214.66354 
L 71.724487 214.570923 
L 71.724587 214.329086 
L 71.724767 213.964566 
L 71.725235 213.181807 
L 71.726894 211.034915 
L 71.728817 209.014721 
L 71.733701 204.843282 
L 71.746171 196.867414 
L 71.763287 188.75386 
L 71.793847 178.155625 
L 71.837564 167.43357 
L 71.90141 156.567859 
L 71.991674 146.172103 
L 72.118268 136.528361 
L 72.294381 127.873522 
L 72.53741 120.394789 
L 72.86903 114.25325 
L 73.31473 109.570601 
L 73.902522 106.403398 
L 74.660923 104.713912 
L 75.616741 104.349266 
L 76.793724 105.04078 
L 78.21356 106.432593 
L 79.900357 108.13625 
L 81.888835 109.791195 
L 84.236139 111.105837 
L 87.037588 111.865936 
L 90.452947 111.915504 
L 94.753435 111.118649 
L 100.405884 109.309002 
L 108.380094 106.159212 
L 114.672888 103.51576 
L 120.965682 100.840394 
L 127.38173 98.115373 
L 133.502271 95.531614 
L 139.35239 93.080898 
L 145.155058 90.670082 
L 150.999099 88.263499 
L 156.798413 85.89769 
L 162.463489 83.609027 
L 168.004131 81.392656 
L 173.484537 79.222294 
L 178.935092 77.085871 
L 184.329443 74.993717 
L 189.631879 72.959243 
L 194.842275 70.98174 
L 199.989753 69.049496 
L 205.09499 67.154387 
L 210.149559 65.299257 
L 215.132129 63.491451 
L 220.036906 61.732371 
L 224.880043 60.015535 
L 229.680001 58.333909 
L 234.437361 56.686925 
L 239.137117 55.079329 
L 243.769008 53.514005 
L 248.34093 51.987609 
L 252.87034 50.493773 
L 257.364827 49.029613 
L 261.814702 47.597903 
L 266.206077 46.202592 
L 270.538833 44.843086 
L 274.828182 43.51405 
L 279.088103 42.210759 
L 283.315897 40.933731 
L 287.496041 39.687257 
L 291.61957 38.47346 
L 295.696283 37.288883 
L 299.74501 36.127633 
L 303.772682 34.98746 
L 307.766261 33.871785 
L 311.708132 32.785098 
L 315.598125 31.726892 
L 319.455867 30.691353 
L 323.299654 29.673303 
L 327.125247 28.673703 
L 330.909777 27.698251 
L 334.638766 26.750197 
L 338.32523 25.825702 
L 341.997144 24.917412 
L 345.666083 24.022354 
L 349.312187 23.145263 
L 352.905673 22.292966 
L 356.442989 21.465764 
L 359.954192 20.656166 
L 363.470844 19.856737 
L 366.9889 19.068422 
L 370.469731 18.299754 
L 373.884224 17.556705 
L 376.088068 17.083636 
" clip-path="url(#pdccb53017e)" style="fill: none; stroke: #9467bd; stroke-linecap: square"/>
   </g>
   <g id="patch_3">
    <path d="M 56.50625 224.64 
L 56.50625 7.2 
" style="fill: none; stroke: #000000; stroke-width: 0.8; stroke-linejoin: miter; stroke-linecap: square"/>
   </g>
   <g id="patch_4">
    <path d="M 56.50625 224.64 
L 391.30625 224.64 
" style="fill: none; stroke: #000000; stroke-width: 0.8; stroke-linejoin: miter; stroke-linecap: square"/>
   </g>
   <g id="legend_1">
    <g id="line2d_18">
     <path d="M 287.376563 151.347812 
L 297.376563 151.347812 
L 307.376563 151.347812 
" style="fill: none; stroke: #1f77b4; stroke-linecap: square"/>
    </g>
    <g id="text_15">
     <!-- H20/CH4: 3.0 -->
     <g transform="translate(315.376563 154.847812) scale(0.1 -0.1)">
      <defs>
       <path id="DejaVuSans-48" d="M 628 4666 
L 1259 4666 
L 1259 2753 
L 3553 2753 
L 3553 4666 
L 4184 4666 
L 4184 0 
L 3553 0 
L 3553 2222 
L 1259 2222 
L 1259 0 
L 628 0 
L 628 4666 
z
" transform="scale(0.015625)"/>
      </defs>
      <use xlink:href="#DejaVuSans-48"/>
      <use xlink:href="#DejaVuSans-32" x="75.195312"/>
      <use xlink:href="#DejaVuSans-30" x="138.818359"/>
      <use xlink:href="#DejaVuSans-2f" x="202.441406"/>
      <use xlink:href="#DejaVuSans-43" x="236.132812"/>
      <use xlink:href="#DejaVuSans-48" x="305.957031"/>
      <use xlink:href="#DejaVuSans-34" x="381.152344"/>
      <use xlink:href="#DejaVuSans-3a" x="444.775391"/>
      <use xlink:href="#DejaVuSans-20" x="478.466797"/>
      <use xlink:href="#DejaVuSans-33" x="510.253906"/>
      <use xlink:href="#DejaVuSans-2e" x="573.876953"/>
      <use xlink:href="#DejaVuSans-30" x="605.664062"/>
     </g>
    </g>
    <g id="line2d_19">
     <path d="M 287.376563 166.025937 
L 297.376563 166.025937 
L 307.376563 166.025937 
" style="fill: none; stroke: #ff7f0e; stroke-linecap: square"/>
    </g>
    <g id="text_16">
     <!-- H20/CH4: 2.0 -->
     <g transform="translate(315.376563 169.525937) scale(0.1 -0.1)">
      <use xlink:href="#DejaVuSans-48"/>
      <use xlink:href="#DejaVuSans-32" x="75.195312"/>
      <use xlink:href="#DejaVuSans-30" x="138.818359"/>
      <use xlink:href="#DejaVuSans-2f" x="202.441406"/>
      <use xlink:href="#DejaVuSans-43" x="236.132812"/>
      <use xlink:href="#DejaVuSans-48" x="305.957031"/>
      <use xlink:href="#DejaVuSans-34" x="381.152344"/>
      <use xlink:href="#DejaVuSans-3a" x="444.775391"/>
      <use xlink:href="#DejaVuSans-20" x="478.466797"/>
      <use xlink:href="#DejaVuSans-32" x="510.253906"/>
      <use xlink:href="#DejaVuSans-2e" x="573.876953"/>
      <use xlink:href="#DejaVuSans-30" x="605.664062"/>
     </g>
    </g>
    <g id="line2d_20">
     <path d="M 287.376563 180.704062 
L 297.376563 180.704062 
L 307.376563 180.704062 
" style="fill: none; stroke: #2ca02c; stroke-linecap: square"/>
    </g>
    <g id="text_17">
     <!-- H20/CH4: 1.0 -->
     <g transform="translate(315.376563 184.204062) scale(0.1 -0.1)">
      <use xlink:href="#DejaVuSans-48"/>
      <use xlink:href="#DejaVuSans-32" x="75.195312"/>
      <use xlink:href="#DejaVuSans-30" x="138.818359"/>
      <use xlink:href="#DejaVuSans-2f" x="202.441406"/>
      <use xlink:href="#DejaVuSans-43" x="236.132812"/>
      <use xlink:href="#DejaVuSans-48" x="305.957031"/>
      <use xlink:href="#DejaVuSans-34" x="381.152344"/>
      <use xlink:href="#DejaVuSans-3a" x="444.775391"/>
      <use xlink:href="#DejaVuSans-20" x="478.466797"/>
      <use xlink:href="#DejaVuSans-31" x="510.253906"/>
      <use xlink:href="#DejaVuSans-2e" x="573.876953"/>
      <use xlink:href="#DejaVuSans-30" x="605.664062"/>
     </g>
    </g>
    <g id="line2d_21">
     <path d="M 287.376563 195.382187 
L 297.376563 195.382187 
L 307.376563 195.382187 
" style="fill: none; stroke: #d62728; stroke-linecap: square"/>
    </g>
    <g id="text_18">
     <!-- H20/CH4: 0.5 -->
     <g transform="translate(315.376563 198.882187) scale(0.1 -0.1)">
      <use xlink:href="#DejaVuSans-48"/>
      <use xlink:href="#DejaVuSans-32" x="75.195312"/>
      <use xlink:href="#DejaVuSans-30" x="138.818359"/>
      <use xlink:href="#DejaVuSans-2f" x="202.441406"/>
      <use xlink:href="#DejaVuSans-43" x="236.132812"/>
      <use xlink:href="#DejaVuSans-48" x="305.957031"/>
      <use xlink:href="#DejaVuSans-34" x="381.152344"/>
      <use xlink:href="#DejaVuSans-3a" x="444.775391"/>
      <use xlink:href="#DejaVuSans-20" x="478.466797"/>
      <use xlink:href="#DejaVuSans-30" x="510.253906"/>
      <use xlink:href="#DejaVuSans-2e" x="573.876953"/>
      <use xlink:href="#DejaVuSans-35" x="605.664062"/>
     </g>
    </g>
    <g id="line2d_22">
     <path d="M 287.376563 210.060312 
L 297.376563 210.060312 
L 307.376563 210.060312 
" style="fill: none; stroke: #9467bd; stroke-linecap: square"/>
    </g>
    <g id="text_19">
     <!-- H20/CH4: 0.3 -->
     <g transform="translate(315.376563 213.560312) scale(0.1 -0.1)">
      <use xlink:href="#DejaVuSans-48"/>
      <use xlink:href="#DejaVuSans-32" x="75.195312"/>
      <use xlink:href="#DejaVuSans-30" x="138.818359"/>
      <use xlink:href="#DejaVuSans-2f" x="202.441406"/>
      <use xlink:href="#DejaVuSans-43" x="236.132812"/>
      <use xlink:href="#DejaVuSans-48" x="305.957031"/>
      <use xlink:href="#DejaVuSans-34" x="381.152344"/>
      <use xlink:href="#DejaVuSans-3a" x="444.775391"/>
      <use xlink:href="#DejaVuSans-20" x="478.466797"/>
      <use xlink:href="#DejaVuSans-30" x="510.253906"/>
      <use xlink:href="#DejaVuSans-2e" x="573.876953"/>
      <use xlink:href="#DejaVuSans-33" x="605.664062"/>
     </g>
    </g>
   </g>
  </g>
 </g>
 <defs>
  <clipPath id="pdccb53017e">
   <rect x="56.50625" y="7.2" width="334.8" height="217.44"/>
  </clipPath>
 </defs>
</svg>
