<?xml version="1.0" encoding="utf-8" standalone="no"?>
<!DOCTYPE svg PUBLIC "-//W3C//DTD SVG 1.1//EN"
  "http://www.w3.org/Graphics/SVG/1.1/DTD/svg11.dtd">
<svg xmlns:xlink="http://www.w3.org/1999/xlink" width="411.278678pt" height="262.19625pt" viewBox="0 0 411.278678 262.19625" xmlns="http://www.w3.org/2000/svg" version="1.1">
 <metadata>
  <rdf:RDF xmlns:dc="http://purl.org/dc/elements/1.1/" xmlns:cc="http://creativecommons.org/ns#" xmlns:rdf="http://www.w3.org/1999/02/22-rdf-syntax-ns#">
   <cc:Work>
    <dc:type rdf:resource="http://purl.org/dc/dcmitype/StillImage"/>
    <dc:date>2024-04-07T21:24:28.242159</dc:date>
    <dc:format>image/svg+xml</dc:format>
    <dc:creator>
     <cc:Agent>
      <dc:title>Matplotlib v3.7.2, https://matplotlib.org/</dc:title>
     </cc:Agent>
    </dc:creator>
   </cc:Work>
  </rdf:RDF>
 </metadata>
 <defs>
  <style type="text/css">*{stroke-linejoin: round; stroke-linecap: butt}</style>
 </defs>
 <g id="figure_1">
  <g id="patch_1">
   <path d="M 0 262.19625 
L 411.278678 262.19625 
L 411.278678 0 
L 0 0 
z
" style="fill: #ffffff"/>
  </g>
  <g id="axes_1">
   <g id="patch_2">
    <path d="M 62.86875 224.64 
L 397.66875 224.64 
L 397.66875 7.2 
L 62.86875 7.2 
z
" style="fill: #ffffff"/>
   </g>
   <g id="matplotlib.axis_1">
    <g id="xtick_1">
     <g id="line2d_1">
      <defs>
       <path id="meadb7c9f9f" d="M 0 0 
L 0 3.5 
" style="stroke: #000000; stroke-width: 0.8"/>
      </defs>
      <g>
       <use xlink:href="#meadb7c9f9f" x="78.086932" y="224.64" style="stroke: #000000; stroke-width: 0.8"/>
      </g>
     </g>
     <g id="text_1">
      <!-- 0.00 -->
      <g transform="translate(66.954119 239.238437) scale(0.1 -0.1)">
       <defs>
        <path id="DejaVuSans-30" d="M 2034 4250 
Q 1547 4250 1301 3770 
Q 1056 3291 1056 2328 
Q 1056 1369 1301 889 
Q 1547 409 2034 409 
Q 2525 409 2770 889 
Q 3016 1369 3016 2328 
Q 3016 3291 2770 3770 
Q 2525 4250 2034 4250 
z
M 2034 4750 
Q 2819 4750 3233 4129 
Q 3647 3509 3647 2328 
Q 3647 1150 3233 529 
Q 2819 -91 2034 -91 
Q 1250 -91 836 529 
Q 422 1150 422 2328 
Q 422 3509 836 4129 
Q 1250 4750 2034 4750 
z
" transform="scale(0.015625)"/>
        <path id="DejaVuSans-2e" d="M 684 794 
L 1344 794 
L 1344 0 
L 684 0 
L 684 794 
z
" transform="scale(0.015625)"/>
       </defs>
       <use xlink:href="#DejaVuSans-30"/>
       <use xlink:href="#DejaVuSans-2e" x="63.623047"/>
       <use xlink:href="#DejaVuSans-30" x="95.410156"/>
       <use xlink:href="#DejaVuSans-30" x="159.033203"/>
      </g>
     </g>
    </g>
    <g id="xtick_2">
     <g id="line2d_2">
      <g>
       <use xlink:href="#meadb7c9f9f" x="130.563421" y="224.64" style="stroke: #000000; stroke-width: 0.8"/>
      </g>
     </g>
     <g id="text_2">
      <!-- 0.05 -->
      <g transform="translate(119.430608 239.238437) scale(0.1 -0.1)">
       <defs>
        <path id="DejaVuSans-35" d="M 691 4666 
L 3169 4666 
L 3169 4134 
L 1269 4134 
L 1269 2991 
Q 1406 3038 1543 3061 
Q 1681 3084 1819 3084 
Q 2600 3084 3056 2656 
Q 3513 2228 3513 1497 
Q 3513 744 3044 326 
Q 2575 -91 1722 -91 
Q 1428 -91 1123 -41 
Q 819 9 494 109 
L 494 744 
Q 775 591 1075 516 
Q 1375 441 1709 441 
Q 2250 441 2565 725 
Q 2881 1009 2881 1497 
Q 2881 1984 2565 2268 
Q 2250 2553 1709 2553 
Q 1456 2553 1204 2497 
Q 953 2441 691 2322 
L 691 4666 
z
" transform="scale(0.015625)"/>
       </defs>
       <use xlink:href="#DejaVuSans-30"/>
       <use xlink:href="#DejaVuSans-2e" x="63.623047"/>
       <use xlink:href="#DejaVuSans-30" x="95.410156"/>
       <use xlink:href="#DejaVuSans-35" x="159.033203"/>
      </g>
     </g>
    </g>
    <g id="xtick_3">
     <g id="line2d_3">
      <g>
       <use xlink:href="#meadb7c9f9f" x="183.03991" y="224.64" style="stroke: #000000; stroke-width: 0.8"/>
      </g>
     </g>
     <g id="text_3">
      <!-- 0.10 -->
      <g transform="translate(171.907097 239.238437) scale(0.1 -0.1)">
       <defs>
        <path id="DejaVuSans-31" d="M 794 531 
L 1825 531 
L 1825 4091 
L 703 3866 
L 703 4441 
L 1819 4666 
L 2450 4666 
L 2450 531 
L 3481 531 
L 3481 0 
L 794 0 
L 794 531 
z
" transform="scale(0.015625)"/>
       </defs>
       <use xlink:href="#DejaVuSans-30"/>
       <use xlink:href="#DejaVuSans-2e" x="63.623047"/>
       <use xlink:href="#DejaVuSans-31" x="95.410156"/>
       <use xlink:href="#DejaVuSans-30" x="159.033203"/>
      </g>
     </g>
    </g>
    <g id="xtick_4">
     <g id="line2d_4">
      <g>
       <use xlink:href="#meadb7c9f9f" x="235.516399" y="224.64" style="stroke: #000000; stroke-width: 0.8"/>
      </g>
     </g>
     <g id="text_4">
      <!-- 0.15 -->
      <g transform="translate(224.383586 239.238437) scale(0.1 -0.1)">
       <use xlink:href="#DejaVuSans-30"/>
       <use xlink:href="#DejaVuSans-2e" x="63.623047"/>
       <use xlink:href="#DejaVuSans-31" x="95.410156"/>
       <use xlink:href="#DejaVuSans-35" x="159.033203"/>
      </g>
     </g>
    </g>
    <g id="xtick_5">
     <g id="line2d_5">
      <g>
       <use xlink:href="#meadb7c9f9f" x="287.992888" y="224.64" style="stroke: #000000; stroke-width: 0.8"/>
      </g>
     </g>
     <g id="text_5">
      <!-- 0.20 -->
      <g transform="translate(276.860075 239.238437) scale(0.1 -0.1)">
       <defs>
        <path id="DejaVuSans-32" d="M 1228 531 
L 3431 531 
L 3431 0 
L 469 0 
L 469 531 
Q 828 903 1448 1529 
Q 2069 2156 2228 2338 
Q 2531 2678 2651 2914 
Q 2772 3150 2772 3378 
Q 2772 3750 2511 3984 
Q 2250 4219 1831 4219 
Q 1534 4219 1204 4116 
Q 875 4013 500 3803 
L 500 4441 
Q 881 4594 1212 4672 
Q 1544 4750 1819 4750 
Q 2544 4750 2975 4387 
Q 3406 4025 3406 3419 
Q 3406 3131 3298 2873 
Q 3191 2616 2906 2266 
Q 2828 2175 2409 1742 
Q 1991 1309 1228 531 
z
" transform="scale(0.015625)"/>
       </defs>
       <use xlink:href="#DejaVuSans-30"/>
       <use xlink:href="#DejaVuSans-2e" x="63.623047"/>
       <use xlink:href="#DejaVuSans-32" x="95.410156"/>
       <use xlink:href="#DejaVuSans-30" x="159.033203"/>
      </g>
     </g>
    </g>
    <g id="xtick_6">
     <g id="line2d_6">
      <g>
       <use xlink:href="#meadb7c9f9f" x="340.469377" y="224.64" style="stroke: #000000; stroke-width: 0.8"/>
      </g>
     </g>
     <g id="text_6">
      <!-- 0.25 -->
      <g transform="translate(329.336564 239.238437) scale(0.1 -0.1)">
       <use xlink:href="#DejaVuSans-30"/>
       <use xlink:href="#DejaVuSans-2e" x="63.623047"/>
       <use xlink:href="#DejaVuSans-32" x="95.410156"/>
       <use xlink:href="#DejaVuSans-35" x="159.033203"/>
      </g>
     </g>
    </g>
    <g id="xtick_7">
     <g id="line2d_7">
      <g>
       <use xlink:href="#meadb7c9f9f" x="392.945866" y="224.64" style="stroke: #000000; stroke-width: 0.8"/>
      </g>
     </g>
     <g id="text_7">
      <!-- 0.30 -->
      <g transform="translate(381.813053 239.238437) scale(0.1 -0.1)">
       <defs>
        <path id="DejaVuSans-33" d="M 2597 2516 
Q 3050 2419 3304 2112 
Q 3559 1806 3559 1356 
Q 3559 666 3084 287 
Q 2609 -91 1734 -91 
Q 1441 -91 1130 -33 
Q 819 25 488 141 
L 488 750 
Q 750 597 1062 519 
Q 1375 441 1716 441 
Q 2309 441 2620 675 
Q 2931 909 2931 1356 
Q 2931 1769 2642 2001 
Q 2353 2234 1838 2234 
L 1294 2234 
L 1294 2753 
L 1863 2753 
Q 2328 2753 2575 2939 
Q 2822 3125 2822 3475 
Q 2822 3834 2567 4026 
Q 2313 4219 1838 4219 
Q 1578 4219 1281 4162 
Q 984 4106 628 3988 
L 628 4550 
Q 988 4650 1302 4700 
Q 1616 4750 1894 4750 
Q 2613 4750 3031 4423 
Q 3450 4097 3450 3541 
Q 3450 3153 3228 2886 
Q 3006 2619 2597 2516 
z
" transform="scale(0.015625)"/>
       </defs>
       <use xlink:href="#DejaVuSans-30"/>
       <use xlink:href="#DejaVuSans-2e" x="63.623047"/>
       <use xlink:href="#DejaVuSans-33" x="95.410156"/>
       <use xlink:href="#DejaVuSans-30" x="159.033203"/>
      </g>
     </g>
    </g>
    <g id="text_8">
     <!-- z (m) -->
     <g transform="translate(217.283594 252.916562) scale(0.1 -0.1)">
      <defs>
       <path id="DejaVuSans-7a" d="M 353 3500 
L 3084 3500 
L 3084 2975 
L 922 459 
L 3084 459 
L 3084 0 
L 275 0 
L 275 525 
L 2438 3041 
L 353 3041 
L 353 3500 
z
" transform="scale(0.015625)"/>
       <path id="DejaVuSans-20" transform="scale(0.015625)"/>
       <path id="DejaVuSans-28" d="M 1984 4856 
Q 1566 4138 1362 3434 
Q 1159 2731 1159 2009 
Q 1159 1288 1364 580 
Q 1569 -128 1984 -844 
L 1484 -844 
Q 1016 -109 783 600 
Q 550 1309 550 2009 
Q 550 2706 781 3412 
Q 1013 4119 1484 4856 
L 1984 4856 
z
" transform="scale(0.015625)"/>
       <path id="DejaVuSans-6d" d="M 3328 2828 
Q 3544 3216 3844 3400 
Q 4144 3584 4550 3584 
Q 5097 3584 5394 3201 
Q 5691 2819 5691 2113 
L 5691 0 
L 5113 0 
L 5113 2094 
Q 5113 2597 4934 2840 
Q 4756 3084 4391 3084 
Q 3944 3084 3684 2787 
Q 3425 2491 3425 1978 
L 3425 0 
L 2847 0 
L 2847 2094 
Q 2847 2600 2669 2842 
Q 2491 3084 2119 3084 
Q 1678 3084 1418 2786 
Q 1159 2488 1159 1978 
L 1159 0 
L 581 0 
L 581 3500 
L 1159 3500 
L 1159 2956 
Q 1356 3278 1631 3431 
Q 1906 3584 2284 3584 
Q 2666 3584 2933 3390 
Q 3200 3197 3328 2828 
z
" transform="scale(0.015625)"/>
       <path id="DejaVuSans-29" d="M 513 4856 
L 1013 4856 
Q 1481 4119 1714 3412 
Q 1947 2706 1947 2009 
Q 1947 1309 1714 600 
Q 1481 -109 1013 -844 
L 513 -844 
Q 928 -128 1133 580 
Q 1338 1288 1338 2009 
Q 1338 2731 1133 3434 
Q 928 4138 513 4856 
z
" transform="scale(0.015625)"/>
      </defs>
      <use xlink:href="#DejaVuSans-7a"/>
      <use xlink:href="#DejaVuSans-20" x="52.490234"/>
      <use xlink:href="#DejaVuSans-28" x="84.277344"/>
      <use xlink:href="#DejaVuSans-6d" x="123.291016"/>
      <use xlink:href="#DejaVuSans-29" x="220.703125"/>
     </g>
    </g>
   </g>
   <g id="matplotlib.axis_2">
    <g id="ytick_1">
     <g id="line2d_8">
      <defs>
       <path id="mf3b6bf45ff" d="M 0 0 
L -3.5 0 
" style="stroke: #000000; stroke-width: 0.8"/>
      </defs>
      <g>
       <use xlink:href="#mf3b6bf45ff" x="62.86875" y="214.756364" style="stroke: #000000; stroke-width: 0.8"/>
      </g>
     </g>
     <g id="text_9">
      <!-- 0.0000 -->
      <g transform="translate(20.878125 218.555582) scale(0.1 -0.1)">
       <use xlink:href="#DejaVuSans-30"/>
       <use xlink:href="#DejaVuSans-2e" x="63.623047"/>
       <use xlink:href="#DejaVuSans-30" x="95.410156"/>
       <use xlink:href="#DejaVuSans-30" x="159.033203"/>
       <use xlink:href="#DejaVuSans-30" x="222.65625"/>
       <use xlink:href="#DejaVuSans-30" x="286.279297"/>
      </g>
     </g>
    </g>
    <g id="ytick_2">
     <g id="line2d_9">
      <g>
       <use xlink:href="#mf3b6bf45ff" x="62.86875" y="178.004178" style="stroke: #000000; stroke-width: 0.8"/>
      </g>
     </g>
     <g id="text_10">
      <!-- 0.0005 -->
      <g transform="translate(20.878125 181.803397) scale(0.1 -0.1)">
       <use xlink:href="#DejaVuSans-30"/>
       <use xlink:href="#DejaVuSans-2e" x="63.623047"/>
       <use xlink:href="#DejaVuSans-30" x="95.410156"/>
       <use xlink:href="#DejaVuSans-30" x="159.033203"/>
       <use xlink:href="#DejaVuSans-30" x="222.65625"/>
       <use xlink:href="#DejaVuSans-35" x="286.279297"/>
      </g>
     </g>
    </g>
    <g id="ytick_3">
     <g id="line2d_10">
      <g>
       <use xlink:href="#mf3b6bf45ff" x="62.86875" y="141.251993" style="stroke: #000000; stroke-width: 0.8"/>
      </g>
     </g>
     <g id="text_11">
      <!-- 0.0010 -->
      <g transform="translate(20.878125 145.051212) scale(0.1 -0.1)">
       <use xlink:href="#DejaVuSans-30"/>
       <use xlink:href="#DejaVuSans-2e" x="63.623047"/>
       <use xlink:href="#DejaVuSans-30" x="95.410156"/>
       <use xlink:href="#DejaVuSans-30" x="159.033203"/>
       <use xlink:href="#DejaVuSans-31" x="222.65625"/>
       <use xlink:href="#DejaVuSans-30" x="286.279297"/>
      </g>
     </g>
    </g>
    <g id="ytick_4">
     <g id="line2d_11">
      <g>
       <use xlink:href="#mf3b6bf45ff" x="62.86875" y="104.499808" style="stroke: #000000; stroke-width: 0.8"/>
      </g>
     </g>
     <g id="text_12">
      <!-- 0.0015 -->
      <g transform="translate(20.878125 108.299026) scale(0.1 -0.1)">
       <use xlink:href="#DejaVuSans-30"/>
       <use xlink:href="#DejaVuSans-2e" x="63.623047"/>
       <use xlink:href="#DejaVuSans-30" x="95.410156"/>
       <use xlink:href="#DejaVuSans-30" x="159.033203"/>
       <use xlink:href="#DejaVuSans-31" x="222.65625"/>
       <use xlink:href="#DejaVuSans-35" x="286.279297"/>
      </g>
     </g>
    </g>
    <g id="ytick_5">
     <g id="line2d_12">
      <g>
       <use xlink:href="#mf3b6bf45ff" x="62.86875" y="67.747622" style="stroke: #000000; stroke-width: 0.8"/>
      </g>
     </g>
     <g id="text_13">
      <!-- 0.0020 -->
      <g transform="translate(20.878125 71.546841) scale(0.1 -0.1)">
       <use xlink:href="#DejaVuSans-30"/>
       <use xlink:href="#DejaVuSans-2e" x="63.623047"/>
       <use xlink:href="#DejaVuSans-30" x="95.410156"/>
       <use xlink:href="#DejaVuSans-30" x="159.033203"/>
       <use xlink:href="#DejaVuSans-32" x="222.65625"/>
       <use xlink:href="#DejaVuSans-30" x="286.279297"/>
      </g>
     </g>
    </g>
    <g id="ytick_6">
     <g id="line2d_13">
      <g>
       <use xlink:href="#mf3b6bf45ff" x="62.86875" y="30.995437" style="stroke: #000000; stroke-width: 0.8"/>
      </g>
     </g>
     <g id="text_14">
      <!-- 0.0025 -->
      <g transform="translate(20.878125 34.794656) scale(0.1 -0.1)">
       <use xlink:href="#DejaVuSans-30"/>
       <use xlink:href="#DejaVuSans-2e" x="63.623047"/>
       <use xlink:href="#DejaVuSans-30" x="95.410156"/>
       <use xlink:href="#DejaVuSans-30" x="159.033203"/>
       <use xlink:href="#DejaVuSans-32" x="222.65625"/>
       <use xlink:href="#DejaVuSans-35" x="286.279297"/>
      </g>
     </g>
    </g>
    <g id="text_15">
     <!-- Concentrations: CO (mol/L) -->
     <g transform="translate(14.798438 183.87625) rotate(-90) scale(0.1 -0.1)">
      <defs>
       <path id="DejaVuSans-43" d="M 4122 4306 
L 4122 3641 
Q 3803 3938 3442 4084 
Q 3081 4231 2675 4231 
Q 1875 4231 1450 3742 
Q 1025 3253 1025 2328 
Q 1025 1406 1450 917 
Q 1875 428 2675 428 
Q 3081 428 3442 575 
Q 3803 722 4122 1019 
L 4122 359 
Q 3791 134 3420 21 
Q 3050 -91 2638 -91 
Q 1578 -91 968 557 
Q 359 1206 359 2328 
Q 359 3453 968 4101 
Q 1578 4750 2638 4750 
Q 3056 4750 3426 4639 
Q 3797 4528 4122 4306 
z
" transform="scale(0.015625)"/>
       <path id="DejaVuSans-6f" d="M 1959 3097 
Q 1497 3097 1228 2736 
Q 959 2375 959 1747 
Q 959 1119 1226 758 
Q 1494 397 1959 397 
Q 2419 397 2687 759 
Q 2956 1122 2956 1747 
Q 2956 2369 2687 2733 
Q 2419 3097 1959 3097 
z
M 1959 3584 
Q 2709 3584 3137 3096 
Q 3566 2609 3566 1747 
Q 3566 888 3137 398 
Q 2709 -91 1959 -91 
Q 1206 -91 779 398 
Q 353 888 353 1747 
Q 353 2609 779 3096 
Q 1206 3584 1959 3584 
z
" transform="scale(0.015625)"/>
       <path id="DejaVuSans-6e" d="M 3513 2113 
L 3513 0 
L 2938 0 
L 2938 2094 
Q 2938 2591 2744 2837 
Q 2550 3084 2163 3084 
Q 1697 3084 1428 2787 
Q 1159 2491 1159 1978 
L 1159 0 
L 581 0 
L 581 3500 
L 1159 3500 
L 1159 2956 
Q 1366 3272 1645 3428 
Q 1925 3584 2291 3584 
Q 2894 3584 3203 3211 
Q 3513 2838 3513 2113 
z
" transform="scale(0.015625)"/>
       <path id="DejaVuSans-63" d="M 3122 3366 
L 3122 2828 
Q 2878 2963 2633 3030 
Q 2388 3097 2138 3097 
Q 1578 3097 1268 2742 
Q 959 2388 959 1747 
Q 959 1106 1268 751 
Q 1578 397 2138 397 
Q 2388 397 2633 464 
Q 2878 531 3122 666 
L 3122 134 
Q 2881 22 2623 -34 
Q 2366 -91 2075 -91 
Q 1284 -91 818 406 
Q 353 903 353 1747 
Q 353 2603 823 3093 
Q 1294 3584 2113 3584 
Q 2378 3584 2631 3529 
Q 2884 3475 3122 3366 
z
" transform="scale(0.015625)"/>
       <path id="DejaVuSans-65" d="M 3597 1894 
L 3597 1613 
L 953 1613 
Q 991 1019 1311 708 
Q 1631 397 2203 397 
Q 2534 397 2845 478 
Q 3156 559 3463 722 
L 3463 178 
Q 3153 47 2828 -22 
Q 2503 -91 2169 -91 
Q 1331 -91 842 396 
Q 353 884 353 1716 
Q 353 2575 817 3079 
Q 1281 3584 2069 3584 
Q 2775 3584 3186 3129 
Q 3597 2675 3597 1894 
z
M 3022 2063 
Q 3016 2534 2758 2815 
Q 2500 3097 2075 3097 
Q 1594 3097 1305 2825 
Q 1016 2553 972 2059 
L 3022 2063 
z
" transform="scale(0.015625)"/>
       <path id="DejaVuSans-74" d="M 1172 4494 
L 1172 3500 
L 2356 3500 
L 2356 3053 
L 1172 3053 
L 1172 1153 
Q 1172 725 1289 603 
Q 1406 481 1766 481 
L 2356 481 
L 2356 0 
L 1766 0 
Q 1100 0 847 248 
Q 594 497 594 1153 
L 594 3053 
L 172 3053 
L 172 3500 
L 594 3500 
L 594 4494 
L 1172 4494 
z
" transform="scale(0.015625)"/>
       <path id="DejaVuSans-72" d="M 2631 2963 
Q 2534 3019 2420 3045 
Q 2306 3072 2169 3072 
Q 1681 3072 1420 2755 
Q 1159 2438 1159 1844 
L 1159 0 
L 581 0 
L 581 3500 
L 1159 3500 
L 1159 2956 
Q 1341 3275 1631 3429 
Q 1922 3584 2338 3584 
Q 2397 3584 2469 3576 
Q 2541 3569 2628 3553 
L 2631 2963 
z
" transform="scale(0.015625)"/>
       <path id="DejaVuSans-61" d="M 2194 1759 
Q 1497 1759 1228 1600 
Q 959 1441 959 1056 
Q 959 750 1161 570 
Q 1363 391 1709 391 
Q 2188 391 2477 730 
Q 2766 1069 2766 1631 
L 2766 1759 
L 2194 1759 
z
M 3341 1997 
L 3341 0 
L 2766 0 
L 2766 531 
Q 2569 213 2275 61 
Q 1981 -91 1556 -91 
Q 1019 -91 701 211 
Q 384 513 384 1019 
Q 384 1609 779 1909 
Q 1175 2209 1959 2209 
L 2766 2209 
L 2766 2266 
Q 2766 2663 2505 2880 
Q 2244 3097 1772 3097 
Q 1472 3097 1187 3025 
Q 903 2953 641 2809 
L 641 3341 
Q 956 3463 1253 3523 
Q 1550 3584 1831 3584 
Q 2591 3584 2966 3190 
Q 3341 2797 3341 1997 
z
" transform="scale(0.015625)"/>
       <path id="DejaVuSans-69" d="M 603 3500 
L 1178 3500 
L 1178 0 
L 603 0 
L 603 3500 
z
M 603 4863 
L 1178 4863 
L 1178 4134 
L 603 4134 
L 603 4863 
z
" transform="scale(0.015625)"/>
       <path id="DejaVuSans-73" d="M 2834 3397 
L 2834 2853 
Q 2591 2978 2328 3040 
Q 2066 3103 1784 3103 
Q 1356 3103 1142 2972 
Q 928 2841 928 2578 
Q 928 2378 1081 2264 
Q 1234 2150 1697 2047 
L 1894 2003 
Q 2506 1872 2764 1633 
Q 3022 1394 3022 966 
Q 3022 478 2636 193 
Q 2250 -91 1575 -91 
Q 1294 -91 989 -36 
Q 684 19 347 128 
L 347 722 
Q 666 556 975 473 
Q 1284 391 1588 391 
Q 1994 391 2212 530 
Q 2431 669 2431 922 
Q 2431 1156 2273 1281 
Q 2116 1406 1581 1522 
L 1381 1569 
Q 847 1681 609 1914 
Q 372 2147 372 2553 
Q 372 3047 722 3315 
Q 1072 3584 1716 3584 
Q 2034 3584 2315 3537 
Q 2597 3491 2834 3397 
z
" transform="scale(0.015625)"/>
       <path id="DejaVuSans-3a" d="M 750 794 
L 1409 794 
L 1409 0 
L 750 0 
L 750 794 
z
M 750 3309 
L 1409 3309 
L 1409 2516 
L 750 2516 
L 750 3309 
z
" transform="scale(0.015625)"/>
       <path id="DejaVuSans-4f" d="M 2522 4238 
Q 1834 4238 1429 3725 
Q 1025 3213 1025 2328 
Q 1025 1447 1429 934 
Q 1834 422 2522 422 
Q 3209 422 3611 934 
Q 4013 1447 4013 2328 
Q 4013 3213 3611 3725 
Q 3209 4238 2522 4238 
z
M 2522 4750 
Q 3503 4750 4090 4092 
Q 4678 3434 4678 2328 
Q 4678 1225 4090 567 
Q 3503 -91 2522 -91 
Q 1538 -91 948 565 
Q 359 1222 359 2328 
Q 359 3434 948 4092 
Q 1538 4750 2522 4750 
z
" transform="scale(0.015625)"/>
       <path id="DejaVuSans-6c" d="M 603 4863 
L 1178 4863 
L 1178 0 
L 603 0 
L 603 4863 
z
" transform="scale(0.015625)"/>
       <path id="DejaVuSans-2f" d="M 1625 4666 
L 2156 4666 
L 531 -594 
L 0 -594 
L 1625 4666 
z
" transform="scale(0.015625)"/>
       <path id="DejaVuSans-4c" d="M 628 4666 
L 1259 4666 
L 1259 531 
L 3531 531 
L 3531 0 
L 628 0 
L 628 4666 
z
" transform="scale(0.015625)"/>
      </defs>
      <use xlink:href="#DejaVuSans-43"/>
      <use xlink:href="#DejaVuSans-6f" x="69.824219"/>
      <use xlink:href="#DejaVuSans-6e" x="131.005859"/>
      <use xlink:href="#DejaVuSans-63" x="194.384766"/>
      <use xlink:href="#DejaVuSans-65" x="249.365234"/>
      <use xlink:href="#DejaVuSans-6e" x="310.888672"/>
      <use xlink:href="#DejaVuSans-74" x="374.267578"/>
      <use xlink:href="#DejaVuSans-72" x="413.476562"/>
      <use xlink:href="#DejaVuSans-61" x="454.589844"/>
      <use xlink:href="#DejaVuSans-74" x="515.869141"/>
      <use xlink:href="#DejaVuSans-69" x="555.078125"/>
      <use xlink:href="#DejaVuSans-6f" x="582.861328"/>
      <use xlink:href="#DejaVuSans-6e" x="644.042969"/>
      <use xlink:href="#DejaVuSans-73" x="707.421875"/>
      <use xlink:href="#DejaVuSans-3a" x="759.521484"/>
      <use xlink:href="#DejaVuSans-20" x="793.212891"/>
      <use xlink:href="#DejaVuSans-43" x="825"/>
      <use xlink:href="#DejaVuSans-4f" x="894.824219"/>
      <use xlink:href="#DejaVuSans-20" x="973.535156"/>
      <use xlink:href="#DejaVuSans-28" x="1005.322266"/>
      <use xlink:href="#DejaVuSans-6d" x="1044.335938"/>
      <use xlink:href="#DejaVuSans-6f" x="1141.748047"/>
      <use xlink:href="#DejaVuSans-6c" x="1202.929688"/>
      <use xlink:href="#DejaVuSans-2f" x="1230.712891"/>
      <use xlink:href="#DejaVuSans-4c" x="1264.404297"/>
      <use xlink:href="#DejaVuSans-29" x="1320.117188"/>
     </g>
    </g>
   </g>
   <g id="line2d_14">
    <path d="M 78.086932 214.756364 
L 78.086943 214.748009 
L 78.086954 214.740093 
L 78.087007 214.707933 
L 78.087099 214.660832 
L 78.087415 214.528899 
L 78.087925 214.350378 
L 78.089375 213.926778 
L 78.092472 213.179629 
L 78.104371 210.939702 
L 78.116069 209.121174 
L 78.148919 204.878916 
L 78.262027 194.074247 
L 78.364725 186.511762 
L 78.642451 171.017881 
L 78.993374 156.988893 
L 79.540876 141.793962 
L 80.288821 128.645838 
L 81.287852 118.94428 
L 82.566675 113.773024 
L 84.151131 113.051308 
L 86.06598 115.726191 
L 88.350395 120.281656 
L 91.078297 125.263474 
L 94.399012 129.573728 
L 98.674661 132.521222 
L 104.431241 133.533708 
L 110.187821 132.817727 
L 117.346333 130.880339 
L 126.473342 127.747671 
L 137.609971 123.5845 
L 148.746599 119.317618 
L 158.794221 115.456005 
L 168.659277 111.67382 
L 178.792803 107.810236 
L 189.033773 103.936367 
L 199.306358 100.087598 
L 209.638483 96.259105 
L 220.053424 92.447999 
L 230.552691 88.659494 
L 241.135518 84.899478 
L 251.805941 81.171997 
L 262.569675 77.480476 
L 273.431677 73.828598 
L 284.396452 70.22019 
L 295.468912 66.65894 
L 306.654557 63.148358 
L 317.959266 59.691879 
L 329.389164 56.292919 
L 340.9507 52.954871 
L 352.650782 49.681089 
L 364.496853 46.474893 
L 376.496893 43.3396 
L 382.450568 41.828342 
" clip-path="url(#p49cf27a672)" style="fill: none; stroke: #1f77b4; stroke-linecap: square"/>
   </g>
   <g id="line2d_15">
    <path d="M 78.086932 214.756364 
L 78.086944 214.747461 
L 78.086955 214.739166 
L 78.08702 214.701236 
L 78.087128 214.647661 
L 78.087517 214.490761 
L 78.088147 214.277838 
L 78.09003 213.749655 
L 78.093835 212.866449 
L 78.104707 210.819937 
L 78.123049 207.991696 
L 78.165851 202.619734 
L 78.29335 190.507538 
L 78.442349 179.578601 
L 78.837906 158.125232 
L 79.326012 139.499746 
L 80.108588 119.321644 
L 81.169073 102.878806 
L 82.571548 91.90259 
L 84.33424 87.21748 
L 86.473785 87.724076 
L 89.017619 91.309976 
L 92.034129 95.870996 
L 95.669467 99.88779 
L 100.243462 102.509317 
L 106.745001 103.296219 
L 114.77604 102.165378 
L 123.851543 99.968408 
L 136.860248 96.390794 
L 150.264385 92.643958 
L 163.384772 89.023909 
L 175.568541 85.729221 
L 188.061564 82.422352 
L 201.384563 78.982595 
L 215.014124 75.563681 
L 228.48795 72.289151 
L 241.885884 69.140894 
L 255.545317 66.045433 
L 269.624864 62.979765 
L 283.986972 59.988024 
L 298.413242 57.125213 
L 312.869113 54.403526 
L 327.566895 51.790512 
L 342.812833 49.247723 
L 358.781914 46.7711 
L 375.293449 44.415132 
L 382.450568 43.465113 
" clip-path="url(#p49cf27a672)" style="fill: none; stroke: #ff7f0e; stroke-linecap: square"/>
   </g>
   <g id="line2d_16">
    <path d="M 78.086932 214.756364 
L 78.086946 214.746348 
L 78.086959 214.73761 
L 78.087046 214.688836 
L 78.087185 214.623578 
L 78.087696 214.427962 
L 78.088552 214.154562 
L 78.091204 213.455104 
L 78.096292 212.344723 
L 78.110206 209.864994 
L 78.139005 205.710073 
L 78.214437 197.134901 
L 78.345629 185.467663 
L 78.731391 160.562283 
L 79.162338 140.52481 
L 79.989434 113.680466 
L 81.109924 90.983072 
L 82.650293 73.956515 
L 84.616339 64.83911 
L 87.02105 62.622797 
L 89.879763 64.619027 
L 93.260892 68.078359 
L 97.323733 71.143255 
L 102.393339 72.924811 
L 109.168726 73.186248 
L 118.623799 72.016248 
L 129.565827 70.133592 
L 141.242714 68.04845 
L 155.391359 65.568738 
L 173.982573 62.442637 
L 188.203986 60.178096 
L 202.425399 58.017622 
L 219.620637 55.545976 
L 237.338462 53.168183 
L 253.131217 51.20253 
L 268.923973 49.381962 
L 285.652991 47.613157 
L 303.456084 45.914211 
L 321.25386 44.408354 
L 335.571662 43.352787 
L 349.889465 42.425241 
L 368.264646 41.428968 
L 382.450568 40.807402 
" clip-path="url(#p49cf27a672)" style="fill: none; stroke: #2ca02c; stroke-linecap: square"/>
   </g>
   <g id="line2d_17">
    <path d="M 78.086932 214.756364 
L 78.086946 214.746057 
L 78.08696 214.736866 
L 78.087057 214.683276 
L 78.087212 214.612175 
L 78.087803 214.391329 
L 78.088776 214.088023 
L 78.091886 213.289795 
L 78.097797 212.035803 
L 78.114243 209.189558 
L 78.148749 204.365418 
L 78.240165 194.324122 
L 78.402547 180.437541 
L 78.859457 152.093232 
L 79.408679 127.838613 
L 80.428923 97.14062 
L 81.816721 72.002624 
L 83.702562 54.391272 
L 86.07887 45.838669 
L 88.949549 44.110852 
L 92.345561 45.769501 
L 96.384268 48.094864 
L 101.310327 49.672725 
L 107.556501 50.113457 
L 115.618432 49.611388 
L 125.227824 48.642011 
L 135.952717 47.536008 
L 148.448938 46.310076 
L 163.642156 44.921219 
L 182.201648 43.378805 
L 198.578929 42.15486 
L 214.95621 41.063842 
L 230.92037 40.128299 
L 246.08862 39.355964 
L 261.014978 38.711909 
L 276.348974 38.174044 
L 292.051699 37.754032 
L 307.604505 37.467846 
L 322.756142 37.313671 
L 337.738237 37.284994 
L 352.864114 37.383561 
L 368.141291 37.614213 
L 382.450568 37.946738 
" clip-path="url(#p49cf27a672)" style="fill: none; stroke: #d62728; stroke-linecap: square"/>
   </g>
   <g id="line2d_18">
    <path d="M 78.086932 214.756364 
L 78.086948 214.745174 
L 78.086963 214.735476 
L 78.087085 214.671133 
L 78.087273 214.588413 
L 78.087997 214.328427 
L 78.089211 213.965842 
L 78.09316 212.99807 
L 78.100524 211.508389 
L 78.120979 208.13354 
L 78.166466 202.111282 
L 78.304793 188.107931 
L 78.491554 173.390064 
L 79.024445 142.423963 
L 79.739633 113.349945 
L 80.969155 80.420649 
L 82.654439 54.435891 
L 84.898009 37.806019 
L 87.6829 30.579146 
L 91.012227 29.338818 
L 94.953381 30.42765 
L 99.690524 31.60045 
L 105.548436 32.045732 
L 112.90773 31.829691 
L 121.774227 31.346926 
L 131.925646 30.861854 
L 143.705799 30.411029 
L 157.917882 29.977382 
L 175.362178 29.578891 
L 195.034256 29.306434 
L 209.504028 29.194189 
L 223.9738 29.182793 
L 240.571366 29.297199 
L 257.926838 29.558467 
L 274.076042 29.921336 
L 288.921606 30.35559 
L 303.800979 30.900046 
L 319.685759 31.604744 
L 336.096856 32.464426 
L 352.014595 33.421594 
L 367.221455 34.448903 
L 382.322967 35.583974 
L 382.450568 35.593777 
" clip-path="url(#p49cf27a672)" style="fill: none; stroke: #9467bd; stroke-linecap: square"/>
   </g>
   <g id="line2d_19">
    <path d="M 78.086932 214.756364 
L 78.08695 214.744309 
L 78.086967 214.734094 
L 78.087116 214.657826 
L 78.087341 214.562464 
L 78.088216 214.260149 
L 78.089705 213.832943 
L 78.094609 212.681841 
L 78.103638 210.93508 
L 78.128695 206.984621 
L 78.186991 199.657355 
L 78.349847 183.997987 
L 78.598177 165.629493 
L 79.297151 128.638295 
L 80.173888 97.118536 
L 81.675113 62.825983 
L 83.691355 37.896528 
L 86.320164 23.530425 
L 89.527314 17.998999 
L 93.337203 17.083636 
L 97.875102 17.496091 
L 103.39869 17.732756 
L 110.240398 17.568291 
L 118.5265 17.314612 
L 128.151614 17.216842 
L 139.318755 17.299403 
L 152.698732 17.540439 
L 169.201627 17.966005 
L 188.94237 18.637246 
L 204.815026 19.280268 
L 220.687682 20.028588 
L 237.537008 20.943605 
L 254.433276 21.981864 
L 270.529001 23.077478 
L 286.031223 24.23386 
L 301.737513 25.513785 
L 318.018401 26.957265 
L 334.449382 28.532452 
L 350.469249 30.179576 
L 366.066403 31.889733 
L 381.671659 33.710238 
L 382.450568 33.801832 
" clip-path="url(#p49cf27a672)" style="fill: none; stroke: #8c564b; stroke-linecap: square"/>
   </g>
   <g id="patch_3">
    <path d="M 62.86875 224.64 
L 62.86875 7.2 
" style="fill: none; stroke: #000000; stroke-width: 0.8; stroke-linejoin: miter; stroke-linecap: square"/>
   </g>
   <g id="patch_4">
    <path d="M 62.86875 224.64 
L 397.66875 224.64 
" style="fill: none; stroke: #000000; stroke-width: 0.8; stroke-linejoin: miter; stroke-linecap: square"/>
   </g>
   <g id="legend_1">
    <g id="line2d_20">
     <path d="M 313.946875 136.669687 
L 323.946875 136.669687 
L 333.946875 136.669687 
" style="fill: none; stroke: #1f77b4; stroke-linecap: square"/>
    </g>
    <g id="text_16">
     <!-- us: 0.001 -->
     <g transform="translate(341.946875 140.169687) scale(0.1 -0.1)">
      <defs>
       <path id="DejaVuSans-75" d="M 544 1381 
L 544 3500 
L 1119 3500 
L 1119 1403 
Q 1119 906 1312 657 
Q 1506 409 1894 409 
Q 2359 409 2629 706 
Q 2900 1003 2900 1516 
L 2900 3500 
L 3475 3500 
L 3475 0 
L 2900 0 
L 2900 538 
Q 2691 219 2414 64 
Q 2138 -91 1772 -91 
Q 1169 -91 856 284 
Q 544 659 544 1381 
z
M 1991 3584 
L 1991 3584 
z
" transform="scale(0.015625)"/>
      </defs>
      <use xlink:href="#DejaVuSans-75"/>
      <use xlink:href="#DejaVuSans-73" x="63.378906"/>
      <use xlink:href="#DejaVuSans-3a" x="115.478516"/>
      <use xlink:href="#DejaVuSans-20" x="149.169922"/>
      <use xlink:href="#DejaVuSans-30" x="180.957031"/>
      <use xlink:href="#DejaVuSans-2e" x="244.580078"/>
      <use xlink:href="#DejaVuSans-30" x="276.367188"/>
      <use xlink:href="#DejaVuSans-30" x="339.990234"/>
      <use xlink:href="#DejaVuSans-31" x="403.613281"/>
     </g>
    </g>
    <g id="line2d_21">
     <path d="M 313.946875 151.347812 
L 323.946875 151.347812 
L 333.946875 151.347812 
" style="fill: none; stroke: #ff7f0e; stroke-linecap: square"/>
    </g>
    <g id="text_17">
     <!-- us: 0.005 -->
     <g transform="translate(341.946875 154.847812) scale(0.1 -0.1)">
      <use xlink:href="#DejaVuSans-75"/>
      <use xlink:href="#DejaVuSans-73" x="63.378906"/>
      <use xlink:href="#DejaVuSans-3a" x="115.478516"/>
      <use xlink:href="#DejaVuSans-20" x="149.169922"/>
      <use xlink:href="#DejaVuSans-30" x="180.957031"/>
      <use xlink:href="#DejaVuSans-2e" x="244.580078"/>
      <use xlink:href="#DejaVuSans-30" x="276.367188"/>
      <use xlink:href="#DejaVuSans-30" x="339.990234"/>
      <use xlink:href="#DejaVuSans-35" x="403.613281"/>
     </g>
    </g>
    <g id="line2d_22">
     <path d="M 313.946875 166.025937 
L 323.946875 166.025937 
L 333.946875 166.025937 
" style="fill: none; stroke: #2ca02c; stroke-linecap: square"/>
    </g>
    <g id="text_18">
     <!-- us: 0.01 -->
     <g transform="translate(341.946875 169.525937) scale(0.1 -0.1)">
      <use xlink:href="#DejaVuSans-75"/>
      <use xlink:href="#DejaVuSans-73" x="63.378906"/>
      <use xlink:href="#DejaVuSans-3a" x="115.478516"/>
      <use xlink:href="#DejaVuSans-20" x="149.169922"/>
      <use xlink:href="#DejaVuSans-30" x="180.957031"/>
      <use xlink:href="#DejaVuSans-2e" x="244.580078"/>
      <use xlink:href="#DejaVuSans-30" x="276.367188"/>
      <use xlink:href="#DejaVuSans-31" x="339.990234"/>
     </g>
    </g>
    <g id="line2d_23">
     <path d="M 313.946875 180.704062 
L 323.946875 180.704062 
L 333.946875 180.704062 
" style="fill: none; stroke: #d62728; stroke-linecap: square"/>
    </g>
    <g id="text_19">
     <!-- us: 0.015 -->
     <g transform="translate(341.946875 184.204062) scale(0.1 -0.1)">
      <use xlink:href="#DejaVuSans-75"/>
      <use xlink:href="#DejaVuSans-73" x="63.378906"/>
      <use xlink:href="#DejaVuSans-3a" x="115.478516"/>
      <use xlink:href="#DejaVuSans-20" x="149.169922"/>
      <use xlink:href="#DejaVuSans-30" x="180.957031"/>
      <use xlink:href="#DejaVuSans-2e" x="244.580078"/>
      <use xlink:href="#DejaVuSans-30" x="276.367188"/>
      <use xlink:href="#DejaVuSans-31" x="339.990234"/>
      <use xlink:href="#DejaVuSans-35" x="403.613281"/>
     </g>
    </g>
    <g id="line2d_24">
     <path d="M 313.946875 195.382187 
L 323.946875 195.382187 
L 333.946875 195.382187 
" style="fill: none; stroke: #9467bd; stroke-linecap: square"/>
    </g>
    <g id="text_20">
     <!-- us: 0.02 -->
     <g transform="translate(341.946875 198.882187) scale(0.1 -0.1)">
      <use xlink:href="#DejaVuSans-75"/>
      <use xlink:href="#DejaVuSans-73" x="63.378906"/>
      <use xlink:href="#DejaVuSans-3a" x="115.478516"/>
      <use xlink:href="#DejaVuSans-20" x="149.169922"/>
      <use xlink:href="#DejaVuSans-30" x="180.957031"/>
      <use xlink:href="#DejaVuSans-2e" x="244.580078"/>
      <use xlink:href="#DejaVuSans-30" x="276.367188"/>
      <use xlink:href="#DejaVuSans-32" x="339.990234"/>
     </g>
    </g>
    <g id="line2d_25">
     <path d="M 313.946875 210.060312 
L 323.946875 210.060312 
L 333.946875 210.060312 
" style="fill: none; stroke: #8c564b; stroke-linecap: square"/>
    </g>
    <g id="text_21">
     <!-- us: 0.025 -->
     <g transform="translate(341.946875 213.560312) scale(0.1 -0.1)">
      <use xlink:href="#DejaVuSans-75"/>
      <use xlink:href="#DejaVuSans-73" x="63.378906"/>
      <use xlink:href="#DejaVuSans-3a" x="115.478516"/>
      <use xlink:href="#DejaVuSans-20" x="149.169922"/>
      <use xlink:href="#DejaVuSans-30" x="180.957031"/>
      <use xlink:href="#DejaVuSans-2e" x="244.580078"/>
      <use xlink:href="#DejaVuSans-30" x="276.367188"/>
      <use xlink:href="#DejaVuSans-32" x="339.990234"/>
      <use xlink:href="#DejaVuSans-35" x="403.613281"/>
     </g>
    </g>
   </g>
  </g>
 </g>
 <defs>
  <clipPath id="p49cf27a672">
   <rect x="62.86875" y="7.2" width="334.8" height="217.44"/>
  </clipPath>
 </defs>
</svg>
