<?xml version="1.0" encoding="utf-8" standalone="no"?>
<!DOCTYPE svg PUBLIC "-//W3C//DTD SVG 1.1//EN"
  "http://www.w3.org/Graphics/SVG/1.1/DTD/svg11.dtd">
<svg xmlns:xlink="http://www.w3.org/1999/xlink" width="404.916178pt" height="263.802219pt" viewBox="0 0 404.916178 263.802219" xmlns="http://www.w3.org/2000/svg" version="1.1">
 <metadata>
  <rdf:RDF xmlns:dc="http://purl.org/dc/elements/1.1/" xmlns:cc="http://creativecommons.org/ns#" xmlns:rdf="http://www.w3.org/1999/02/22-rdf-syntax-ns#">
   <cc:Work>
    <dc:type rdf:resource="http://purl.org/dc/dcmitype/StillImage"/>
    <dc:date>2024-04-07T21:27:50.409484</dc:date>
    <dc:format>image/svg+xml</dc:format>
    <dc:creator>
     <cc:Agent>
      <dc:title>Matplotlib v3.7.2, https://matplotlib.org/</dc:title>
     </cc:Agent>
    </dc:creator>
   </cc:Work>
  </rdf:RDF>
 </metadata>
 <defs>
  <style type="text/css">*{stroke-linejoin: round; stroke-linecap: butt}</style>
 </defs>
 <g id="figure_1">
  <g id="patch_1">
   <path d="M 0 263.802219 
L 404.916178 263.802219 
L 404.916178 0 
L 0 0 
z
" style="fill: #ffffff"/>
  </g>
  <g id="axes_1">
   <g id="patch_2">
    <path d="M 56.50625 226.245969 
L 391.30625 226.245969 
L 391.30625 8.805969 
L 56.50625 8.805969 
z
" style="fill: #ffffff"/>
   </g>
   <g id="matplotlib.axis_1">
    <g id="xtick_1">
     <g id="line2d_1">
      <defs>
       <path id="m56c1e68a55" d="M 0 0 
L 0 3.5 
" style="stroke: #000000; stroke-width: 0.8"/>
      </defs>
      <g>
       <use xlink:href="#m56c1e68a55" x="71.724432" y="226.245969" style="stroke: #000000; stroke-width: 0.8"/>
      </g>
     </g>
     <g id="text_1">
      <!-- 0.00 -->
      <g transform="translate(60.591619 240.844406) scale(0.1 -0.1)">
       <defs>
        <path id="DejaVuSans-30" d="M 2034 4250 
Q 1547 4250 1301 3770 
Q 1056 3291 1056 2328 
Q 1056 1369 1301 889 
Q 1547 409 2034 409 
Q 2525 409 2770 889 
Q 3016 1369 3016 2328 
Q 3016 3291 2770 3770 
Q 2525 4250 2034 4250 
z
M 2034 4750 
Q 2819 4750 3233 4129 
Q 3647 3509 3647 2328 
Q 3647 1150 3233 529 
Q 2819 -91 2034 -91 
Q 1250 -91 836 529 
Q 422 1150 422 2328 
Q 422 3509 836 4129 
Q 1250 4750 2034 4750 
z
" transform="scale(0.015625)"/>
        <path id="DejaVuSans-2e" d="M 684 794 
L 1344 794 
L 1344 0 
L 684 0 
L 684 794 
z
" transform="scale(0.015625)"/>
       </defs>
       <use xlink:href="#DejaVuSans-30"/>
       <use xlink:href="#DejaVuSans-2e" x="63.623047"/>
       <use xlink:href="#DejaVuSans-30" x="95.410156"/>
       <use xlink:href="#DejaVuSans-30" x="159.033203"/>
      </g>
     </g>
    </g>
    <g id="xtick_2">
     <g id="line2d_2">
      <g>
       <use xlink:href="#m56c1e68a55" x="124.200921" y="226.245969" style="stroke: #000000; stroke-width: 0.8"/>
      </g>
     </g>
     <g id="text_2">
      <!-- 0.05 -->
      <g transform="translate(113.068108 240.844406) scale(0.1 -0.1)">
       <defs>
        <path id="DejaVuSans-35" d="M 691 4666 
L 3169 4666 
L 3169 4134 
L 1269 4134 
L 1269 2991 
Q 1406 3038 1543 3061 
Q 1681 3084 1819 3084 
Q 2600 3084 3056 2656 
Q 3513 2228 3513 1497 
Q 3513 744 3044 326 
Q 2575 -91 1722 -91 
Q 1428 -91 1123 -41 
Q 819 9 494 109 
L 494 744 
Q 775 591 1075 516 
Q 1375 441 1709 441 
Q 2250 441 2565 725 
Q 2881 1009 2881 1497 
Q 2881 1984 2565 2268 
Q 2250 2553 1709 2553 
Q 1456 2553 1204 2497 
Q 953 2441 691 2322 
L 691 4666 
z
" transform="scale(0.015625)"/>
       </defs>
       <use xlink:href="#DejaVuSans-30"/>
       <use xlink:href="#DejaVuSans-2e" x="63.623047"/>
       <use xlink:href="#DejaVuSans-30" x="95.410156"/>
       <use xlink:href="#DejaVuSans-35" x="159.033203"/>
      </g>
     </g>
    </g>
    <g id="xtick_3">
     <g id="line2d_3">
      <g>
       <use xlink:href="#m56c1e68a55" x="176.67741" y="226.245969" style="stroke: #000000; stroke-width: 0.8"/>
      </g>
     </g>
     <g id="text_3">
      <!-- 0.10 -->
      <g transform="translate(165.544597 240.844406) scale(0.1 -0.1)">
       <defs>
        <path id="DejaVuSans-31" d="M 794 531 
L 1825 531 
L 1825 4091 
L 703 3866 
L 703 4441 
L 1819 4666 
L 2450 4666 
L 2450 531 
L 3481 531 
L 3481 0 
L 794 0 
L 794 531 
z
" transform="scale(0.015625)"/>
       </defs>
       <use xlink:href="#DejaVuSans-30"/>
       <use xlink:href="#DejaVuSans-2e" x="63.623047"/>
       <use xlink:href="#DejaVuSans-31" x="95.410156"/>
       <use xlink:href="#DejaVuSans-30" x="159.033203"/>
      </g>
     </g>
    </g>
    <g id="xtick_4">
     <g id="line2d_4">
      <g>
       <use xlink:href="#m56c1e68a55" x="229.153899" y="226.245969" style="stroke: #000000; stroke-width: 0.8"/>
      </g>
     </g>
     <g id="text_4">
      <!-- 0.15 -->
      <g transform="translate(218.021086 240.844406) scale(0.1 -0.1)">
       <use xlink:href="#DejaVuSans-30"/>
       <use xlink:href="#DejaVuSans-2e" x="63.623047"/>
       <use xlink:href="#DejaVuSans-31" x="95.410156"/>
       <use xlink:href="#DejaVuSans-35" x="159.033203"/>
      </g>
     </g>
    </g>
    <g id="xtick_5">
     <g id="line2d_5">
      <g>
       <use xlink:href="#m56c1e68a55" x="281.630388" y="226.245969" style="stroke: #000000; stroke-width: 0.8"/>
      </g>
     </g>
     <g id="text_5">
      <!-- 0.20 -->
      <g transform="translate(270.497575 240.844406) scale(0.1 -0.1)">
       <defs>
        <path id="DejaVuSans-32" d="M 1228 531 
L 3431 531 
L 3431 0 
L 469 0 
L 469 531 
Q 828 903 1448 1529 
Q 2069 2156 2228 2338 
Q 2531 2678 2651 2914 
Q 2772 3150 2772 3378 
Q 2772 3750 2511 3984 
Q 2250 4219 1831 4219 
Q 1534 4219 1204 4116 
Q 875 4013 500 3803 
L 500 4441 
Q 881 4594 1212 4672 
Q 1544 4750 1819 4750 
Q 2544 4750 2975 4387 
Q 3406 4025 3406 3419 
Q 3406 3131 3298 2873 
Q 3191 2616 2906 2266 
Q 2828 2175 2409 1742 
Q 1991 1309 1228 531 
z
" transform="scale(0.015625)"/>
       </defs>
       <use xlink:href="#DejaVuSans-30"/>
       <use xlink:href="#DejaVuSans-2e" x="63.623047"/>
       <use xlink:href="#DejaVuSans-32" x="95.410156"/>
       <use xlink:href="#DejaVuSans-30" x="159.033203"/>
      </g>
     </g>
    </g>
    <g id="xtick_6">
     <g id="line2d_6">
      <g>
       <use xlink:href="#m56c1e68a55" x="334.106877" y="226.245969" style="stroke: #000000; stroke-width: 0.8"/>
      </g>
     </g>
     <g id="text_6">
      <!-- 0.25 -->
      <g transform="translate(322.974064 240.844406) scale(0.1 -0.1)">
       <use xlink:href="#DejaVuSans-30"/>
       <use xlink:href="#DejaVuSans-2e" x="63.623047"/>
       <use xlink:href="#DejaVuSans-32" x="95.410156"/>
       <use xlink:href="#DejaVuSans-35" x="159.033203"/>
      </g>
     </g>
    </g>
    <g id="xtick_7">
     <g id="line2d_7">
      <g>
       <use xlink:href="#m56c1e68a55" x="386.583366" y="226.245969" style="stroke: #000000; stroke-width: 0.8"/>
      </g>
     </g>
     <g id="text_7">
      <!-- 0.30 -->
      <g transform="translate(375.450553 240.844406) scale(0.1 -0.1)">
       <defs>
        <path id="DejaVuSans-33" d="M 2597 2516 
Q 3050 2419 3304 2112 
Q 3559 1806 3559 1356 
Q 3559 666 3084 287 
Q 2609 -91 1734 -91 
Q 1441 -91 1130 -33 
Q 819 25 488 141 
L 488 750 
Q 750 597 1062 519 
Q 1375 441 1716 441 
Q 2309 441 2620 675 
Q 2931 909 2931 1356 
Q 2931 1769 2642 2001 
Q 2353 2234 1838 2234 
L 1294 2234 
L 1294 2753 
L 1863 2753 
Q 2328 2753 2575 2939 
Q 2822 3125 2822 3475 
Q 2822 3834 2567 4026 
Q 2313 4219 1838 4219 
Q 1578 4219 1281 4162 
Q 984 4106 628 3988 
L 628 4550 
Q 988 4650 1302 4700 
Q 1616 4750 1894 4750 
Q 2613 4750 3031 4423 
Q 3450 4097 3450 3541 
Q 3450 3153 3228 2886 
Q 3006 2619 2597 2516 
z
" transform="scale(0.015625)"/>
       </defs>
       <use xlink:href="#DejaVuSans-30"/>
       <use xlink:href="#DejaVuSans-2e" x="63.623047"/>
       <use xlink:href="#DejaVuSans-33" x="95.410156"/>
       <use xlink:href="#DejaVuSans-30" x="159.033203"/>
      </g>
     </g>
    </g>
    <g id="text_8">
     <!-- z (m) -->
     <g transform="translate(210.921094 254.522531) scale(0.1 -0.1)">
      <defs>
       <path id="DejaVuSans-7a" d="M 353 3500 
L 3084 3500 
L 3084 2975 
L 922 459 
L 3084 459 
L 3084 0 
L 275 0 
L 275 525 
L 2438 3041 
L 353 3041 
L 353 3500 
z
" transform="scale(0.015625)"/>
       <path id="DejaVuSans-20" transform="scale(0.015625)"/>
       <path id="DejaVuSans-28" d="M 1984 4856 
Q 1566 4138 1362 3434 
Q 1159 2731 1159 2009 
Q 1159 1288 1364 580 
Q 1569 -128 1984 -844 
L 1484 -844 
Q 1016 -109 783 600 
Q 550 1309 550 2009 
Q 550 2706 781 3412 
Q 1013 4119 1484 4856 
L 1984 4856 
z
" transform="scale(0.015625)"/>
       <path id="DejaVuSans-6d" d="M 3328 2828 
Q 3544 3216 3844 3400 
Q 4144 3584 4550 3584 
Q 5097 3584 5394 3201 
Q 5691 2819 5691 2113 
L 5691 0 
L 5113 0 
L 5113 2094 
Q 5113 2597 4934 2840 
Q 4756 3084 4391 3084 
Q 3944 3084 3684 2787 
Q 3425 2491 3425 1978 
L 3425 0 
L 2847 0 
L 2847 2094 
Q 2847 2600 2669 2842 
Q 2491 3084 2119 3084 
Q 1678 3084 1418 2786 
Q 1159 2488 1159 1978 
L 1159 0 
L 581 0 
L 581 3500 
L 1159 3500 
L 1159 2956 
Q 1356 3278 1631 3431 
Q 1906 3584 2284 3584 
Q 2666 3584 2933 3390 
Q 3200 3197 3328 2828 
z
" transform="scale(0.015625)"/>
       <path id="DejaVuSans-29" d="M 513 4856 
L 1013 4856 
Q 1481 4119 1714 3412 
Q 1947 2706 1947 2009 
Q 1947 1309 1714 600 
Q 1481 -109 1013 -844 
L 513 -844 
Q 928 -128 1133 580 
Q 1338 1288 1338 2009 
Q 1338 2731 1133 3434 
Q 928 4138 513 4856 
z
" transform="scale(0.015625)"/>
      </defs>
      <use xlink:href="#DejaVuSans-7a"/>
      <use xlink:href="#DejaVuSans-20" x="52.490234"/>
      <use xlink:href="#DejaVuSans-28" x="84.277344"/>
      <use xlink:href="#DejaVuSans-6d" x="123.291016"/>
      <use xlink:href="#DejaVuSans-29" x="220.703125"/>
     </g>
    </g>
   </g>
   <g id="matplotlib.axis_2">
    <g id="ytick_1">
     <g id="line2d_8">
      <defs>
       <path id="m513582e5e1" d="M 0 0 
L -3.5 0 
" style="stroke: #000000; stroke-width: 0.8"/>
      </defs>
      <g>
       <use xlink:href="#m513582e5e1" x="56.50625" y="216.44451" style="stroke: #000000; stroke-width: 0.8"/>
      </g>
     </g>
     <g id="text_9">
      <!-- 0.000 -->
      <g transform="translate(20.878125 220.243729) scale(0.1 -0.1)">
       <use xlink:href="#DejaVuSans-30"/>
       <use xlink:href="#DejaVuSans-2e" x="63.623047"/>
       <use xlink:href="#DejaVuSans-30" x="95.410156"/>
       <use xlink:href="#DejaVuSans-30" x="159.033203"/>
       <use xlink:href="#DejaVuSans-30" x="222.65625"/>
      </g>
     </g>
    </g>
    <g id="ytick_2">
     <g id="line2d_9">
      <g>
       <use xlink:href="#m513582e5e1" x="56.50625" y="175.355452" style="stroke: #000000; stroke-width: 0.8"/>
      </g>
     </g>
     <g id="text_10">
      <!-- 0.005 -->
      <g transform="translate(20.878125 179.154671) scale(0.1 -0.1)">
       <use xlink:href="#DejaVuSans-30"/>
       <use xlink:href="#DejaVuSans-2e" x="63.623047"/>
       <use xlink:href="#DejaVuSans-30" x="95.410156"/>
       <use xlink:href="#DejaVuSans-30" x="159.033203"/>
       <use xlink:href="#DejaVuSans-35" x="222.65625"/>
      </g>
     </g>
    </g>
    <g id="ytick_3">
     <g id="line2d_10">
      <g>
       <use xlink:href="#m513582e5e1" x="56.50625" y="134.266394" style="stroke: #000000; stroke-width: 0.8"/>
      </g>
     </g>
     <g id="text_11">
      <!-- 0.010 -->
      <g transform="translate(20.878125 138.065612) scale(0.1 -0.1)">
       <use xlink:href="#DejaVuSans-30"/>
       <use xlink:href="#DejaVuSans-2e" x="63.623047"/>
       <use xlink:href="#DejaVuSans-30" x="95.410156"/>
       <use xlink:href="#DejaVuSans-31" x="159.033203"/>
       <use xlink:href="#DejaVuSans-30" x="222.65625"/>
      </g>
     </g>
    </g>
    <g id="ytick_4">
     <g id="line2d_11">
      <g>
       <use xlink:href="#m513582e5e1" x="56.50625" y="93.177335" style="stroke: #000000; stroke-width: 0.8"/>
      </g>
     </g>
     <g id="text_12">
      <!-- 0.015 -->
      <g transform="translate(20.878125 96.976554) scale(0.1 -0.1)">
       <use xlink:href="#DejaVuSans-30"/>
       <use xlink:href="#DejaVuSans-2e" x="63.623047"/>
       <use xlink:href="#DejaVuSans-30" x="95.410156"/>
       <use xlink:href="#DejaVuSans-31" x="159.033203"/>
       <use xlink:href="#DejaVuSans-35" x="222.65625"/>
      </g>
     </g>
    </g>
    <g id="ytick_5">
     <g id="line2d_12">
      <g>
       <use xlink:href="#m513582e5e1" x="56.50625" y="52.088277" style="stroke: #000000; stroke-width: 0.8"/>
      </g>
     </g>
     <g id="text_13">
      <!-- 0.020 -->
      <g transform="translate(20.878125 55.887496) scale(0.1 -0.1)">
       <use xlink:href="#DejaVuSans-30"/>
       <use xlink:href="#DejaVuSans-2e" x="63.623047"/>
       <use xlink:href="#DejaVuSans-30" x="95.410156"/>
       <use xlink:href="#DejaVuSans-32" x="159.033203"/>
       <use xlink:href="#DejaVuSans-30" x="222.65625"/>
      </g>
     </g>
    </g>
    <g id="ytick_6">
     <g id="line2d_13">
      <g>
       <use xlink:href="#m513582e5e1" x="56.50625" y="10.999219" style="stroke: #000000; stroke-width: 0.8"/>
      </g>
     </g>
     <g id="text_14">
      <!-- 0.025 -->
      <g transform="translate(20.878125 14.798437) scale(0.1 -0.1)">
       <use xlink:href="#DejaVuSans-30"/>
       <use xlink:href="#DejaVuSans-2e" x="63.623047"/>
       <use xlink:href="#DejaVuSans-30" x="95.410156"/>
       <use xlink:href="#DejaVuSans-32" x="159.033203"/>
       <use xlink:href="#DejaVuSans-35" x="222.65625"/>
      </g>
     </g>
    </g>
    <g id="text_15">
     <!-- Concentrations: H2 (mol/L) -->
     <g transform="translate(14.798438 184.996281) rotate(-90) scale(0.1 -0.1)">
      <defs>
       <path id="DejaVuSans-43" d="M 4122 4306 
L 4122 3641 
Q 3803 3938 3442 4084 
Q 3081 4231 2675 4231 
Q 1875 4231 1450 3742 
Q 1025 3253 1025 2328 
Q 1025 1406 1450 917 
Q 1875 428 2675 428 
Q 3081 428 3442 575 
Q 3803 722 4122 1019 
L 4122 359 
Q 3791 134 3420 21 
Q 3050 -91 2638 -91 
Q 1578 -91 968 557 
Q 359 1206 359 2328 
Q 359 3453 968 4101 
Q 1578 4750 2638 4750 
Q 3056 4750 3426 4639 
Q 3797 4528 4122 4306 
z
" transform="scale(0.015625)"/>
       <path id="DejaVuSans-6f" d="M 1959 3097 
Q 1497 3097 1228 2736 
Q 959 2375 959 1747 
Q 959 1119 1226 758 
Q 1494 397 1959 397 
Q 2419 397 2687 759 
Q 2956 1122 2956 1747 
Q 2956 2369 2687 2733 
Q 2419 3097 1959 3097 
z
M 1959 3584 
Q 2709 3584 3137 3096 
Q 3566 2609 3566 1747 
Q 3566 888 3137 398 
Q 2709 -91 1959 -91 
Q 1206 -91 779 398 
Q 353 888 353 1747 
Q 353 2609 779 3096 
Q 1206 3584 1959 3584 
z
" transform="scale(0.015625)"/>
       <path id="DejaVuSans-6e" d="M 3513 2113 
L 3513 0 
L 2938 0 
L 2938 2094 
Q 2938 2591 2744 2837 
Q 2550 3084 2163 3084 
Q 1697 3084 1428 2787 
Q 1159 2491 1159 1978 
L 1159 0 
L 581 0 
L 581 3500 
L 1159 3500 
L 1159 2956 
Q 1366 3272 1645 3428 
Q 1925 3584 2291 3584 
Q 2894 3584 3203 3211 
Q 3513 2838 3513 2113 
z
" transform="scale(0.015625)"/>
       <path id="DejaVuSans-63" d="M 3122 3366 
L 3122 2828 
Q 2878 2963 2633 3030 
Q 2388 3097 2138 3097 
Q 1578 3097 1268 2742 
Q 959 2388 959 1747 
Q 959 1106 1268 751 
Q 1578 397 2138 397 
Q 2388 397 2633 464 
Q 2878 531 3122 666 
L 3122 134 
Q 2881 22 2623 -34 
Q 2366 -91 2075 -91 
Q 1284 -91 818 406 
Q 353 903 353 1747 
Q 353 2603 823 3093 
Q 1294 3584 2113 3584 
Q 2378 3584 2631 3529 
Q 2884 3475 3122 3366 
z
" transform="scale(0.015625)"/>
       <path id="DejaVuSans-65" d="M 3597 1894 
L 3597 1613 
L 953 1613 
Q 991 1019 1311 708 
Q 1631 397 2203 397 
Q 2534 397 2845 478 
Q 3156 559 3463 722 
L 3463 178 
Q 3153 47 2828 -22 
Q 2503 -91 2169 -91 
Q 1331 -91 842 396 
Q 353 884 353 1716 
Q 353 2575 817 3079 
Q 1281 3584 2069 3584 
Q 2775 3584 3186 3129 
Q 3597 2675 3597 1894 
z
M 3022 2063 
Q 3016 2534 2758 2815 
Q 2500 3097 2075 3097 
Q 1594 3097 1305 2825 
Q 1016 2553 972 2059 
L 3022 2063 
z
" transform="scale(0.015625)"/>
       <path id="DejaVuSans-74" d="M 1172 4494 
L 1172 3500 
L 2356 3500 
L 2356 3053 
L 1172 3053 
L 1172 1153 
Q 1172 725 1289 603 
Q 1406 481 1766 481 
L 2356 481 
L 2356 0 
L 1766 0 
Q 1100 0 847 248 
Q 594 497 594 1153 
L 594 3053 
L 172 3053 
L 172 3500 
L 594 3500 
L 594 4494 
L 1172 4494 
z
" transform="scale(0.015625)"/>
       <path id="DejaVuSans-72" d="M 2631 2963 
Q 2534 3019 2420 3045 
Q 2306 3072 2169 3072 
Q 1681 3072 1420 2755 
Q 1159 2438 1159 1844 
L 1159 0 
L 581 0 
L 581 3500 
L 1159 3500 
L 1159 2956 
Q 1341 3275 1631 3429 
Q 1922 3584 2338 3584 
Q 2397 3584 2469 3576 
Q 2541 3569 2628 3553 
L 2631 2963 
z
" transform="scale(0.015625)"/>
       <path id="DejaVuSans-61" d="M 2194 1759 
Q 1497 1759 1228 1600 
Q 959 1441 959 1056 
Q 959 750 1161 570 
Q 1363 391 1709 391 
Q 2188 391 2477 730 
Q 2766 1069 2766 1631 
L 2766 1759 
L 2194 1759 
z
M 3341 1997 
L 3341 0 
L 2766 0 
L 2766 531 
Q 2569 213 2275 61 
Q 1981 -91 1556 -91 
Q 1019 -91 701 211 
Q 384 513 384 1019 
Q 384 1609 779 1909 
Q 1175 2209 1959 2209 
L 2766 2209 
L 2766 2266 
Q 2766 2663 2505 2880 
Q 2244 3097 1772 3097 
Q 1472 3097 1187 3025 
Q 903 2953 641 2809 
L 641 3341 
Q 956 3463 1253 3523 
Q 1550 3584 1831 3584 
Q 2591 3584 2966 3190 
Q 3341 2797 3341 1997 
z
" transform="scale(0.015625)"/>
       <path id="DejaVuSans-69" d="M 603 3500 
L 1178 3500 
L 1178 0 
L 603 0 
L 603 3500 
z
M 603 4863 
L 1178 4863 
L 1178 4134 
L 603 4134 
L 603 4863 
z
" transform="scale(0.015625)"/>
       <path id="DejaVuSans-73" d="M 2834 3397 
L 2834 2853 
Q 2591 2978 2328 3040 
Q 2066 3103 1784 3103 
Q 1356 3103 1142 2972 
Q 928 2841 928 2578 
Q 928 2378 1081 2264 
Q 1234 2150 1697 2047 
L 1894 2003 
Q 2506 1872 2764 1633 
Q 3022 1394 3022 966 
Q 3022 478 2636 193 
Q 2250 -91 1575 -91 
Q 1294 -91 989 -36 
Q 684 19 347 128 
L 347 722 
Q 666 556 975 473 
Q 1284 391 1588 391 
Q 1994 391 2212 530 
Q 2431 669 2431 922 
Q 2431 1156 2273 1281 
Q 2116 1406 1581 1522 
L 1381 1569 
Q 847 1681 609 1914 
Q 372 2147 372 2553 
Q 372 3047 722 3315 
Q 1072 3584 1716 3584 
Q 2034 3584 2315 3537 
Q 2597 3491 2834 3397 
z
" transform="scale(0.015625)"/>
       <path id="DejaVuSans-3a" d="M 750 794 
L 1409 794 
L 1409 0 
L 750 0 
L 750 794 
z
M 750 3309 
L 1409 3309 
L 1409 2516 
L 750 2516 
L 750 3309 
z
" transform="scale(0.015625)"/>
       <path id="DejaVuSans-48" d="M 628 4666 
L 1259 4666 
L 1259 2753 
L 3553 2753 
L 3553 4666 
L 4184 4666 
L 4184 0 
L 3553 0 
L 3553 2222 
L 1259 2222 
L 1259 0 
L 628 0 
L 628 4666 
z
" transform="scale(0.015625)"/>
       <path id="DejaVuSans-6c" d="M 603 4863 
L 1178 4863 
L 1178 0 
L 603 0 
L 603 4863 
z
" transform="scale(0.015625)"/>
       <path id="DejaVuSans-2f" d="M 1625 4666 
L 2156 4666 
L 531 -594 
L 0 -594 
L 1625 4666 
z
" transform="scale(0.015625)"/>
       <path id="DejaVuSans-4c" d="M 628 4666 
L 1259 4666 
L 1259 531 
L 3531 531 
L 3531 0 
L 628 0 
L 628 4666 
z
" transform="scale(0.015625)"/>
      </defs>
      <use xlink:href="#DejaVuSans-43"/>
      <use xlink:href="#DejaVuSans-6f" x="69.824219"/>
      <use xlink:href="#DejaVuSans-6e" x="131.005859"/>
      <use xlink:href="#DejaVuSans-63" x="194.384766"/>
      <use xlink:href="#DejaVuSans-65" x="249.365234"/>
      <use xlink:href="#DejaVuSans-6e" x="310.888672"/>
      <use xlink:href="#DejaVuSans-74" x="374.267578"/>
      <use xlink:href="#DejaVuSans-72" x="413.476562"/>
      <use xlink:href="#DejaVuSans-61" x="454.589844"/>
      <use xlink:href="#DejaVuSans-74" x="515.869141"/>
      <use xlink:href="#DejaVuSans-69" x="555.078125"/>
      <use xlink:href="#DejaVuSans-6f" x="582.861328"/>
      <use xlink:href="#DejaVuSans-6e" x="644.042969"/>
      <use xlink:href="#DejaVuSans-73" x="707.421875"/>
      <use xlink:href="#DejaVuSans-3a" x="759.521484"/>
      <use xlink:href="#DejaVuSans-20" x="793.212891"/>
      <use xlink:href="#DejaVuSans-48" x="825"/>
      <use xlink:href="#DejaVuSans-32" x="900.195312"/>
      <use xlink:href="#DejaVuSans-20" x="963.818359"/>
      <use xlink:href="#DejaVuSans-28" x="995.605469"/>
      <use xlink:href="#DejaVuSans-6d" x="1034.619141"/>
      <use xlink:href="#DejaVuSans-6f" x="1132.03125"/>
      <use xlink:href="#DejaVuSans-6c" x="1193.212891"/>
      <use xlink:href="#DejaVuSans-2f" x="1220.996094"/>
      <use xlink:href="#DejaVuSans-4c" x="1254.6875"/>
      <use xlink:href="#DejaVuSans-29" x="1310.400391"/>
     </g>
    </g>
   </g>
   <g id="line2d_14">
    <path d="M 71.724432 216.362332 
L 71.724443 215.669382 
L 71.724454 215.496542 
L 71.724507 214.991528 
L 71.724599 214.467878 
L 71.724915 213.446616 
L 71.725425 212.446245 
L 71.726875 210.705798 
L 71.729972 208.461557 
L 71.741871 203.781119 
L 71.753569 200.84885 
L 71.786419 195.290917 
L 71.899527 184.484361 
L 72.002225 178.177047 
L 72.279951 166.747303 
L 72.630874 157.222635 
L 73.178376 146.988024 
L 73.926321 137.293144 
L 74.925352 128.127451 
L 76.204175 119.671727 
L 77.788631 111.997622 
L 79.70348 105.129652 
L 81.987895 99.037984 
L 84.715797 93.652478 
L 88.036512 88.866639 
L 92.312161 84.495367 
L 98.068741 80.481925 
L 103.825321 77.664336 
L 110.983833 75.020922 
L 120.110842 72.309074 
L 131.247471 69.419727 
L 142.384099 66.725683 
L 152.431721 64.387396 
L 162.296777 62.155779 
L 172.430303 59.922614 
L 182.671273 57.723756 
L 192.943858 55.574957 
L 203.275983 53.469815 
L 213.690924 51.403561 
L 224.190191 49.376084 
L 234.773018 47.38772 
L 245.443441 45.437906 
L 256.207175 43.52585 
L 267.069177 41.650987 
L 278.033952 39.812905 
L 289.106412 38.011196 
L 300.292057 36.245432 
L 311.596766 34.515213 
L 323.026664 32.82019 
L 334.5882 31.160056 
L 346.288282 29.534535 
L 358.134353 27.943377 
L 370.134393 26.386368 
L 376.088068 25.634176 
" clip-path="url(#paedceea9c8)" style="fill: none; stroke: #1f77b4; stroke-linecap: square"/>
   </g>
   <g id="line2d_15">
    <path d="M 71.724432 216.362332 
L 71.72444 215.670049 
L 71.724448 215.497008 
L 71.724488 214.992731 
L 71.724557 214.467632 
L 71.724792 213.44868 
L 71.725175 212.439424 
L 71.726253 210.697619 
L 71.728631 208.385013 
L 71.737819 203.559848 
L 71.746689 200.583331 
L 71.771525 194.922552 
L 71.844334 185.104258 
L 71.926026 177.982313 
L 72.116245 166.923115 
L 72.366421 157.285137 
L 72.746677 147.236978 
L 73.268242 137.734862 
L 73.967729 128.815359 
L 74.873988 120.608098 
L 76.016547 113.147367 
L 77.424023 106.43344 
L 79.128531 100.437802 
L 81.173038 95.112174 
L 83.625567 90.392084 
L 86.609842 86.193127 
L 90.39348 82.384807 
L 95.932485 78.580004 
L 102.070677 75.670986 
L 108.902047 73.211387 
L 118.245213 70.420271 
L 127.320237 67.966523 
L 136.395262 65.623482 
L 145.448603 63.351437 
L 154.270881 61.186328 
L 163.046181 59.075906 
L 171.845747 57.00091 
L 180.65107 54.964804 
L 189.45088 52.969334 
L 198.248398 51.01294 
L 207.046698 49.094191 
L 215.845669 47.212407 
L 224.644587 45.36705 
L 233.443225 43.557484 
L 242.24147 41.783064 
L 251.038973 40.043203 
L 259.835185 38.337364 
L 268.62947 36.665032 
L 277.421133 35.02571 
L 286.209392 33.41892 
L 294.993374 31.844206 
L 303.772131 30.301126 
L 312.544654 28.789252 
L 321.309888 27.308164 
L 330.066735 25.85745 
L 338.814064 24.436703 
L 347.550727 23.045521 
L 356.275565 21.683501 
L 364.987423 20.350243 
L 373.685158 19.045342 
L 376.088068 18.689605 
" clip-path="url(#paedceea9c8)" style="fill: none; stroke: #ff7f0e; stroke-linecap: square"/>
   </g>
   <g id="line2d_16">
    <path d="M 71.724432 216.362332 
L 71.724437 215.670801 
L 71.724443 215.497233 
L 71.724469 214.993958 
L 71.724515 214.464832 
L 71.724669 213.449313 
L 71.724926 212.417459 
L 71.725634 210.667184 
L 71.72733 208.16632 
L 71.731372 204.587803 
L 71.740518 199.664503 
L 71.762171 192.591946 
L 71.797155 185.27926 
L 71.87093 175.320827 
L 71.972098 166.322164 
L 72.129338 156.830468 
L 72.349951 147.794292 
L 72.654943 139.256246 
L 73.065539 131.351286 
L 73.607879 124.106299 
L 74.311001 117.520396 
L 75.20585 111.576785 
L 76.323954 106.250272 
L 77.697248 101.506681 
L 79.360378 97.301789 
L 81.357431 93.581828 
L 83.7558 90.284753 
L 86.673564 87.33823 
L 90.346012 84.64403 
L 95.393907 81.998078 
L 102.575267 79.282865 
L 109.756626 77.099731 
L 118.929602 74.600455 
L 126.23915 72.705918 
L 133.548697 70.856421 
L 141.162534 68.965057 
L 148.668987 67.130999 
L 156.045162 65.356554 
L 163.372758 63.620148 
L 170.670614 61.916325 
L 177.923471 60.247796 
L 185.124696 58.61517 
L 192.277483 57.016822 
L 199.384593 55.451296 
L 206.445787 53.917849 
L 213.460207 52.41589 
L 220.427789 50.944678 
L 227.348883 49.503407 
L 234.223649 48.091338 
L 241.052023 46.707802 
L 247.833951 45.352146 
L 254.569497 44.023714 
L 261.25878 42.721861 
L 267.90191 41.445961 
L 274.498992 40.19541 
L 281.050167 38.969614 
L 287.55563 37.767988 
L 294.015612 36.589957 
L 300.430368 35.43496 
L 306.800181 34.302447 
L 313.125363 33.191879 
L 319.406263 32.102727 
L 325.643263 31.034473 
L 331.836767 29.98661 
L 337.9872 28.958641 
L 344.095011 27.950082 
L 350.16067 26.960459 
L 356.184669 25.989307 
L 362.167512 25.036175 
L 368.109717 24.10062 
L 374.011813 23.182212 
L 376.088068 22.861977 
" clip-path="url(#paedceea9c8)" style="fill: none; stroke: #2ca02c; stroke-linecap: square"/>
   </g>
   <g id="line2d_17">
    <path d="M 71.724432 216.362332 
L 71.724436 215.669652 
L 71.72444 215.495009 
L 71.724459 214.991093 
L 71.724494 214.452898 
L 71.724607 213.437477 
L 71.724804 212.359085 
L 71.72533 210.578018 
L 71.726902 207.514338 
L 71.729211 204.660197 
L 71.734493 200.310553 
L 71.746347 194.048931 
L 71.770511 185.981878 
L 71.806783 178.057697 
L 71.864462 169.604696 
L 71.947694 161.414332 
L 72.066105 153.566667 
L 72.230843 146.212901 
L 72.457288 139.39163 
L 72.765096 133.113844 
L 73.17833 127.38112 
L 73.72467 122.196565 
L 74.433921 117.562129 
L 75.336045 113.470938 
L 76.459458 109.899645 
L 77.830852 106.804958 
L 79.478052 104.126431 
L 81.437036 101.794256 
L 83.763833 99.737546 
L 86.553421 97.88752 
L 89.972821 96.171833 
L 94.336381 94.493634 
L 100.320764 92.676472 
L 108.477369 90.589673 
L 115.273237 88.98633 
L 122.069105 87.436404 
L 128.8763 85.915739 
L 135.462724 84.4676 
L 141.900877 83.071554 
L 148.296301 81.702821 
L 154.654746 80.359363 
L 160.940907 79.047904 
L 167.143639 77.769904 
L 173.275219 76.52201 
L 179.345854 75.301446 
L 185.354485 74.107789 
L 191.296677 72.94129 
L 197.172228 71.801357 
L 202.984522 70.686733 
L 208.736243 69.596342 
L 214.427716 68.52959 
L 220.058539 67.486037 
L 225.629424 66.465048 
L 231.142144 65.465819 
L 236.598323 64.487602 
L 241.998778 63.529813 
L 247.343981 62.591951 
L 252.634783 61.673461 
L 257.872527 60.773722 
L 263.058567 59.892132 
L 268.193879 59.028169 
L 273.279181 58.181373 
L 278.315314 57.351274 
L 283.303411 56.537371 
L 288.244679 55.739162 
L 293.140119 54.956197 
L 297.990503 54.188074 
L 302.796608 53.4344 
L 307.559396 52.694766 
L 312.279941 51.968756 
L 316.959209 51.255983 
L 321.597965 50.556101 
L 326.196899 49.868785 
L 330.756811 49.1937 
L 335.278637 48.530502 
L 339.763285 47.878861 
L 344.211494 47.238478 
L 348.62387 46.609081 
L 353.001064 45.9904 
L 357.343866 45.382151 
L 361.653111 44.784051 
L 365.929512 44.195842 
L 370.173616 43.617294 
L 374.385942 43.048186 
L 376.088068 42.820016 
" clip-path="url(#paedceea9c8)" style="fill: none; stroke: #d62728; stroke-linecap: square"/>
   </g>
   <g id="line2d_18">
    <path d="M 71.724432 216.362332 
L 71.724435 215.667195 
L 71.724439 215.491437 
L 71.724456 214.985517 
L 71.724487 214.437396 
L 71.724587 213.418078 
L 71.724767 212.289532 
L 71.725235 210.466271 
L 71.726894 206.864946 
L 71.728817 204.180314 
L 71.733701 199.537625 
L 71.746171 192.157323 
L 71.763287 185.584708 
L 71.793847 177.720413 
L 71.837564 170.233435 
L 71.90141 162.90514 
L 71.991674 155.982306 
L 72.118268 149.497194 
L 72.294381 143.469895 
L 72.53741 137.906666 
L 72.86903 132.820594 
L 73.31473 128.231627 
L 73.902522 124.159878 
L 74.660923 120.614906 
L 75.616741 117.585306 
L 76.793724 115.032705 
L 78.21356 112.893496 
L 79.900357 111.088415 
L 81.888835 109.535562 
L 84.236139 108.160163 
L 87.037588 106.896949 
L 90.452947 105.683126 
L 94.753435 104.443247 
L 100.405884 103.065406 
L 108.380094 101.332694 
L 114.672888 100.037999 
L 120.965682 98.774802 
L 127.38173 97.508824 
L 133.502271 96.318555 
L 139.35239 95.195506 
L 145.155058 94.095058 
L 150.999099 93.000081 
L 156.798413 91.926598 
L 162.463489 90.890496 
L 168.004131 89.889006 
L 173.484537 88.909791 
L 178.935092 87.947035 
L 184.329443 87.005064 
L 189.631879 86.089611 
L 194.842275 85.200079 
L 199.989753 84.330961 
L 205.09499 83.478392 
L 210.149559 82.643468 
L 215.132129 81.829336 
L 220.036906 81.036493 
L 224.880043 80.2619 
L 229.680001 79.502276 
L 234.437361 78.757269 
L 239.137117 78.028946 
L 243.769008 77.318559 
L 248.34093 76.624548 
L 252.87034 75.943973 
L 257.364827 75.275475 
L 261.814702 74.620288 
L 266.206077 73.980204 
L 270.538833 73.354953 
L 274.828182 72.742079 
L 279.088103 72.139392 
L 283.315897 71.547121 
L 287.496041 70.967259 
L 291.61957 70.400823 
L 295.696283 69.846226 
L 299.74501 69.300725 
L 303.772682 68.763261 
L 307.766261 68.235458 
L 311.708132 67.719474 
L 315.598125 67.21512 
L 319.455867 66.719661 
L 323.299654 66.230633 
L 327.125247 65.748502 
L 330.909777 65.276045 
L 334.638766 64.814897 
L 338.32523 64.363254 
L 341.997144 63.917552 
L 345.666083 63.476333 
L 349.312187 63.041943 
L 352.905673 62.617817 
L 356.442989 62.204189 
L 359.954192 61.797371 
L 363.470844 61.393637 
L 366.9889 60.993452 
L 370.469731 60.601171 
L 373.884224 60.219935 
L 376.088068 59.97615 
" clip-path="url(#paedceea9c8)" style="fill: none; stroke: #9467bd; stroke-linecap: square"/>
   </g>
   <g id="patch_3">
    <path d="M 56.50625 226.245969 
L 56.50625 8.805969 
" style="fill: none; stroke: #000000; stroke-width: 0.8; stroke-linejoin: miter; stroke-linecap: square"/>
   </g>
   <g id="patch_4">
    <path d="M 56.50625 226.245969 
L 391.30625 226.245969 
" style="fill: none; stroke: #000000; stroke-width: 0.8; stroke-linejoin: miter; stroke-linecap: square"/>
   </g>
   <g id="legend_1">
    <g id="line2d_19">
     <path d="M 287.376563 152.953781 
L 297.376563 152.953781 
L 307.376563 152.953781 
" style="fill: none; stroke: #1f77b4; stroke-linecap: square"/>
    </g>
    <g id="text_16">
     <!-- H20/CH4: 3.0 -->
     <g transform="translate(315.376563 156.453781) scale(0.1 -0.1)">
      <defs>
       <path id="DejaVuSans-34" d="M 2419 4116 
L 825 1625 
L 2419 1625 
L 2419 4116 
z
M 2253 4666 
L 3047 4666 
L 3047 1625 
L 3713 1625 
L 3713 1100 
L 3047 1100 
L 3047 0 
L 2419 0 
L 2419 1100 
L 313 1100 
L 313 1709 
L 2253 4666 
z
" transform="scale(0.015625)"/>
      </defs>
      <use xlink:href="#DejaVuSans-48"/>
      <use xlink:href="#DejaVuSans-32" x="75.195312"/>
      <use xlink:href="#DejaVuSans-30" x="138.818359"/>
      <use xlink:href="#DejaVuSans-2f" x="202.441406"/>
      <use xlink:href="#DejaVuSans-43" x="236.132812"/>
      <use xlink:href="#DejaVuSans-48" x="305.957031"/>
      <use xlink:href="#DejaVuSans-34" x="381.152344"/>
      <use xlink:href="#DejaVuSans-3a" x="444.775391"/>
      <use xlink:href="#DejaVuSans-20" x="478.466797"/>
      <use xlink:href="#DejaVuSans-33" x="510.253906"/>
      <use xlink:href="#DejaVuSans-2e" x="573.876953"/>
      <use xlink:href="#DejaVuSans-30" x="605.664062"/>
     </g>
    </g>
    <g id="line2d_20">
     <path d="M 287.376563 167.631906 
L 297.376563 167.631906 
L 307.376563 167.631906 
" style="fill: none; stroke: #ff7f0e; stroke-linecap: square"/>
    </g>
    <g id="text_17">
     <!-- H20/CH4: 2.0 -->
     <g transform="translate(315.376563 171.131906) scale(0.1 -0.1)">
      <use xlink:href="#DejaVuSans-48"/>
      <use xlink:href="#DejaVuSans-32" x="75.195312"/>
      <use xlink:href="#DejaVuSans-30" x="138.818359"/>
      <use xlink:href="#DejaVuSans-2f" x="202.441406"/>
      <use xlink:href="#DejaVuSans-43" x="236.132812"/>
      <use xlink:href="#DejaVuSans-48" x="305.957031"/>
      <use xlink:href="#DejaVuSans-34" x="381.152344"/>
      <use xlink:href="#DejaVuSans-3a" x="444.775391"/>
      <use xlink:href="#DejaVuSans-20" x="478.466797"/>
      <use xlink:href="#DejaVuSans-32" x="510.253906"/>
      <use xlink:href="#DejaVuSans-2e" x="573.876953"/>
      <use xlink:href="#DejaVuSans-30" x="605.664062"/>
     </g>
    </g>
    <g id="line2d_21">
     <path d="M 287.376563 182.310031 
L 297.376563 182.310031 
L 307.376563 182.310031 
" style="fill: none; stroke: #2ca02c; stroke-linecap: square"/>
    </g>
    <g id="text_18">
     <!-- H20/CH4: 1.0 -->
     <g transform="translate(315.376563 185.810031) scale(0.1 -0.1)">
      <use xlink:href="#DejaVuSans-48"/>
      <use xlink:href="#DejaVuSans-32" x="75.195312"/>
      <use xlink:href="#DejaVuSans-30" x="138.818359"/>
      <use xlink:href="#DejaVuSans-2f" x="202.441406"/>
      <use xlink:href="#DejaVuSans-43" x="236.132812"/>
      <use xlink:href="#DejaVuSans-48" x="305.957031"/>
      <use xlink:href="#DejaVuSans-34" x="381.152344"/>
      <use xlink:href="#DejaVuSans-3a" x="444.775391"/>
      <use xlink:href="#DejaVuSans-20" x="478.466797"/>
      <use xlink:href="#DejaVuSans-31" x="510.253906"/>
      <use xlink:href="#DejaVuSans-2e" x="573.876953"/>
      <use xlink:href="#DejaVuSans-30" x="605.664062"/>
     </g>
    </g>
    <g id="line2d_22">
     <path d="M 287.376563 196.988156 
L 297.376563 196.988156 
L 307.376563 196.988156 
" style="fill: none; stroke: #d62728; stroke-linecap: square"/>
    </g>
    <g id="text_19">
     <!-- H20/CH4: 0.5 -->
     <g transform="translate(315.376563 200.488156) scale(0.1 -0.1)">
      <use xlink:href="#DejaVuSans-48"/>
      <use xlink:href="#DejaVuSans-32" x="75.195312"/>
      <use xlink:href="#DejaVuSans-30" x="138.818359"/>
      <use xlink:href="#DejaVuSans-2f" x="202.441406"/>
      <use xlink:href="#DejaVuSans-43" x="236.132812"/>
      <use xlink:href="#DejaVuSans-48" x="305.957031"/>
      <use xlink:href="#DejaVuSans-34" x="381.152344"/>
      <use xlink:href="#DejaVuSans-3a" x="444.775391"/>
      <use xlink:href="#DejaVuSans-20" x="478.466797"/>
      <use xlink:href="#DejaVuSans-30" x="510.253906"/>
      <use xlink:href="#DejaVuSans-2e" x="573.876953"/>
      <use xlink:href="#DejaVuSans-35" x="605.664062"/>
     </g>
    </g>
    <g id="line2d_23">
     <path d="M 287.376563 211.666281 
L 297.376563 211.666281 
L 307.376563 211.666281 
" style="fill: none; stroke: #9467bd; stroke-linecap: square"/>
    </g>
    <g id="text_20">
     <!-- H20/CH4: 0.3 -->
     <g transform="translate(315.376563 215.166281) scale(0.1 -0.1)">
      <use xlink:href="#DejaVuSans-48"/>
      <use xlink:href="#DejaVuSans-32" x="75.195312"/>
      <use xlink:href="#DejaVuSans-30" x="138.818359"/>
      <use xlink:href="#DejaVuSans-2f" x="202.441406"/>
      <use xlink:href="#DejaVuSans-43" x="236.132812"/>
      <use xlink:href="#DejaVuSans-48" x="305.957031"/>
      <use xlink:href="#DejaVuSans-34" x="381.152344"/>
      <use xlink:href="#DejaVuSans-3a" x="444.775391"/>
      <use xlink:href="#DejaVuSans-20" x="478.466797"/>
      <use xlink:href="#DejaVuSans-30" x="510.253906"/>
      <use xlink:href="#DejaVuSans-2e" x="573.876953"/>
      <use xlink:href="#DejaVuSans-33" x="605.664062"/>
     </g>
    </g>
   </g>
  </g>
 </g>
 <defs>
  <clipPath id="paedceea9c8">
   <rect x="56.50625" y="8.805969" width="334.8" height="217.44"/>
  </clipPath>
 </defs>
</svg>
