<?xml version="1.0" encoding="utf-8" standalone="no"?>
<!DOCTYPE svg PUBLIC "-//W3C//DTD SVG 1.1//EN"
  "http://www.w3.org/Graphics/SVG/1.1/DTD/svg11.dtd">
<svg xmlns:xlink="http://www.w3.org/1999/xlink" width="395.375553pt" height="278.94025pt" viewBox="0 0 395.375553 278.94025" xmlns="http://www.w3.org/2000/svg" version="1.1">
 <metadata>
  <rdf:RDF xmlns:dc="http://purl.org/dc/elements/1.1/" xmlns:cc="http://creativecommons.org/ns#" xmlns:rdf="http://www.w3.org/1999/02/22-rdf-syntax-ns#">
   <cc:Work>
    <dc:type rdf:resource="http://purl.org/dc/dcmitype/StillImage"/>
    <dc:date>2024-04-07T21:27:50.582374</dc:date>
    <dc:format>image/svg+xml</dc:format>
    <dc:creator>
     <cc:Agent>
      <dc:title>Matplotlib v3.7.2, https://matplotlib.org/</dc:title>
     </cc:Agent>
    </dc:creator>
   </cc:Work>
  </rdf:RDF>
 </metadata>
 <defs>
  <style type="text/css">*{stroke-linejoin: round; stroke-linecap: butt}</style>
 </defs>
 <g id="figure_1">
  <g id="patch_1">
   <path d="M 0 278.94025 
L 395.375553 278.94025 
L 395.375553 0 
L 0 0 
z
" style="fill: #ffffff"/>
  </g>
  <g id="axes_1">
   <g id="patch_2">
    <path d="M 46.965625 241.384 
L 381.765625 241.384 
L 381.765625 23.944 
L 46.965625 23.944 
z
" style="fill: #ffffff"/>
   </g>
   <g id="matplotlib.axis_1">
    <g id="xtick_1">
     <g id="line2d_1">
      <defs>
       <path id="m6d4d5b841d" d="M 0 0 
L 0 3.5 
" style="stroke: #000000; stroke-width: 0.8"/>
      </defs>
      <g>
       <use xlink:href="#m6d4d5b841d" x="62.183807" y="241.384" style="stroke: #000000; stroke-width: 0.8"/>
      </g>
     </g>
     <g id="text_1">
      <!-- 0.00 -->
      <g transform="translate(51.050994 255.982438) scale(0.1 -0.1)">
       <defs>
        <path id="DejaVuSans-30" d="M 2034 4250 
Q 1547 4250 1301 3770 
Q 1056 3291 1056 2328 
Q 1056 1369 1301 889 
Q 1547 409 2034 409 
Q 2525 409 2770 889 
Q 3016 1369 3016 2328 
Q 3016 3291 2770 3770 
Q 2525 4250 2034 4250 
z
M 2034 4750 
Q 2819 4750 3233 4129 
Q 3647 3509 3647 2328 
Q 3647 1150 3233 529 
Q 2819 -91 2034 -91 
Q 1250 -91 836 529 
Q 422 1150 422 2328 
Q 422 3509 836 4129 
Q 1250 4750 2034 4750 
z
" transform="scale(0.015625)"/>
        <path id="DejaVuSans-2e" d="M 684 794 
L 1344 794 
L 1344 0 
L 684 0 
L 684 794 
z
" transform="scale(0.015625)"/>
       </defs>
       <use xlink:href="#DejaVuSans-30"/>
       <use xlink:href="#DejaVuSans-2e" x="63.623047"/>
       <use xlink:href="#DejaVuSans-30" x="95.410156"/>
       <use xlink:href="#DejaVuSans-30" x="159.033203"/>
      </g>
     </g>
    </g>
    <g id="xtick_2">
     <g id="line2d_2">
      <g>
       <use xlink:href="#m6d4d5b841d" x="114.660296" y="241.384" style="stroke: #000000; stroke-width: 0.8"/>
      </g>
     </g>
     <g id="text_2">
      <!-- 0.05 -->
      <g transform="translate(103.527483 255.982438) scale(0.1 -0.1)">
       <defs>
        <path id="DejaVuSans-35" d="M 691 4666 
L 3169 4666 
L 3169 4134 
L 1269 4134 
L 1269 2991 
Q 1406 3038 1543 3061 
Q 1681 3084 1819 3084 
Q 2600 3084 3056 2656 
Q 3513 2228 3513 1497 
Q 3513 744 3044 326 
Q 2575 -91 1722 -91 
Q 1428 -91 1123 -41 
Q 819 9 494 109 
L 494 744 
Q 775 591 1075 516 
Q 1375 441 1709 441 
Q 2250 441 2565 725 
Q 2881 1009 2881 1497 
Q 2881 1984 2565 2268 
Q 2250 2553 1709 2553 
Q 1456 2553 1204 2497 
Q 953 2441 691 2322 
L 691 4666 
z
" transform="scale(0.015625)"/>
       </defs>
       <use xlink:href="#DejaVuSans-30"/>
       <use xlink:href="#DejaVuSans-2e" x="63.623047"/>
       <use xlink:href="#DejaVuSans-30" x="95.410156"/>
       <use xlink:href="#DejaVuSans-35" x="159.033203"/>
      </g>
     </g>
    </g>
    <g id="xtick_3">
     <g id="line2d_3">
      <g>
       <use xlink:href="#m6d4d5b841d" x="167.136785" y="241.384" style="stroke: #000000; stroke-width: 0.8"/>
      </g>
     </g>
     <g id="text_3">
      <!-- 0.10 -->
      <g transform="translate(156.003972 255.982438) scale(0.1 -0.1)">
       <defs>
        <path id="DejaVuSans-31" d="M 794 531 
L 1825 531 
L 1825 4091 
L 703 3866 
L 703 4441 
L 1819 4666 
L 2450 4666 
L 2450 531 
L 3481 531 
L 3481 0 
L 794 0 
L 794 531 
z
" transform="scale(0.015625)"/>
       </defs>
       <use xlink:href="#DejaVuSans-30"/>
       <use xlink:href="#DejaVuSans-2e" x="63.623047"/>
       <use xlink:href="#DejaVuSans-31" x="95.410156"/>
       <use xlink:href="#DejaVuSans-30" x="159.033203"/>
      </g>
     </g>
    </g>
    <g id="xtick_4">
     <g id="line2d_4">
      <g>
       <use xlink:href="#m6d4d5b841d" x="219.613274" y="241.384" style="stroke: #000000; stroke-width: 0.8"/>
      </g>
     </g>
     <g id="text_4">
      <!-- 0.15 -->
      <g transform="translate(208.480461 255.982438) scale(0.1 -0.1)">
       <use xlink:href="#DejaVuSans-30"/>
       <use xlink:href="#DejaVuSans-2e" x="63.623047"/>
       <use xlink:href="#DejaVuSans-31" x="95.410156"/>
       <use xlink:href="#DejaVuSans-35" x="159.033203"/>
      </g>
     </g>
    </g>
    <g id="xtick_5">
     <g id="line2d_5">
      <g>
       <use xlink:href="#m6d4d5b841d" x="272.089763" y="241.384" style="stroke: #000000; stroke-width: 0.8"/>
      </g>
     </g>
     <g id="text_5">
      <!-- 0.20 -->
      <g transform="translate(260.95695 255.982438) scale(0.1 -0.1)">
       <defs>
        <path id="DejaVuSans-32" d="M 1228 531 
L 3431 531 
L 3431 0 
L 469 0 
L 469 531 
Q 828 903 1448 1529 
Q 2069 2156 2228 2338 
Q 2531 2678 2651 2914 
Q 2772 3150 2772 3378 
Q 2772 3750 2511 3984 
Q 2250 4219 1831 4219 
Q 1534 4219 1204 4116 
Q 875 4013 500 3803 
L 500 4441 
Q 881 4594 1212 4672 
Q 1544 4750 1819 4750 
Q 2544 4750 2975 4387 
Q 3406 4025 3406 3419 
Q 3406 3131 3298 2873 
Q 3191 2616 2906 2266 
Q 2828 2175 2409 1742 
Q 1991 1309 1228 531 
z
" transform="scale(0.015625)"/>
       </defs>
       <use xlink:href="#DejaVuSans-30"/>
       <use xlink:href="#DejaVuSans-2e" x="63.623047"/>
       <use xlink:href="#DejaVuSans-32" x="95.410156"/>
       <use xlink:href="#DejaVuSans-30" x="159.033203"/>
      </g>
     </g>
    </g>
    <g id="xtick_6">
     <g id="line2d_6">
      <g>
       <use xlink:href="#m6d4d5b841d" x="324.566252" y="241.384" style="stroke: #000000; stroke-width: 0.8"/>
      </g>
     </g>
     <g id="text_6">
      <!-- 0.25 -->
      <g transform="translate(313.433439 255.982438) scale(0.1 -0.1)">
       <use xlink:href="#DejaVuSans-30"/>
       <use xlink:href="#DejaVuSans-2e" x="63.623047"/>
       <use xlink:href="#DejaVuSans-32" x="95.410156"/>
       <use xlink:href="#DejaVuSans-35" x="159.033203"/>
      </g>
     </g>
    </g>
    <g id="xtick_7">
     <g id="line2d_7">
      <g>
       <use xlink:href="#m6d4d5b841d" x="377.042741" y="241.384" style="stroke: #000000; stroke-width: 0.8"/>
      </g>
     </g>
     <g id="text_7">
      <!-- 0.30 -->
      <g transform="translate(365.909928 255.982438) scale(0.1 -0.1)">
       <defs>
        <path id="DejaVuSans-33" d="M 2597 2516 
Q 3050 2419 3304 2112 
Q 3559 1806 3559 1356 
Q 3559 666 3084 287 
Q 2609 -91 1734 -91 
Q 1441 -91 1130 -33 
Q 819 25 488 141 
L 488 750 
Q 750 597 1062 519 
Q 1375 441 1716 441 
Q 2309 441 2620 675 
Q 2931 909 2931 1356 
Q 2931 1769 2642 2001 
Q 2353 2234 1838 2234 
L 1294 2234 
L 1294 2753 
L 1863 2753 
Q 2328 2753 2575 2939 
Q 2822 3125 2822 3475 
Q 2822 3834 2567 4026 
Q 2313 4219 1838 4219 
Q 1578 4219 1281 4162 
Q 984 4106 628 3988 
L 628 4550 
Q 988 4650 1302 4700 
Q 1616 4750 1894 4750 
Q 2613 4750 3031 4423 
Q 3450 4097 3450 3541 
Q 3450 3153 3228 2886 
Q 3006 2619 2597 2516 
z
" transform="scale(0.015625)"/>
       </defs>
       <use xlink:href="#DejaVuSans-30"/>
       <use xlink:href="#DejaVuSans-2e" x="63.623047"/>
       <use xlink:href="#DejaVuSans-33" x="95.410156"/>
       <use xlink:href="#DejaVuSans-30" x="159.033203"/>
      </g>
     </g>
    </g>
    <g id="text_8">
     <!-- z (m) -->
     <g transform="translate(201.380469 269.660562) scale(0.1 -0.1)">
      <defs>
       <path id="DejaVuSans-7a" d="M 353 3500 
L 3084 3500 
L 3084 2975 
L 922 459 
L 3084 459 
L 3084 0 
L 275 0 
L 275 525 
L 2438 3041 
L 353 3041 
L 353 3500 
z
" transform="scale(0.015625)"/>
       <path id="DejaVuSans-20" transform="scale(0.015625)"/>
       <path id="DejaVuSans-28" d="M 1984 4856 
Q 1566 4138 1362 3434 
Q 1159 2731 1159 2009 
Q 1159 1288 1364 580 
Q 1569 -128 1984 -844 
L 1484 -844 
Q 1016 -109 783 600 
Q 550 1309 550 2009 
Q 550 2706 781 3412 
Q 1013 4119 1484 4856 
L 1984 4856 
z
" transform="scale(0.015625)"/>
       <path id="DejaVuSans-6d" d="M 3328 2828 
Q 3544 3216 3844 3400 
Q 4144 3584 4550 3584 
Q 5097 3584 5394 3201 
Q 5691 2819 5691 2113 
L 5691 0 
L 5113 0 
L 5113 2094 
Q 5113 2597 4934 2840 
Q 4756 3084 4391 3084 
Q 3944 3084 3684 2787 
Q 3425 2491 3425 1978 
L 3425 0 
L 2847 0 
L 2847 2094 
Q 2847 2600 2669 2842 
Q 2491 3084 2119 3084 
Q 1678 3084 1418 2786 
Q 1159 2488 1159 1978 
L 1159 0 
L 581 0 
L 581 3500 
L 1159 3500 
L 1159 2956 
Q 1356 3278 1631 3431 
Q 1906 3584 2284 3584 
Q 2666 3584 2933 3390 
Q 3200 3197 3328 2828 
z
" transform="scale(0.015625)"/>
       <path id="DejaVuSans-29" d="M 513 4856 
L 1013 4856 
Q 1481 4119 1714 3412 
Q 1947 2706 1947 2009 
Q 1947 1309 1714 600 
Q 1481 -109 1013 -844 
L 513 -844 
Q 928 -128 1133 580 
Q 1338 1288 1338 2009 
Q 1338 2731 1133 3434 
Q 928 4138 513 4856 
z
" transform="scale(0.015625)"/>
      </defs>
      <use xlink:href="#DejaVuSans-7a"/>
      <use xlink:href="#DejaVuSans-20" x="52.490234"/>
      <use xlink:href="#DejaVuSans-28" x="84.277344"/>
      <use xlink:href="#DejaVuSans-6d" x="123.291016"/>
      <use xlink:href="#DejaVuSans-29" x="220.703125"/>
     </g>
    </g>
   </g>
   <g id="matplotlib.axis_2">
    <g id="ytick_1">
     <g id="line2d_8">
      <defs>
       <path id="m0fe6cb2357" d="M 0 0 
L -3.5 0 
" style="stroke: #000000; stroke-width: 0.8"/>
      </defs>
      <g>
       <use xlink:href="#m0fe6cb2357" x="46.965625" y="217.772495" style="stroke: #000000; stroke-width: 0.8"/>
      </g>
     </g>
     <g id="text_9">
      <!-- 860 -->
      <g transform="translate(20.878125 221.571714) scale(0.1 -0.1)">
       <defs>
        <path id="DejaVuSans-38" d="M 2034 2216 
Q 1584 2216 1326 1975 
Q 1069 1734 1069 1313 
Q 1069 891 1326 650 
Q 1584 409 2034 409 
Q 2484 409 2743 651 
Q 3003 894 3003 1313 
Q 3003 1734 2745 1975 
Q 2488 2216 2034 2216 
z
M 1403 2484 
Q 997 2584 770 2862 
Q 544 3141 544 3541 
Q 544 4100 942 4425 
Q 1341 4750 2034 4750 
Q 2731 4750 3128 4425 
Q 3525 4100 3525 3541 
Q 3525 3141 3298 2862 
Q 3072 2584 2669 2484 
Q 3125 2378 3379 2068 
Q 3634 1759 3634 1313 
Q 3634 634 3220 271 
Q 2806 -91 2034 -91 
Q 1263 -91 848 271 
Q 434 634 434 1313 
Q 434 1759 690 2068 
Q 947 2378 1403 2484 
z
M 1172 3481 
Q 1172 3119 1398 2916 
Q 1625 2713 2034 2713 
Q 2441 2713 2670 2916 
Q 2900 3119 2900 3481 
Q 2900 3844 2670 4047 
Q 2441 4250 2034 4250 
Q 1625 4250 1398 4047 
Q 1172 3844 1172 3481 
z
" transform="scale(0.015625)"/>
        <path id="DejaVuSans-36" d="M 2113 2584 
Q 1688 2584 1439 2293 
Q 1191 2003 1191 1497 
Q 1191 994 1439 701 
Q 1688 409 2113 409 
Q 2538 409 2786 701 
Q 3034 994 3034 1497 
Q 3034 2003 2786 2293 
Q 2538 2584 2113 2584 
z
M 3366 4563 
L 3366 3988 
Q 3128 4100 2886 4159 
Q 2644 4219 2406 4219 
Q 1781 4219 1451 3797 
Q 1122 3375 1075 2522 
Q 1259 2794 1537 2939 
Q 1816 3084 2150 3084 
Q 2853 3084 3261 2657 
Q 3669 2231 3669 1497 
Q 3669 778 3244 343 
Q 2819 -91 2113 -91 
Q 1303 -91 875 529 
Q 447 1150 447 2328 
Q 447 3434 972 4092 
Q 1497 4750 2381 4750 
Q 2619 4750 2861 4703 
Q 3103 4656 3366 4563 
z
" transform="scale(0.015625)"/>
       </defs>
       <use xlink:href="#DejaVuSans-38"/>
       <use xlink:href="#DejaVuSans-36" x="63.623047"/>
       <use xlink:href="#DejaVuSans-30" x="127.246094"/>
      </g>
     </g>
    </g>
    <g id="ytick_2">
     <g id="line2d_9">
      <g>
       <use xlink:href="#m0fe6cb2357" x="46.965625" y="185.259042" style="stroke: #000000; stroke-width: 0.8"/>
      </g>
     </g>
     <g id="text_10">
      <!-- 880 -->
      <g transform="translate(20.878125 189.058261) scale(0.1 -0.1)">
       <use xlink:href="#DejaVuSans-38"/>
       <use xlink:href="#DejaVuSans-38" x="63.623047"/>
       <use xlink:href="#DejaVuSans-30" x="127.246094"/>
      </g>
     </g>
    </g>
    <g id="ytick_3">
     <g id="line2d_10">
      <g>
       <use xlink:href="#m0fe6cb2357" x="46.965625" y="152.74559" style="stroke: #000000; stroke-width: 0.8"/>
      </g>
     </g>
     <g id="text_11">
      <!-- 900 -->
      <g transform="translate(20.878125 156.544808) scale(0.1 -0.1)">
       <defs>
        <path id="DejaVuSans-39" d="M 703 97 
L 703 672 
Q 941 559 1184 500 
Q 1428 441 1663 441 
Q 2288 441 2617 861 
Q 2947 1281 2994 2138 
Q 2813 1869 2534 1725 
Q 2256 1581 1919 1581 
Q 1219 1581 811 2004 
Q 403 2428 403 3163 
Q 403 3881 828 4315 
Q 1253 4750 1959 4750 
Q 2769 4750 3195 4129 
Q 3622 3509 3622 2328 
Q 3622 1225 3098 567 
Q 2575 -91 1691 -91 
Q 1453 -91 1209 -44 
Q 966 3 703 97 
z
M 1959 2075 
Q 2384 2075 2632 2365 
Q 2881 2656 2881 3163 
Q 2881 3666 2632 3958 
Q 2384 4250 1959 4250 
Q 1534 4250 1286 3958 
Q 1038 3666 1038 3163 
Q 1038 2656 1286 2365 
Q 1534 2075 1959 2075 
z
" transform="scale(0.015625)"/>
       </defs>
       <use xlink:href="#DejaVuSans-39"/>
       <use xlink:href="#DejaVuSans-30" x="63.623047"/>
       <use xlink:href="#DejaVuSans-30" x="127.246094"/>
      </g>
     </g>
    </g>
    <g id="ytick_4">
     <g id="line2d_11">
      <g>
       <use xlink:href="#m0fe6cb2357" x="46.965625" y="120.232137" style="stroke: #000000; stroke-width: 0.8"/>
      </g>
     </g>
     <g id="text_12">
      <!-- 920 -->
      <g transform="translate(20.878125 124.031356) scale(0.1 -0.1)">
       <use xlink:href="#DejaVuSans-39"/>
       <use xlink:href="#DejaVuSans-32" x="63.623047"/>
       <use xlink:href="#DejaVuSans-30" x="127.246094"/>
      </g>
     </g>
    </g>
    <g id="ytick_5">
     <g id="line2d_12">
      <g>
       <use xlink:href="#m0fe6cb2357" x="46.965625" y="87.718684" style="stroke: #000000; stroke-width: 0.8"/>
      </g>
     </g>
     <g id="text_13">
      <!-- 940 -->
      <g transform="translate(20.878125 91.517903) scale(0.1 -0.1)">
       <defs>
        <path id="DejaVuSans-34" d="M 2419 4116 
L 825 1625 
L 2419 1625 
L 2419 4116 
z
M 2253 4666 
L 3047 4666 
L 3047 1625 
L 3713 1625 
L 3713 1100 
L 3047 1100 
L 3047 0 
L 2419 0 
L 2419 1100 
L 313 1100 
L 313 1709 
L 2253 4666 
z
" transform="scale(0.015625)"/>
       </defs>
       <use xlink:href="#DejaVuSans-39"/>
       <use xlink:href="#DejaVuSans-34" x="63.623047"/>
       <use xlink:href="#DejaVuSans-30" x="127.246094"/>
      </g>
     </g>
    </g>
    <g id="ytick_6">
     <g id="line2d_13">
      <g>
       <use xlink:href="#m0fe6cb2357" x="46.965625" y="55.205232" style="stroke: #000000; stroke-width: 0.8"/>
      </g>
     </g>
     <g id="text_14">
      <!-- 960 -->
      <g transform="translate(20.878125 59.00445) scale(0.1 -0.1)">
       <use xlink:href="#DejaVuSans-39"/>
       <use xlink:href="#DejaVuSans-36" x="63.623047"/>
       <use xlink:href="#DejaVuSans-30" x="127.246094"/>
      </g>
     </g>
    </g>
    <g id="text_15">
     <!-- Temperature (K) -->
     <g transform="translate(14.798438 173.103062) rotate(-90) scale(0.1 -0.1)">
      <defs>
       <path id="DejaVuSans-54" d="M -19 4666 
L 3928 4666 
L 3928 4134 
L 2272 4134 
L 2272 0 
L 1638 0 
L 1638 4134 
L -19 4134 
L -19 4666 
z
" transform="scale(0.015625)"/>
       <path id="DejaVuSans-65" d="M 3597 1894 
L 3597 1613 
L 953 1613 
Q 991 1019 1311 708 
Q 1631 397 2203 397 
Q 2534 397 2845 478 
Q 3156 559 3463 722 
L 3463 178 
Q 3153 47 2828 -22 
Q 2503 -91 2169 -91 
Q 1331 -91 842 396 
Q 353 884 353 1716 
Q 353 2575 817 3079 
Q 1281 3584 2069 3584 
Q 2775 3584 3186 3129 
Q 3597 2675 3597 1894 
z
M 3022 2063 
Q 3016 2534 2758 2815 
Q 2500 3097 2075 3097 
Q 1594 3097 1305 2825 
Q 1016 2553 972 2059 
L 3022 2063 
z
" transform="scale(0.015625)"/>
       <path id="DejaVuSans-70" d="M 1159 525 
L 1159 -1331 
L 581 -1331 
L 581 3500 
L 1159 3500 
L 1159 2969 
Q 1341 3281 1617 3432 
Q 1894 3584 2278 3584 
Q 2916 3584 3314 3078 
Q 3713 2572 3713 1747 
Q 3713 922 3314 415 
Q 2916 -91 2278 -91 
Q 1894 -91 1617 61 
Q 1341 213 1159 525 
z
M 3116 1747 
Q 3116 2381 2855 2742 
Q 2594 3103 2138 3103 
Q 1681 3103 1420 2742 
Q 1159 2381 1159 1747 
Q 1159 1113 1420 752 
Q 1681 391 2138 391 
Q 2594 391 2855 752 
Q 3116 1113 3116 1747 
z
" transform="scale(0.015625)"/>
       <path id="DejaVuSans-72" d="M 2631 2963 
Q 2534 3019 2420 3045 
Q 2306 3072 2169 3072 
Q 1681 3072 1420 2755 
Q 1159 2438 1159 1844 
L 1159 0 
L 581 0 
L 581 3500 
L 1159 3500 
L 1159 2956 
Q 1341 3275 1631 3429 
Q 1922 3584 2338 3584 
Q 2397 3584 2469 3576 
Q 2541 3569 2628 3553 
L 2631 2963 
z
" transform="scale(0.015625)"/>
       <path id="DejaVuSans-61" d="M 2194 1759 
Q 1497 1759 1228 1600 
Q 959 1441 959 1056 
Q 959 750 1161 570 
Q 1363 391 1709 391 
Q 2188 391 2477 730 
Q 2766 1069 2766 1631 
L 2766 1759 
L 2194 1759 
z
M 3341 1997 
L 3341 0 
L 2766 0 
L 2766 531 
Q 2569 213 2275 61 
Q 1981 -91 1556 -91 
Q 1019 -91 701 211 
Q 384 513 384 1019 
Q 384 1609 779 1909 
Q 1175 2209 1959 2209 
L 2766 2209 
L 2766 2266 
Q 2766 2663 2505 2880 
Q 2244 3097 1772 3097 
Q 1472 3097 1187 3025 
Q 903 2953 641 2809 
L 641 3341 
Q 956 3463 1253 3523 
Q 1550 3584 1831 3584 
Q 2591 3584 2966 3190 
Q 3341 2797 3341 1997 
z
" transform="scale(0.015625)"/>
       <path id="DejaVuSans-74" d="M 1172 4494 
L 1172 3500 
L 2356 3500 
L 2356 3053 
L 1172 3053 
L 1172 1153 
Q 1172 725 1289 603 
Q 1406 481 1766 481 
L 2356 481 
L 2356 0 
L 1766 0 
Q 1100 0 847 248 
Q 594 497 594 1153 
L 594 3053 
L 172 3053 
L 172 3500 
L 594 3500 
L 594 4494 
L 1172 4494 
z
" transform="scale(0.015625)"/>
       <path id="DejaVuSans-75" d="M 544 1381 
L 544 3500 
L 1119 3500 
L 1119 1403 
Q 1119 906 1312 657 
Q 1506 409 1894 409 
Q 2359 409 2629 706 
Q 2900 1003 2900 1516 
L 2900 3500 
L 3475 3500 
L 3475 0 
L 2900 0 
L 2900 538 
Q 2691 219 2414 64 
Q 2138 -91 1772 -91 
Q 1169 -91 856 284 
Q 544 659 544 1381 
z
M 1991 3584 
L 1991 3584 
z
" transform="scale(0.015625)"/>
       <path id="DejaVuSans-4b" d="M 628 4666 
L 1259 4666 
L 1259 2694 
L 3353 4666 
L 4166 4666 
L 1850 2491 
L 4331 0 
L 3500 0 
L 1259 2247 
L 1259 0 
L 628 0 
L 628 4666 
z
" transform="scale(0.015625)"/>
      </defs>
      <use xlink:href="#DejaVuSans-54"/>
      <use xlink:href="#DejaVuSans-65" x="44.083984"/>
      <use xlink:href="#DejaVuSans-6d" x="105.607422"/>
      <use xlink:href="#DejaVuSans-70" x="203.019531"/>
      <use xlink:href="#DejaVuSans-65" x="266.496094"/>
      <use xlink:href="#DejaVuSans-72" x="328.019531"/>
      <use xlink:href="#DejaVuSans-61" x="369.132812"/>
      <use xlink:href="#DejaVuSans-74" x="430.412109"/>
      <use xlink:href="#DejaVuSans-75" x="469.621094"/>
      <use xlink:href="#DejaVuSans-72" x="533"/>
      <use xlink:href="#DejaVuSans-65" x="571.863281"/>
      <use xlink:href="#DejaVuSans-20" x="633.386719"/>
      <use xlink:href="#DejaVuSans-28" x="665.173828"/>
      <use xlink:href="#DejaVuSans-4b" x="704.1875"/>
      <use xlink:href="#DejaVuSans-29" x="769.763672"/>
     </g>
    </g>
   </g>
   <g id="line2d_14">
    <path d="M 62.183807 33.827636 
L 62.183818 34.738886 
L 62.183829 34.967951 
L 62.183882 35.639994 
L 62.183974 36.34103 
L 62.18429 37.720468 
L 62.1848 39.086741 
L 62.18625 41.498359 
L 62.189347 44.669658 
L 62.201246 51.493243 
L 62.212944 55.896357 
L 62.245794 64.488503 
L 62.358902 81.987193 
L 62.4616 92.587658 
L 62.739326 112.334109 
L 63.090249 129.094952 
L 63.637751 147.059298 
L 64.385696 163.552329 
L 65.384727 178.096635 
L 66.66355 190.067191 
L 68.248006 199.343849 
L 70.162855 206.171116 
L 72.44727 211.000912 
L 75.175172 214.294175 
L 78.495887 216.38545 
L 82.771536 217.392858 
L 88.528116 217.072909 
L 94.284696 215.65607 
L 101.443208 213.086367 
L 110.570217 209.227163 
L 121.706846 204.255823 
L 132.843474 199.290891 
L 142.891096 194.897849 
L 152.756152 190.684866 
L 162.889678 186.463375 
L 173.130648 182.30416 
L 183.403233 178.236881 
L 193.735358 174.248288 
L 204.150299 170.327831 
L 214.649566 166.47369 
L 225.232393 162.684913 
L 235.902816 158.958886 
L 246.66655 155.292584 
L 257.528552 151.683438 
L 268.493327 148.129199 
L 279.565787 144.627644 
L 290.751432 141.176533 
L 302.056141 137.773685 
L 313.486039 134.417027 
L 325.047575 131.104571 
L 336.747657 127.834384 
L 348.593728 124.604578 
L 360.593768 121.413318 
L 366.547443 119.858245 
" clip-path="url(#p898209bda7)" style="fill: none; stroke: #1f77b4; stroke-linecap: square"/>
   </g>
   <g id="line2d_15">
    <path d="M 62.183807 33.827636 
L 62.183815 34.746025 
L 62.183823 34.977583 
L 62.183863 35.655477 
L 62.183932 36.36609 
L 62.184167 37.758685 
L 62.18455 39.155058 
L 62.185628 41.60359 
L 62.188006 44.925962 
L 62.197194 52.101883 
L 62.206064 56.672654 
L 62.2309 65.638059 
L 62.303709 81.909634 
L 62.385401 94.174547 
L 62.57562 113.795648 
L 62.825796 131.252441 
L 63.206052 149.499491 
L 63.727617 166.396394 
L 64.427104 181.44723 
L 65.333363 194.101615 
L 66.475922 204.191492 
L 67.883398 211.835307 
L 69.587906 217.358306 
L 71.632413 221.171392 
L 74.084942 223.661268 
L 77.069217 225.106941 
L 80.852855 225.613538 
L 86.39186 224.916702 
L 92.530052 223.07537 
L 99.361422 220.384898 
L 108.704588 216.285788 
L 117.779612 212.200144 
L 126.854637 208.153342 
L 135.907978 204.196472 
L 144.730256 200.427732 
L 153.505556 196.765651 
L 162.305122 193.178469 
L 171.110445 189.671688 
L 179.910255 186.247227 
L 188.707773 182.901198 
L 197.506073 179.629953 
L 206.305044 176.431173 
L 215.103962 173.302841 
L 223.9026 170.242836 
L 232.700845 167.249076 
L 241.498348 164.319639 
L 250.29456 161.45274 
L 259.088845 158.646684 
L 267.880508 155.899858 
L 276.668767 153.21073 
L 285.452749 150.57785 
L 294.231506 147.99984 
L 303.004029 145.475388 
L 311.769263 143.003236 
L 320.52611 140.582183 
L 329.273439 138.211073 
L 338.010102 135.888797 
L 346.73494 133.614281 
L 355.446798 131.386487 
L 364.144533 129.204408 
L 366.547443 128.608067 
" clip-path="url(#p898209bda7)" style="fill: none; stroke: #ff7f0e; stroke-linecap: square"/>
   </g>
   <g id="line2d_16">
    <path d="M 62.183807 33.827636 
L 62.183812 34.761763 
L 62.183818 34.998899 
L 62.183844 35.690579 
L 62.18389 36.424104 
L 62.184044 37.849763 
L 62.184301 39.321204 
L 62.185009 41.867442 
L 62.186705 45.607588 
L 62.190747 51.147729 
L 62.199893 59.08594 
L 62.221546 71.025754 
L 62.25653 83.90932 
L 62.330305 102.13667 
L 62.431473 119.102893 
L 62.588713 137.305994 
L 62.809326 154.695788 
L 63.114318 170.893316 
L 63.524914 185.351011 
L 64.067254 197.784456 
L 64.770376 208.053984 
L 65.665225 216.159846 
L 66.783329 222.227491 
L 68.156623 226.489316 
L 69.819753 229.248971 
L 71.816806 230.827253 
L 74.215175 231.500364 
L 77.132939 231.446528 
L 80.805387 230.701625 
L 85.853282 229.049583 
L 93.034642 226.104392 
L 100.216001 222.888106 
L 109.388977 218.710003 
L 116.698525 215.413277 
L 124.008072 212.175082 
L 131.621909 208.870197 
L 139.128362 205.679966 
L 146.504537 202.609913 
L 153.832133 199.62221 
L 161.129989 196.706452 
L 168.382846 193.866103 
L 175.584071 191.101003 
L 182.736858 188.407262 
L 189.843968 185.781352 
L 196.905162 183.221007 
L 203.919582 180.724278 
L 210.887164 178.28902 
L 217.808258 175.913042 
L 224.683024 173.594319 
L 231.511398 171.330988 
L 238.293326 169.121263 
L 245.028872 166.963401 
L 251.718155 164.855715 
L 258.361285 162.796597 
L 264.958367 160.784508 
L 271.509542 158.817965 
L 278.015005 156.895532 
L 284.474987 155.015825 
L 290.889743 153.177509 
L 297.259556 151.379302 
L 303.584738 149.619961 
L 309.865638 147.898289 
L 316.102638 146.213129 
L 322.296142 144.563363 
L 328.446575 142.947915 
L 334.554386 141.365745 
L 340.620045 139.815849 
L 346.644044 138.297258 
L 352.626887 136.809036 
L 358.569092 135.350281 
L 364.471188 133.920124 
L 366.547443 133.42047 
" clip-path="url(#p898209bda7)" style="fill: none; stroke: #2ca02c; stroke-linecap: square"/>
   </g>
   <g id="line2d_17">
    <path d="M 62.183807 33.827636 
L 62.183811 34.78161 
L 62.183815 35.026167 
L 62.183834 35.737865 
L 62.183869 36.507462 
L 62.183982 37.985306 
L 62.184179 39.589334 
L 62.184705 42.310922 
L 62.186277 47.180711 
L 62.188586 51.901436 
L 62.193868 59.383789 
L 62.205722 70.65119 
L 62.229886 85.830545 
L 62.266158 101.281831 
L 62.323837 118.185565 
L 62.407069 134.828145 
L 62.52548 150.865207 
L 62.690218 165.805754 
L 62.916663 179.398097 
L 63.224471 191.466002 
L 63.637705 201.879885 
L 64.184045 210.545183 
L 64.893296 217.41926 
L 65.79542 222.535733 
L 66.918833 226.02169 
L 68.290227 228.094238 
L 69.937427 229.02926 
L 71.896411 229.108727 
L 74.223208 228.565913 
L 77.012796 227.546876 
L 80.432196 226.091106 
L 84.795756 224.112316 
L 90.780139 221.325752 
L 98.936744 217.520402 
L 105.732612 214.39146 
L 112.52848 211.31712 
L 119.335675 208.295561 
L 125.922099 205.42669 
L 132.360252 202.673534 
L 138.755676 199.987546 
L 145.114121 197.364043 
L 151.400282 194.81507 
L 157.603014 192.342316 
L 163.734594 189.938239 
L 169.805229 187.59652 
L 175.81386 185.315432 
L 181.756052 183.094572 
L 187.631603 180.931997 
L 193.443897 178.824572 
L 199.195618 176.769565 
L 204.887091 174.765204 
L 210.517914 172.81005 
L 216.088799 170.902347 
L 221.601519 169.040068 
L 227.057698 167.221328 
L 232.458153 165.444593 
L 237.803356 163.708505 
L 243.094158 162.011646 
L 248.331902 160.352505 
L 253.517942 158.729632 
L 258.653254 157.141755 
L 263.738556 155.587734 
L 268.774689 154.066436 
L 273.762786 152.576689 
L 278.704054 151.117347 
L 283.599494 149.687368 
L 288.449878 148.285816 
L 293.255983 146.911789 
L 298.018771 145.564368 
L 302.739316 144.242637 
L 307.418584 142.945742 
L 312.05734 141.672917 
L 316.656274 140.423442 
L 321.216186 139.196592 
L 325.738012 137.991633 
L 330.22266 136.807864 
L 334.670869 135.64465 
L 339.083245 134.501411 
L 343.460439 133.377576 
L 347.803241 132.272557 
L 352.112486 131.185774 
L 356.388887 130.116695 
L 360.632991 129.064845 
L 364.845317 128.029771 
L 366.547443 127.612977 
" clip-path="url(#p898209bda7)" style="fill: none; stroke: #d62728; stroke-linecap: square"/>
   </g>
   <g id="line2d_18">
    <path d="M 62.183807 33.827636 
L 62.18381 34.795363 
L 62.183814 35.045437 
L 62.183831 35.773247 
L 62.183862 36.574419 
L 62.183962 38.097661 
L 62.184142 39.830551 
L 62.18461 42.723396 
L 62.186269 48.7274 
L 62.188192 53.406787 
L 62.193076 61.830157 
L 62.205546 75.88265 
L 62.222662 88.899542 
L 62.253222 104.920255 
L 62.296939 120.488674 
L 62.360785 135.908471 
L 62.451049 150.529037 
L 62.577643 164.155237 
L 62.753756 176.627827 
L 62.996785 187.82683 
L 63.328405 197.630706 
L 63.774105 205.922788 
L 64.361897 212.614414 
L 65.120298 217.67655 
L 66.076116 221.167631 
L 67.253099 223.244703 
L 68.672935 224.146874 
L 70.359732 224.151042 
L 72.34821 223.515662 
L 74.695514 222.434821 
L 77.496963 221.015197 
L 80.912322 219.270396 
L 85.21281 217.117943 
L 90.865259 214.363702 
L 98.839469 210.586739 
L 105.132263 207.675851 
L 111.425057 204.819273 
L 117.841105 201.959046 
L 123.961646 199.276915 
L 129.811765 196.754269 
L 135.614433 194.290874 
L 141.458474 191.847907 
L 147.257788 189.460134 
L 152.922864 187.161672 
L 158.463506 184.945438 
L 163.943912 182.78351 
L 169.394467 180.662455 
L 174.788818 178.591097 
L 180.091254 176.581306 
L 185.30165 174.631188 
L 190.449128 172.728242 
L 195.554365 170.863613 
L 200.608934 169.039255 
L 205.591504 167.26158 
L 210.496281 165.531293 
L 215.339418 163.841496 
L 220.139376 162.184796 
L 224.896736 160.560156 
L 229.596492 158.971792 
L 234.228383 157.422179 
L 238.800305 155.907744 
L 243.329715 154.421957 
L 247.824202 152.961705 
L 252.274077 151.529496 
L 256.665452 150.129072 
L 260.998208 148.759731 
L 265.287557 147.416052 
L 269.547478 146.093183 
L 273.775272 144.791517 
L 277.955416 143.515307 
L 282.078945 142.2667 
L 286.155658 141.042201 
L 290.204385 139.835768 
L 294.232057 138.645031 
L 298.225636 137.473487 
L 302.167507 136.32584 
L 306.0575 135.20167 
L 309.915242 134.094955 
L 313.759029 133.000228 
L 317.584622 131.91848 
L 321.369152 130.855843 
L 325.098141 129.815961 
L 328.784605 128.794854 
L 332.456519 127.784587 
L 336.125458 126.781866 
L 339.771562 125.791925 
L 343.365048 124.822496 
L 346.902364 123.874163 
L 350.413567 122.938661 
L 353.930219 122.00753 
L 357.448275 121.081787 
L 360.929106 120.171359 
L 364.343599 119.283469 
L 366.547443 118.71196 
" clip-path="url(#p898209bda7)" style="fill: none; stroke: #9467bd; stroke-linecap: square"/>
   </g>
   <g id="patch_3">
    <path d="M 46.965625 241.384 
L 46.965625 23.944 
" style="fill: none; stroke: #000000; stroke-width: 0.8; stroke-linejoin: miter; stroke-linecap: square"/>
   </g>
   <g id="patch_4">
    <path d="M 46.965625 241.384 
L 381.765625 241.384 
" style="fill: none; stroke: #000000; stroke-width: 0.8; stroke-linejoin: miter; stroke-linecap: square"/>
   </g>
   <g id="legend_1">
    <g id="line2d_19">
     <path d="M 277.835938 15.298437 
L 287.835938 15.298437 
L 297.835938 15.298437 
" style="fill: none; stroke: #1f77b4; stroke-linecap: square"/>
    </g>
    <g id="text_16">
     <!-- H20/CH4: 3.0 -->
     <g transform="translate(305.835938 18.798437) scale(0.1 -0.1)">
      <defs>
       <path id="DejaVuSans-48" d="M 628 4666 
L 1259 4666 
L 1259 2753 
L 3553 2753 
L 3553 4666 
L 4184 4666 
L 4184 0 
L 3553 0 
L 3553 2222 
L 1259 2222 
L 1259 0 
L 628 0 
L 628 4666 
z
" transform="scale(0.015625)"/>
       <path id="DejaVuSans-2f" d="M 1625 4666 
L 2156 4666 
L 531 -594 
L 0 -594 
L 1625 4666 
z
" transform="scale(0.015625)"/>
       <path id="DejaVuSans-43" d="M 4122 4306 
L 4122 3641 
Q 3803 3938 3442 4084 
Q 3081 4231 2675 4231 
Q 1875 4231 1450 3742 
Q 1025 3253 1025 2328 
Q 1025 1406 1450 917 
Q 1875 428 2675 428 
Q 3081 428 3442 575 
Q 3803 722 4122 1019 
L 4122 359 
Q 3791 134 3420 21 
Q 3050 -91 2638 -91 
Q 1578 -91 968 557 
Q 359 1206 359 2328 
Q 359 3453 968 4101 
Q 1578 4750 2638 4750 
Q 3056 4750 3426 4639 
Q 3797 4528 4122 4306 
z
" transform="scale(0.015625)"/>
       <path id="DejaVuSans-3a" d="M 750 794 
L 1409 794 
L 1409 0 
L 750 0 
L 750 794 
z
M 750 3309 
L 1409 3309 
L 1409 2516 
L 750 2516 
L 750 3309 
z
" transform="scale(0.015625)"/>
      </defs>
      <use xlink:href="#DejaVuSans-48"/>
      <use xlink:href="#DejaVuSans-32" x="75.195312"/>
      <use xlink:href="#DejaVuSans-30" x="138.818359"/>
      <use xlink:href="#DejaVuSans-2f" x="202.441406"/>
      <use xlink:href="#DejaVuSans-43" x="236.132812"/>
      <use xlink:href="#DejaVuSans-48" x="305.957031"/>
      <use xlink:href="#DejaVuSans-34" x="381.152344"/>
      <use xlink:href="#DejaVuSans-3a" x="444.775391"/>
      <use xlink:href="#DejaVuSans-20" x="478.466797"/>
      <use xlink:href="#DejaVuSans-33" x="510.253906"/>
      <use xlink:href="#DejaVuSans-2e" x="573.876953"/>
      <use xlink:href="#DejaVuSans-30" x="605.664062"/>
     </g>
    </g>
    <g id="line2d_20">
     <path d="M 277.835938 29.976562 
L 287.835938 29.976562 
L 297.835938 29.976562 
" style="fill: none; stroke: #ff7f0e; stroke-linecap: square"/>
    </g>
    <g id="text_17">
     <!-- H20/CH4: 2.0 -->
     <g transform="translate(305.835938 33.476562) scale(0.1 -0.1)">
      <use xlink:href="#DejaVuSans-48"/>
      <use xlink:href="#DejaVuSans-32" x="75.195312"/>
      <use xlink:href="#DejaVuSans-30" x="138.818359"/>
      <use xlink:href="#DejaVuSans-2f" x="202.441406"/>
      <use xlink:href="#DejaVuSans-43" x="236.132812"/>
      <use xlink:href="#DejaVuSans-48" x="305.957031"/>
      <use xlink:href="#DejaVuSans-34" x="381.152344"/>
      <use xlink:href="#DejaVuSans-3a" x="444.775391"/>
      <use xlink:href="#DejaVuSans-20" x="478.466797"/>
      <use xlink:href="#DejaVuSans-32" x="510.253906"/>
      <use xlink:href="#DejaVuSans-2e" x="573.876953"/>
      <use xlink:href="#DejaVuSans-30" x="605.664062"/>
     </g>
    </g>
    <g id="line2d_21">
     <path d="M 277.835938 44.654687 
L 287.835938 44.654687 
L 297.835938 44.654687 
" style="fill: none; stroke: #2ca02c; stroke-linecap: square"/>
    </g>
    <g id="text_18">
     <!-- H20/CH4: 1.0 -->
     <g transform="translate(305.835938 48.154687) scale(0.1 -0.1)">
      <use xlink:href="#DejaVuSans-48"/>
      <use xlink:href="#DejaVuSans-32" x="75.195312"/>
      <use xlink:href="#DejaVuSans-30" x="138.818359"/>
      <use xlink:href="#DejaVuSans-2f" x="202.441406"/>
      <use xlink:href="#DejaVuSans-43" x="236.132812"/>
      <use xlink:href="#DejaVuSans-48" x="305.957031"/>
      <use xlink:href="#DejaVuSans-34" x="381.152344"/>
      <use xlink:href="#DejaVuSans-3a" x="444.775391"/>
      <use xlink:href="#DejaVuSans-20" x="478.466797"/>
      <use xlink:href="#DejaVuSans-31" x="510.253906"/>
      <use xlink:href="#DejaVuSans-2e" x="573.876953"/>
      <use xlink:href="#DejaVuSans-30" x="605.664062"/>
     </g>
    </g>
    <g id="line2d_22">
     <path d="M 277.835938 59.332812 
L 287.835938 59.332812 
L 297.835938 59.332812 
" style="fill: none; stroke: #d62728; stroke-linecap: square"/>
    </g>
    <g id="text_19">
     <!-- H20/CH4: 0.5 -->
     <g transform="translate(305.835938 62.832812) scale(0.1 -0.1)">
      <use xlink:href="#DejaVuSans-48"/>
      <use xlink:href="#DejaVuSans-32" x="75.195312"/>
      <use xlink:href="#DejaVuSans-30" x="138.818359"/>
      <use xlink:href="#DejaVuSans-2f" x="202.441406"/>
      <use xlink:href="#DejaVuSans-43" x="236.132812"/>
      <use xlink:href="#DejaVuSans-48" x="305.957031"/>
      <use xlink:href="#DejaVuSans-34" x="381.152344"/>
      <use xlink:href="#DejaVuSans-3a" x="444.775391"/>
      <use xlink:href="#DejaVuSans-20" x="478.466797"/>
      <use xlink:href="#DejaVuSans-30" x="510.253906"/>
      <use xlink:href="#DejaVuSans-2e" x="573.876953"/>
      <use xlink:href="#DejaVuSans-35" x="605.664062"/>
     </g>
    </g>
    <g id="line2d_23">
     <path d="M 277.835938 74.010937 
L 287.835938 74.010937 
L 297.835938 74.010937 
" style="fill: none; stroke: #9467bd; stroke-linecap: square"/>
    </g>
    <g id="text_20">
     <!-- H20/CH4: 0.3 -->
     <g transform="translate(305.835938 77.510937) scale(0.1 -0.1)">
      <use xlink:href="#DejaVuSans-48"/>
      <use xlink:href="#DejaVuSans-32" x="75.195312"/>
      <use xlink:href="#DejaVuSans-30" x="138.818359"/>
      <use xlink:href="#DejaVuSans-2f" x="202.441406"/>
      <use xlink:href="#DejaVuSans-43" x="236.132812"/>
      <use xlink:href="#DejaVuSans-48" x="305.957031"/>
      <use xlink:href="#DejaVuSans-34" x="381.152344"/>
      <use xlink:href="#DejaVuSans-3a" x="444.775391"/>
      <use xlink:href="#DejaVuSans-20" x="478.466797"/>
      <use xlink:href="#DejaVuSans-30" x="510.253906"/>
      <use xlink:href="#DejaVuSans-2e" x="573.876953"/>
      <use xlink:href="#DejaVuSans-33" x="605.664062"/>
     </g>
    </g>
   </g>
  </g>
 </g>
 <defs>
  <clipPath id="p898209bda7">
   <rect x="46.965625" y="23.944" width="334.8" height="217.44"/>
  </clipPath>
 </defs>
</svg>
